<svg width="24" height="24" viewBox="0 0 24 24" fill="none" xmlns="http://www.w3.org/2000/svg">
<circle cx="12" cy="12" r="12" fill="#FDFDFD"/>
<path d="M6.29968 17.6293H17.6878C19.0438 17.6293 19.7595 16.9262 19.7595 15.5827V8.99093C19.7595 7.64746 19.0438 6.94434 17.6878 6.94434H16.0179C15.5282 6.94434 15.3713 6.86272 15.0636 6.54255L14.5677 6.00893C14.2412 5.66364 13.9085 5.49414 13.2682 5.49414H10.6879C10.0476 5.49414 9.71486 5.66364 9.38841 6.00893L8.89246 6.54255C8.59112 6.85645 8.42789 6.94434 7.93822 6.94434H6.29968C4.94366 6.94434 4.23425 7.64746 4.23425 8.99093V15.5827C4.23425 16.9262 4.94366 17.6293 6.29968 17.6293ZM11.9937 15.6581C10.1166 15.6581 8.60995 14.1514 8.60995 12.268C8.60995 10.3783 10.1166 8.87165 11.9937 8.87165C13.8771 8.87165 15.3838 10.3783 15.3838 12.268C15.3838 14.1514 13.8771 15.6581 11.9937 15.6581ZM15.7856 9.95773C15.7856 9.512 16.1685 9.12277 16.6268 9.12277C17.0788 9.12277 17.4618 9.512 17.4618 9.95773C17.4618 10.4223 17.0788 10.7864 16.6268 10.7927C16.1685 10.7927 15.7856 10.4286 15.7856 9.95773ZM11.9937 14.5218C13.243 14.5218 14.2475 13.5173 14.2475 12.268C14.2475 11.0124 13.243 10.008 11.9937 10.008C10.7507 10.008 9.74625 11.0124 9.74625 12.268C9.74625 13.5173 10.757 14.5218 11.9937 14.5218Z" fill="#D3D3D3"/>
</svg>
