<svg width="18" height="18" viewBox="0 0 18 18" fill="none" xmlns="http://www.w3.org/2000/svg">
<path d="M3.86963 14.0662H14.1189C15.3394 14.0662 15.9835 13.4334 15.9835 12.2243V6.29164C15.9835 5.08252 15.3394 4.44971 14.1189 4.44971H12.616C12.1753 4.44971 12.034 4.37626 11.7572 4.0881L11.3108 3.60784C11.017 3.29708 10.7176 3.14453 10.1413 3.14453H7.81906C7.24275 3.14453 6.94329 3.29708 6.64948 3.60784L6.20312 4.0881C5.93192 4.37061 5.78502 4.44971 5.34431 4.44971H3.86963C2.6492 4.44971 2.01074 5.08252 2.01074 6.29164V12.2243C2.01074 13.4334 2.6492 14.0662 3.86963 14.0662ZM8.99428 12.2921C7.3049 12.2921 5.94887 10.936 5.94887 9.241C5.94887 7.54032 7.3049 6.18429 8.99428 6.18429C10.6893 6.18429 12.0453 7.54032 12.0453 9.241C12.0453 10.936 10.6893 12.2921 8.99428 12.2921ZM12.4069 7.16176C12.4069 6.7606 12.7516 6.4103 13.1641 6.4103C13.5709 6.4103 13.9155 6.7606 13.9155 7.16176C13.9155 7.57987 13.5709 7.90758 13.1641 7.91323C12.7516 7.91323 12.4069 7.58552 12.4069 7.16176ZM8.99428 11.2694C10.1187 11.2694 11.0227 10.3654 11.0227 9.241C11.0227 8.11098 10.1187 7.20696 8.99428 7.20696C7.87556 7.20696 6.97154 8.11098 6.97154 9.241C6.97154 10.3654 7.88121 11.2694 8.99428 11.2694Z" fill="#D3D3D3"/>
</svg>
