<svg width="8" height="7" viewBox="0 0 8 7" fill="none" xmlns="http://www.w3.org/2000/svg">
<path d="M2.66678 5.06686L6.60011 1.13353C6.72234 1.01131 6.87789 0.950195 7.06678 0.950195C7.25567 0.950195 7.41122 1.01131 7.53345 1.13353C7.65567 1.25575 7.71678 1.41131 7.71678 1.60019C7.71678 1.78908 7.65567 1.94464 7.53345 2.06686L3.13345 6.46686C3.00011 6.6002 2.84456 6.66686 2.66678 6.66686C2.489 6.66686 2.33345 6.6002 2.20011 6.46686L0.46678 4.73353C0.344558 4.61131 0.283447 4.45575 0.283447 4.26686C0.283447 4.07797 0.344558 3.92242 0.46678 3.8002C0.589003 3.67797 0.744558 3.61686 0.933447 3.61686C1.12234 3.61686 1.27789 3.67797 1.40011 3.8002L2.66678 5.06686Z" fill="#FDFDFD"/>
</svg>
