<?xml version="1.0" standalone="no"?>
<!DOCTYPE svg PUBLIC "-//W3C//DTD SVG 1.1//EN" "http://www.w3.org/Graphics/SVG/1.1/DTD/svg11.dtd" >
<svg xmlns="http://www.w3.org/2000/svg" xmlns:xlink="http://www.w3.org/1999/xlink" version="1.1">
<metadata>
Created by FontForge 20170731 at Sat Dec 16 06:03:11 2017
 By Aleksey,,,
unfixed
</metadata>
<defs>
<font id="AppleSDGothicNeoSB" horiz-adv-x="865" >
  <font-face 
    font-family="AppleSDGothicNeoSB"
    font-weight="400"
    font-stretch="normal"
    units-per-em="1000"
    panose-1="2 0 5 3 0 0 0 0 0 0"
    ascent="800"
    descent="-200"
    x-height="552"
    cap-height="727"
    bbox="-58 -109 882 935"
    underline-thickness="50"
    underline-position="-250"
    unicode-range="U+0020-FFE6"
  />
<missing-glyph horiz-adv-x="1000" 
d="M392 258v220h220v-220h-220z" />
    <glyph glyph-name=".notdef" horiz-adv-x="1000" 
d="M392 258v220h220v-220h-220z" />
    <glyph glyph-name=".null" horiz-adv-x="0" 
 />
    <glyph glyph-name="nonmarkingreturn" horiz-adv-x="333" 
 />
    <glyph glyph-name="space" unicode=" " horiz-adv-x="263" 
 />
    <glyph glyph-name="exclam" unicode="!" horiz-adv-x="277" 
d="M94 240l-13 510h115l-13 -510h-89zM84 31v108h110v-108h-110z" />
    <glyph glyph-name="quotedbl" unicode="&#x22;" horiz-adv-x="368" 
d="M224 553l-13 188h107l-12 -188h-82zM60 553l-11 188h105l-10 -188h-84z" />
    <glyph glyph-name="numbersign" unicode="#" horiz-adv-x="524" 
d="M60 463v83h99l30 195h76l-31 -195h104l31 195h77l-31 -195h74v-83h-89l-17 -119h80v-84h-94l-32 -204h-77l33 204h-104l-33 -204h-75l31 204h-78v84h92l19 119h-85zM222 463l-21 -119h104l20 119h-103z" />
    <glyph glyph-name="dollar" unicode="$" horiz-adv-x="513" 
d="M171 -74l12 108q-88 9 -147 42v78q76 -34 156 -42q21 193 28 242q-97 32 -139 71.5t-42 124.5q0 84 57.5 136.5t164.5 52.5q5 23 8 59h68q-1 -12 -8 -65q51 -7 104 -32v-81q-60 25 -112 32q-11 -79 -26 -222q90 -25 134 -70t44 -129q0 -92 -55.5 -144.5t-167.5 -56.5
l-12 -104h-67zM372 222q0 44 -18.5 68.5t-68.5 43.5q-5 -36 -13.5 -110.5t-13.5 -111.5q57 6 85.5 35.5t28.5 74.5zM137 559q0 -45 18.5 -68t74.5 -42q14 136 23 208q-55 -1 -85.5 -27.5t-30.5 -70.5z" />
    <glyph glyph-name="percent" unicode="%" horiz-adv-x="859" 
d="M201 358q-75 0 -119 48t-44 131v17q0 83 44.5 134t118.5 51q75 0 120 -48.5t45 -130.5v-17q0 -84 -45 -134.5t-120 -50.5zM659 34q-76 0 -120.5 47.5t-44.5 131.5v16q0 82 45.5 134t119.5 52q75 0 119 -48.5t44 -131.5v-15q0 -85 -44 -135.5t-119 -50.5zM148 3l472 743
h82l-472 -743h-82zM659 97q39 0 57 27.5t18 88.5v22q0 116 -75 116q-76 0 -76 -115v-23q0 -116 76 -116zM201 420q76 0 76 116v24q0 115 -76 115q-75 0 -75 -114v-24q0 -117 75 -117z" />
    <glyph glyph-name="ampersand" unicode="&#x26;" horiz-adv-x="646" 
d="M279 31q-116 0 -180 51t-64 147q0 70 39 117t110 83q-60 73 -60 145q0 80 52.5 122.5t129.5 42.5q76 0 125 -41t49 -109q0 -65 -40 -105.5t-113 -75.5l145 -174q27 57 35 140h89q-11 -120 -69 -207l104 -125h-122l-46 55q-77 -66 -184 -66zM282 109q77 0 133 46l-184 217
q-45 -25 -69 -55.5t-24 -77.5q0 -60 37 -95t107 -35zM226 580q0 -49 45 -105l11 -13q47 24 74 52t27 71q0 36 -21.5 58t-55.5 22q-36 0 -58 -22t-22 -63z" />
    <glyph glyph-name="quotesingle" unicode="'" horiz-adv-x="204" 
d="M60 553l-11 188h105l-10 -188h-84z" />
    <glyph glyph-name="parenleft" unicode="(" horiz-adv-x="331" 
d="M234 -62q-80 76 -130.5 182.5t-50.5 233.5v17q0 127 50.5 232t130.5 183h87q-74 -82 -120.5 -187t-46.5 -219v-27q0 -112 47 -223t120 -192h-87z" />
    <glyph glyph-name="parenright" unicode=")" horiz-adv-x="331" 
d="M10 -62q74 82 120.5 187.5t46.5 219.5v27q0 111 -47 222t-120 192h87q80 -77 130.5 -183t50.5 -232v-17q0 -128 -50.5 -234t-130.5 -182h-87z" />
    <glyph glyph-name="asterisk" unicode="*" horiz-adv-x="377" 
d="M153 429l4 106l-87 -57l-34 63l92 44l-92 44l34 63l87 -56l-4 105h72l-4 -105l84 56l36 -63l-91 -44l91 -44l-36 -63l-84 57l4 -106h-72z" />
    <glyph glyph-name="plus" unicode="+" horiz-adv-x="513" 
d="M214 150v181h-174v84h174v181h90v-181h174v-84h-174v-181h-90z" />
    <glyph glyph-name="comma" unicode="," horiz-adv-x="250" 
d="M60 -86l15 223h112l-44 -223h-83z" />
    <glyph glyph-name="hyphen" unicode="-" horiz-adv-x="387" 
d="M41 330v85h298v-85h-298z" />
    <glyph glyph-name="period" unicode="." horiz-adv-x="250" 
d="M70 31v108h110v-108h-110z" />
    <glyph glyph-name="slash" unicode="/" horiz-adv-x="349" 
d="M3 -62l238 848h88l-238 -848h-88z" />
    <glyph glyph-name="zero" unicode="0" horiz-adv-x="639" 
d="M318 30q-115 0 -186 80t-71 245v48q0 170 72.5 248.5t186.5 78.5q112 0 182 -78t70 -245v-51q0 -167 -70 -246.5t-184 -79.5zM318 112q74 0 110.5 55.5t36.5 178.5v62q0 240 -146 240q-148 0 -148 -234v-62q0 -240 147 -240z" />
    <glyph glyph-name="one" unicode="1" horiz-adv-x="376" 
d="M162 38v577l-120 -26v61l169 76h55v-688h-104z" />
    <glyph glyph-name="two" unicode="2" horiz-adv-x="534" 
d="M56 42v61l144 150q86 91 126 149.5t40 119.5q0 64 -33.5 93.5t-101.5 29.5q-69 0 -145 -50l-21 79q91 56 190 56q107 0 163.5 -51.5t56.5 -144.5q0 -43 -14 -83t-45.5 -84t-56 -71.5t-71.5 -77.5l-92 -92h288v-84h-428z" />
    <glyph glyph-name="three" unicode="3" horiz-adv-x="536" 
d="M237 32q-120 0 -190 48l19 77q27 -17 71.5 -29t82.5 -12q76 0 116 31.5t40 90.5q0 113 -151 115l-66 1v79l59 1q63 1 99.5 29.5t36.5 79.5q0 102 -126 102q-60 0 -144 -41l-13 79q32 20 84 33.5t99 13.5q94 0 150 -44.5t56 -124.5q0 -116 -125 -159q149 -29 149 -168
q0 -92 -67 -147t-180 -55z" />
    <glyph glyph-name="four" unicode="4" horiz-adv-x="573" 
d="M346 37v139h-308v66l331 483h76v-469h106v-80h-106v-139h-99zM145 256h202v296z" />
    <glyph glyph-name="five" unicode="5" horiz-adv-x="507" 
d="M223 30q-115 0 -193 49l19 81q71 -44 149 -44q75 0 117.5 37t42.5 103q0 131 -156 131q-66 0 -139 -34l25 366h349v-83h-269l-12 -184q45 13 89 13q106 0 163 -52.5t57 -157.5q0 -96 -65.5 -160.5t-176.5 -64.5z" />
    <glyph glyph-name="six" unicode="6" horiz-adv-x="567" 
d="M294 30q-118 0 -180 79t-62 223v50q0 178 76 263t204 85q92 0 158 -40l-24 -76q-20 11 -57.5 20.5t-70.5 9.5q-85 0 -130.5 -54t-51.5 -189q69 65 163 65q89 0 146 -55t57 -150q0 -101 -61 -166t-167 -65zM292 110q59 0 93 37.5t34 104.5q0 135 -128 135q-39 0 -76 -22.5
t-59 -52.5v-6q0 -196 136 -196z" />
    <glyph glyph-name="seven" unicode="7" horiz-adv-x="505" 
d="M104 40l256 593h-324v83h438v-63l-254 -613h-116z" />
    <glyph glyph-name="eight" unicode="8" horiz-adv-x="586" 
d="M291 29q-114 0 -179.5 50t-65.5 134q0 61 41.5 107.5t103.5 70.5q-126 53 -126 164q0 78 61.5 126.5t163.5 48.5q103 0 163 -45t60 -123q0 -100 -129 -162q156 -57 156 -176q0 -85 -67 -140t-182 -55zM290 108q63 0 102.5 30t39.5 78q0 54 -37.5 84.5t-122.5 54.5
q-53 -17 -89 -52.5t-36 -81.5q0 -52 39 -82.5t104 -30.5zM306 434q106 46 106 122q0 42 -31.5 68.5t-89.5 26.5q-55 0 -87 -24.5t-32 -68.5q0 -90 134 -124z" />
    <glyph glyph-name="nine" unicode="9" horiz-adv-x="567" 
d="M267 730q119 0 183 -77.5t64 -220.5v-46q0 -181 -73 -268.5t-202 -87.5q-48 0 -93.5 12.5t-71.5 29.5l21 77q58 -34 139 -34q83 0 127 52.5t49 180.5q-66 -66 -163 -66q-88 0 -146 57.5t-58 153.5q0 102 59 169.5t165 67.5zM269 649q-58 0 -91.5 -40.5t-33.5 -106.5
q0 -70 35.5 -105.5t94.5 -35.5q39 0 76.5 22.5t59.5 51.5v18q0 196 -141 196z" />
    <glyph glyph-name="colon" unicode=":" horiz-adv-x="272" 
d="M82 461v106h109v-106h-109zM82 92v106h109v-106h-109z" />
    <glyph glyph-name="semicolon" unicode=";" horiz-adv-x="272" 
d="M82 461v106h109v-106h-109zM66 -48l15 224h112l-44 -224h-83z" />
    <glyph glyph-name="less" unicode="&#x3c;" horiz-adv-x="487" 
d="M424 92l-374 227v78l374 227v-93l-273 -173l273 -172v-94z" />
    <glyph glyph-name="equal" unicode="=" horiz-adv-x="534" 
d="M60 432v80h414v-80h-414zM60 224v81h414v-81h-414z" />
    <glyph glyph-name="greater" unicode="&#x3e;" horiz-adv-x="487" 
d="M427 319l-374 -227v94l272 172l-272 173v93l374 -227v-78z" />
    <glyph glyph-name="question" unicode="?" horiz-adv-x="451" 
d="M133 240v48q0 47 21.5 75t80.5 75q59 49 59 134q0 93 -118 93q-58 0 -133 -25v77q67 30 159 30q88 0 143.5 -41.5t55.5 -128.5q0 -62 -22.5 -103.5t-78.5 -88.5q-30 -23 -42.5 -34.5t-22.5 -29.5t-10 -41v-40h-92zM125 31v108h110v-108h-110z" />
    <glyph glyph-name="at" unicode="@" horiz-adv-x="897" 
d="M448 -104q-188 0 -292.5 96.5t-104.5 272.5q0 89 29 170t83 145.5t139 102.5t189 38q162 0 260.5 -96.5t98.5 -248.5q0 -139 -60.5 -216.5t-166.5 -77.5q-94 0 -111 61h-5q-51 -60 -121 -60q-65 0 -102 42.5t-37 118.5q0 127 56.5 203t152.5 76q69 0 105 -38h5l6 29h89
l-59 -313q-10 -52 37 -52q63 0 97.5 57.5t34.5 163.5q0 131 -71.5 207t-211.5 76q-169 0 -263.5 -108.5t-94.5 -276.5q0 -147 81 -226.5t238 -79.5q97 0 225 38v-58q-101 -46 -226 -46zM413 153q45 0 93 44l40 223q-27 31 -85 31q-117 0 -117 -206q0 -92 69 -92z" />
    <glyph glyph-name="A" unicode="A" horiz-adv-x="621" 
d="M12 42l248 685h104l246 -685h-108l-66 186h-262l-65 -186h-97zM302 597l-100 -287h204l-101 287h-3z" />
    <glyph glyph-name="B" unicode="B" horiz-adv-x="599" 
d="M80 42v685h224q224 0 224 -172q0 -114 -113 -149v-5q142 -26 142 -164q0 -88 -60.5 -141.5t-174.5 -53.5h-242zM183 124h127q138 0 138 119q0 60 -36 87.5t-107 27.5h-122v-234zM183 433h103q137 0 137 107q0 58 -32 81.5t-99 23.5h-109v-212z" />
    <glyph glyph-name="C" unicode="C" horiz-adv-x="572" 
d="M346 31q-143 0 -223.5 87t-80.5 257v24q0 90 24.5 157t69 106t100 58t123.5 19q100 0 171 -37v-84q-96 35 -170 35q-96 0 -151.5 -59t-55.5 -181v-37q0 -259 210 -259q87 0 175 41v-84q-76 -43 -192 -43z" />
    <glyph glyph-name="D" unicode="D" horiz-adv-x="662" 
d="M80 42v685h214q158 0 241.5 -80.5t83.5 -242.5v-21q0 -165 -80.5 -253t-242.5 -88h-216zM183 128h115q109 0 159.5 57t50.5 185v34q0 130 -55 183.5t-167 53.5h-103v-513z" />
    <glyph glyph-name="E" unicode="E" horiz-adv-x="557" 
d="M80 42v685h416v-86h-313v-204h243v-85h-243v-224h317v-86h-420z" />
    <glyph glyph-name="F" unicode="F" horiz-adv-x="525" 
d="M80 42v685h408v-86h-305v-218h236v-85h-236v-296h-103z" />
    <glyph glyph-name="G" unicode="G" horiz-adv-x="642" 
d="M365 31q-153 0 -238 83t-85 256v20q0 95 26.5 164.5t74 108.5t104.5 57.5t125 18.5q104 0 184 -41v-86q-96 41 -186 41q-115 0 -166.5 -70t-51.5 -180v-32q0 -123 47 -189t167 -66q73 0 115 17v168h-136v82h239v-311q-99 -41 -219 -41z" />
    <glyph glyph-name="H" unicode="H" horiz-adv-x="681" 
d="M80 42v685h103v-289h314v289h104v-685h-104v311h-314v-311h-103z" />
    <glyph glyph-name="I" unicode="I" horiz-adv-x="270" 
d="M83 42v685h104v-685h-104z" />
    <glyph glyph-name="J" unicode="J" horiz-adv-x="433" 
d="M165 36q-81 0 -133 26v81q64 -22 117 -22q104 0 104 108v498h105v-504q0 -84 -48 -135.5t-145 -51.5z" />
    <glyph glyph-name="K" unicode="K" horiz-adv-x="603" 
d="M466 42l-264 349l262 336h108l-253 -326l268 -359h-121zM80 42v685h103v-685h-103z" />
    <glyph glyph-name="L" unicode="L" horiz-adv-x="509" 
d="M80 42v685h103v-599h297v-86h-400z" />
    <glyph glyph-name="M" unicode="M" horiz-adv-x="818" 
d="M80 42v685h149l179 -546h3l179 546h147v-685h-103v553h-2l-184 -553h-91l-181 553h-4v-553h-92z" />
    <glyph glyph-name="N" unicode="N" horiz-adv-x="677" 
d="M80 42v685h119l302 -513h3v513h93v-685h-104l-316 543h-4v-543h-93z" />
    <glyph glyph-name="O" unicode="O" horiz-adv-x="696" 
d="M346 31q-142 0 -223 89t-81 255v20q0 161 83 252.5t225 91.5t222.5 -89t80.5 -256v-20q0 -161 -82.5 -252t-224.5 -91zM349 113q95 0 144 67.5t49 179.5v33q0 262 -197 263q-95 0 -143.5 -67t-48.5 -178v-35q0 -263 196 -263z" />
    <glyph glyph-name="P" unicode="P" horiz-adv-x="571" 
d="M80 42v685h226q116 0 175 -53t59 -153q0 -104 -60.5 -159.5t-164.5 -55.5h-132v-264h-103zM183 387h112q73 0 104.5 30.5t31.5 95.5q0 70 -30.5 100t-103.5 30h-114v-256z" />
    <glyph glyph-name="Q" unicode="Q" horiz-adv-x="696" 
d="M653 375q0 -255 -200 -312l223 -54l-24 -88l-388 115q-222 66 -222 339v20q0 161 83 252.5t225 91.5t222.5 -89t80.5 -255v-20zM349 111q95 0 144 68.5t49 180.5v33q0 262 -197 263q-95 0 -143.5 -67t-48.5 -178v-35q0 -265 196 -265z" />
    <glyph glyph-name="R" unicode="R" horiz-adv-x="593" 
d="M80 42v685h214q233 0 233 -198q0 -70 -32.5 -112t-95.5 -66v-5l175 -304h-115l-160 285h-116v-285h-103zM183 403h101q71 0 103 30t32 93q0 62 -32 89.5t-104 27.5h-100v-240z" />
    <glyph glyph-name="S" unicode="S" horiz-adv-x="510" 
d="M234 30q-119 0 -200 45v84q91 -43 193 -43q138 0 138 111q0 44 -23 68t-82 43l-67 22q-75 23 -113.5 67t-38.5 123q0 86 57 137.5t164 51.5q97 0 173 -38v-84q-84 36 -173 36q-57 0 -88 -24t-31 -70q0 -45 19.5 -68t72.5 -39l68 -21q85 -27 126.5 -70t41.5 -126
q0 -97 -59 -151t-178 -54z" />
    <glyph glyph-name="T" unicode="T" horiz-adv-x="549" 
d="M224 42v599h-201v86h503v-86h-199v-599h-103z" />
    <glyph glyph-name="U" unicode="U" horiz-adv-x="665" 
d="M336 30q-128 0 -195 62.5t-67 188.5v446h106v-440q0 -98 39 -138t121 -40q81 0 117.5 39.5t36.5 139.5v439h94v-443q0 -131 -62 -192.5t-190 -61.5z" />
    <glyph glyph-name="V" unicode="V" horiz-adv-x="616" 
d="M258 42l-245 685h107l191 -550h3l190 550h98l-245 -685h-99z" />
    <glyph glyph-name="W" unicode="W" horiz-adv-x="875" 
d="M193 42l-172 685h105l123 -529h3l149 529h86l146 -529h2l125 529h94l-170 -685h-100l-142 519h-3l-146 -519h-100z" />
    <glyph glyph-name="X" unicode="X" horiz-adv-x="618" 
d="M26 42l221 349l-208 336h114l164 -262h5l151 262h105l-201 -336l213 -349h-114l-171 276h-2l-170 -276h-107z" />
    <glyph glyph-name="Y" unicode="Y" horiz-adv-x="572" 
d="M235 42v265l-223 420h110l169 -323h3l166 323h100l-222 -420v-265h-103z" />
    <glyph glyph-name="Z" unicode="Z" horiz-adv-x="547" 
d="M34 42v77l358 519v3h-333v86h456v-76l-359 -520v-3h348v-86h-470z" />
    <glyph glyph-name="bracketleft" unicode="[" horiz-adv-x="350" 
d="M81 -62v848h231v-76h-132v-695h132v-77h-231z" />
    <glyph glyph-name="backslash" unicode="\" horiz-adv-x="349" 
d="M91 786l238 -848h-88l-238 848h88z" />
    <glyph glyph-name="bracketright" unicode="]" horiz-adv-x="350" 
d="M38 -62v77h133v695h-133v76h232v-848h-232z" />
    <glyph glyph-name="asciicircum" unicode="^" horiz-adv-x="464" 
d="M47 501l145 245h82l143 -245h-84l-100 156l-100 -156h-86z" />
    <glyph glyph-name="underscore" unicode="_" horiz-adv-x="337" 
d="M2 -68v65h334v-65h-334z" />
    <glyph glyph-name="grave" unicode="`" horiz-adv-x="501" 
d="M211 636l-105 143h108l83 -143h-86z" />
    <glyph glyph-name="a" unicode="a" horiz-adv-x="483" 
d="M193 33q-72 0 -115 36.5t-43 108.5q0 128 159 149l128 15v44q0 56 -26 74.5t-96 18.5q-57 0 -123 -15v69q72 29 162 29q182 0 182 -151v-369h-81l-9 43h-6q-42 -52 -132 -52zM219 105q68 0 103 33v136l-106 -11q-42 -5 -61.5 -23.5t-19.5 -57.5q0 -38 22.5 -57.5
t61.5 -19.5z" />
    <glyph glyph-name="b" unicode="b" horiz-adv-x="556" 
d="M258 30q-116 0 -192 27v715h98v-253h5q70 43 154 43q38 0 71 -12.5t62 -39.5t46 -77.5t17 -118.5v-14q0 -130 -66.5 -200t-194.5 -70zM265 109q151 0 151 176v21q0 96 -33 134.5t-108 38.5q-55 0 -111 -27v-326q45 -17 101 -17z" />
    <glyph glyph-name="c" unicode="c" horiz-adv-x="453" 
d="M275 33q-112 0 -175.5 64t-63.5 188v17q0 128 68 194t177 66q84 0 140 -33v-81q-73 31 -141 31q-66 0 -104 -42.5t-38 -121.5v-26q0 -91 38 -133t114 -42q66 0 137 34v-75q-62 -40 -152 -40z" />
    <glyph glyph-name="d" unicode="d" horiz-adv-x="556" 
d="M247 33q-86 0 -147 60t-61 188v13q0 135 61.5 201.5t164.5 66.5q74 0 127 -31v241h99v-730h-84l-9 41h-5q-50 -50 -146 -50zM281 111q61 0 111 38v303q-33 28 -112 28q-69 0 -104.5 -40t-35.5 -134v-21q0 -95 36.5 -134.5t104.5 -39.5z" />
    <glyph glyph-name="e" unicode="e" horiz-adv-x="509" 
d="M283 33q-122 0 -184.5 68t-62.5 190v13q0 125 65 191.5t163 66.5q211 0 211 -244v-48h-338q5 -85 45.5 -120.5t118.5 -35.5q75 0 158 37v-69q-68 -49 -176 -49zM260 484q-48 0 -83 -32t-40 -110h235q0 76 -27.5 109t-84.5 33z" />
    <glyph glyph-name="f" unicode="f" horiz-adv-x="332" 
d="M96 42v431h-74v79h74v69q0 80 44 119.5t118 39.5q57 0 91 -17v-67q-30 7 -69 7q-85 0 -85 -91v-60h113v-79h-113v-431h-99z" />
    <glyph glyph-name="g" unicode="g" horiz-adv-x="515" 
d="M249 -106q-119 0 -176 26.5t-57 83.5q0 72 95 105v5q-26 9 -39 21t-13 35q0 53 59 94q-64 44 -64 123v10q0 78 54.5 121.5t143.5 43.5q39 0 77 -8h173v-71h-82q27 -30 27 -82v-10q0 -77 -54.5 -117.5t-141.5 -40.5q-47 0 -83 11q-19 -19 -19 -37t10 -23t37 -5h140
q163 0 163 -133q0 -152 -250 -152zM247 -33q84 0 117 14t33 50q0 32 -19.5 45.5t-64.5 13.5h-137q-59 -19 -59 -72q0 -29 29 -40t101 -11zM251 301q100 0 100 86v14q0 91 -100 91q-47 0 -73.5 -23t-26.5 -66v-14q0 -44 26.5 -66t73.5 -22z" />
    <glyph glyph-name="h" unicode="h" horiz-adv-x="546" 
d="M66 42v730h98v-262h5q75 52 167 52q75 0 111 -33.5t36 -106.5v-380h-99v357q0 44 -18.5 61.5t-74.5 17.5q-61 0 -127 -32v-404h-98z" />
    <glyph glyph-name="i" unicode="i" horiz-adv-x="237" 
d="M69 42v510h98v-510h-98zM68 647v96h100v-96h-100z" />
    <glyph glyph-name="j" unicode="j" horiz-adv-x="237" 
d="M21 -109q-50 0 -79 17v68q30 -7 52 -7q75 0 75 74v509h98v-515q0 -67 -35.5 -106.5t-110.5 -39.5zM68 647v96h100v-96h-100z" />
    <glyph glyph-name="k" unicode="k" horiz-adv-x="496" 
d="M66 42v730h98v-730h-98zM369 42l-196 264l188 246h105l-187 -240l201 -270h-111z" />
    <glyph glyph-name="l" unicode="l" horiz-adv-x="237" 
d="M69 42v730h98v-730h-98z" />
    <glyph glyph-name="m" unicode="m" horiz-adv-x="822" 
d="M66 42v510h95v-44h4q80 54 156 54q87 0 121 -57h4q88 57 172 57q141 0 141 -140v-380h-99v357q0 43 -19 61t-66 18q-48 0 -116 -33q2 -18 2 -27v-376h-98v357q0 43 -18.5 61t-65.5 18q-53 0 -115 -32v-404h-98z" />
    <glyph glyph-name="n" unicode="n" horiz-adv-x="546" 
d="M66 42v510h95v-44h4q77 54 171 54q75 0 111 -33.5t36 -106.5v-380h-99v357q0 44 -18.5 61.5t-74.5 17.5q-61 0 -127 -32v-404h-98z" />
    <glyph glyph-name="o" unicode="o" horiz-adv-x="544" 
d="M273 33q-113 0 -175 66.5t-62 186.5v17q0 120 65 189.5t173 69.5q111 0 173 -67.5t62 -188.5v-15q0 -120 -65 -189t-171 -69zM274 110q63 0 97.5 44t34.5 127v27q0 175 -134 175q-65 0 -100 -44t-35 -127v-27q0 -175 137 -175z" />
    <glyph glyph-name="p" unicode="p" horiz-adv-x="556" 
d="M66 -108v660h95v-41h4q55 51 146 51q92 0 150 -58.5t58 -190.5v-14q0 -260 -230 -260q-71 0 -125 30v-177h-98zM277 116q70 0 104.5 38.5t34.5 131.5v21q0 96 -33 134t-101 38q-75 0 -118 -33v-298q42 -32 113 -32z" />
    <glyph glyph-name="q" unicode="q" horiz-adv-x="554" 
d="M392 -108v186h-5q-52 -40 -139 -40q-86 0 -147.5 59.5t-61.5 187.5v14q0 74 19.5 127t55.5 82t80 41.5t100 12.5q112 0 197 -36v-634h-99zM280 118q66 0 112 35v316q-51 15 -104 15q-72 0 -110 -40t-38 -134v-20q0 -95 36 -133.5t104 -38.5z" />
    <glyph glyph-name="r" unicode="r" horiz-adv-x="353" 
d="M66 42v510h95v-57h4q24 27 61 45t76 18q25 0 32 -4v-88q-20 3 -40 3q-74 0 -130 -37v-390h-98z" />
    <glyph glyph-name="s" unicode="s" horiz-adv-x="424" 
d="M201 34q-107 0 -166 36v74q31 -12 44 -16.5t43.5 -10t64.5 -5.5q105 0 105 68q0 30 -17.5 46t-63.5 26l-47 13q-62 15 -95 48t-33 97q0 71 46 111.5t136 40.5q83 0 143 -30v-76q-61 25 -135 25q-96 0 -96 -63q0 -28 15.5 -42.5t55.5 -25.5l48 -12q77 -18 108.5 -51
t31.5 -100q0 -75 -49.5 -114t-138.5 -39z" />
    <glyph glyph-name="t" unicode="t" horiz-adv-x="356" 
d="M235 37q-141 0 -141 128v308h-72v79h72v120h99v-120h123v-79h-123v-294q0 -35 15 -49t55 -14q23 0 63 6v-66q-44 -19 -91 -19z" />
    <glyph glyph-name="u" unicode="u" horiz-adv-x="540" 
d="M218 33q-76 0 -115.5 37.5t-39.5 111.5v370h99v-353q0 -46 19 -64.5t70 -18.5q53 0 125 33v403h98v-510h-84l-10 44h-5q-74 -53 -157 -53z" />
    <glyph glyph-name="v" unicode="v" horiz-adv-x="507" 
d="M204 42l-187 510h106l133 -387h3l135 387h96l-186 -510h-100z" />
    <glyph glyph-name="w" unicode="w" horiz-adv-x="745" 
d="M164 42l-143 510h104l97 -383h5l110 383h84l112 -383h4l96 383h92l-143 -510h-97l-109 363h-4l-109 -363h-99z" />
    <glyph glyph-name="x" unicode="x" horiz-adv-x="494" 
d="M16 42l170 260l-163 250h117l114 -183l106 183h104l-154 -249l168 -261h-117l-118 192l-121 -192h-106z" />
    <glyph glyph-name="y" unicode="y" horiz-adv-x="497" 
d="M107 -107q-40 0 -68 14v69q18 -6 48 -6q42 0 65.5 8t33.5 35l22 57l-195 482h105l139 -357h2l128 357h96l-205 -553q-25 -67 -61 -86.5t-110 -19.5z" />
    <glyph glyph-name="z" unicode="z" horiz-adv-x="460" 
d="M38 42v72l264 356v3h-251v79h371v-70l-266 -359v-3h265v-78h-383z" />
    <glyph glyph-name="braceleft" unicode="{" horiz-adv-x="372" 
d="M341 -65q-125 3 -171 45.5t-46 118.5v135q0 46 -23.5 65t-85.5 24v78q61 4 85 23t24 65v135q0 37 9 63.5t31.5 50t67 36.5t109.5 14v-76q-65 -5 -91.5 -24t-26.5 -69v-134q0 -47 -23 -78.5t-83 -43.5v-3q106 -19 106 -120v-135q0 -51 26 -69t92 -23v-78z" />
    <glyph glyph-name="bar" unicode="|" horiz-adv-x="287" 
d="M102 -62v848h83v-848h-83z" />
    <glyph glyph-name="braceright" unicode="}" horiz-adv-x="372" 
d="M31 -65v78q65 5 92 23.5t27 68.5v135q0 47 22.5 78t83.5 42v3q-61 12 -83.5 43t-22.5 79v134q0 51 -27 69.5t-92 23.5v76q125 -3 171.5 -45t46.5 -118v-135q0 -46 23 -65t85 -24v-78q-61 -4 -84.5 -23t-23.5 -65v-135q0 -76 -46.5 -119t-171.5 -46z" />
    <glyph glyph-name="asciitilde" unicode="~" horiz-adv-x="657" 
d="M335 432q27 -20 38 -28t34 -18.5t41 -10.5q27 0 49 27t26 68q15 -5 40 -11.5t40 -11.5q-9 -82 -53 -122.5t-104 -39.5q-64 3 -116 40q-78 61 -112 64h1q-29 4 -53.5 -19.5t-32.5 -64.5q-13 6 -37 15.5t-38 16.5q19 82 67.5 116.5t105.5 25.5q51 -7 104 -47z" />
    <glyph glyph-name="exclamdown" unicode="&#xa1;" horiz-adv-x="400" 
d="M133 31l14 511h89l12 -511h-115zM136 642v108h110v-108h-110z" />
    <glyph glyph-name="currency" unicode="&#xa4;" horiz-adv-x="829" 
d="M622 368q0 91 -63.5 154.5t-154.5 63.5t-154.5 -63.5t-63.5 -154.5t63.5 -154.5t154.5 -63.5t154.5 63.5t63.5 154.5zM708 676l56 -56l-111 -98q43 -70 43 -154q0 -91 -51 -166q6 -5 58 -51.5t58 -52.5l-51 -58l-117 106q-84 -71 -189 -71q-101 0 -181 63
q-4 -3 -56.5 -49t-56.5 -49l-52 58l110 98q-56 79 -56 172q0 85 47 159q-23 23 -103 93l56 56l99 -88q84 72 193 72q110 0 199 -79q7 7 105 95z" />
    <glyph glyph-name="dieresis" unicode="&#xa8;" horiz-adv-x="488" 
d="M285 661v94h92v-94h-92zM111 661v94h93v-94h-93z" />
    <glyph glyph-name="plusminus" unicode="&#xb1;" horiz-adv-x="587" 
d="M257 636h73v-190h223v-68h-223v-196h-73v196h-222v68h222v190zM35 129h518v-69h-518v69z" />
    <glyph glyph-name="acute" unicode="&#xb4;" horiz-adv-x="488" 
d="M197 636l82 143h109l-104 -143h-87z" />
    <glyph glyph-name="cedilla" unicode="&#xb8;" horiz-adv-x="488" 
d="M199 -105v54q100 8 100 39q0 17 -18.5 24t-59.5 7v92h58v-46q97 -6 97 -71q0 -45 -40 -68.5t-137 -30.5z" />
    <glyph glyph-name="questiondown" unicode="&#xbf;" horiz-adv-x="419" 
d="M294 539v-48q0 -33 -14 -60t-29.5 -41.5t-58.5 -49.5q-59 -47 -59 -133q0 -50 29.5 -71.5t88.5 -21.5q61 0 133 24v-77q-69 -30 -159 -30q-88 0 -144 42t-56 128q0 62 23 103.5t79 88.5q32 25 43 35.5t21.5 28.5t10.5 41v41h92zM302 747v-108h-110v108h110z" />
    <glyph glyph-name="Aring" unicode="&#xc5;" horiz-adv-x="621" 
d="M12 42l248 685h104l246 -685h-108l-66 186h-262l-65 -186h-97zM302 597l-100 -287h204l-101 287h-3zM311 935h1q40 0 63.5 -24t23.5 -60q0 -41 -25.5 -65t-63.5 -24q-39 0 -63 23.5t-24 60.5q0 40 24 64.5t64 24.5zM310 887h-1q-16 0 -25 -11t-9 -30q0 -16 9.5 -26
t25.5 -10q36 0 36 40q0 37 -36 37z" />
    <glyph glyph-name="multiply" unicode="&#xd7;" horiz-adv-x="587" 
d="M35 540l49 49l209 -213l211 213l49 -49l-210 -215l210 -213l-49 -52l-211 215l-209 -215l-49 52l209 213z" />
    <glyph glyph-name="divide" unicode="&#xf7;" horiz-adv-x="587" 
d="M293 444h-1q-25 0 -41 17.5t-16 44.5q0 26 16 43t42 17t42 -17t17 -43q0 -27 -16 -44.5t-43 -17.5zM553 293h-518v71h518v-71zM293 92h-1q-25 0 -41 17t-16 42q0 28 16 45t42 17q27 0 42.5 -17t16.5 -45q0 -25 -16.5 -42t-42.5 -17z" />
    <glyph glyph-name="caron" unicode="&#x2c7;" horiz-adv-x="488" 
d="M386 778q-11 -15 -45.5 -65t-54.5 -77h-85q-48 66 -100 142h76l67 -73l65 73h77z" />
    <glyph glyph-name="breve" unicode="&#x2d8;" horiz-adv-x="488" 
d="M243 641q-58 0 -94.5 35.5t-39.5 92.5h74q8 -57 60 -57q54 0 62 57h73q-2 -57 -39 -92.5t-96 -35.5z" />
    <glyph glyph-name="dotaccent" unicode="&#x2d9;" horiz-adv-x="488" 
d="M194 661v96h100v-96h-100z" />
    <glyph glyph-name="ring" unicode="&#x2da;" horiz-adv-x="488" 
d="M243 625q-41 0 -69 27.5t-28 65.5q0 39 28 66.5t69 27.5q43 0 71 -27t28 -67q0 -38 -28 -65.5t-71 -27.5zM243 671q22 0 35 12.5t13 34.5q0 21 -13 35t-35 14q-21 0 -33.5 -14t-12.5 -35q0 -22 12.5 -34.5t33.5 -12.5z" />
    <glyph glyph-name="ogonek" unicode="&#x2db;" horiz-adv-x="488" 
d="M252 -104q-51 0 -79.5 22.5t-28.5 61.5q0 68 85 113h72q-72 -56 -72 -99q0 -34 49 -34q13 0 31 3v-58q-23 -9 -57 -9z" />
    <glyph glyph-name="hungarumlaut" unicode="&#x2dd;" horiz-adv-x="488" 
d="M108 636l47 143h103l-68 -143h-82zM270 636l47 143h102l-68 -143h-81z" />
    <glyph glyph-name="Omega" unicode="&#x3a9;" horiz-adv-x="715" 
d="M540 137v-2h144v-81h-264v64q62 43 103.5 118.5t41.5 168.5q0 99 -55 174.5t-149 75.5q-96 0 -153 -74.5t-57 -176.5q0 -88 42 -168t102 -118v-64h-265v81h143v2q-55 46 -92.5 117.5t-37.5 160.5q0 141 91.5 233t229.5 92q139 0 223 -91.5t84 -225.5q0 -94 -37.5 -166.5
t-93.5 -119.5z" />
    <glyph glyph-name="quoteleft" unicode="&#x2018;" horiz-adv-x="207" 
d="M164 686v-117h-117v113q0 53 32.5 94t84.5 52v-51q-61 -18 -63 -91h63z" />
    <glyph glyph-name="quoteright" unicode="&#x2019;" horiz-adv-x="207" 
d="M154 777v-113q0 -54 -32.5 -96t-83.5 -53v53q61 18 63 90h-65v119h118z" />
    <glyph glyph-name="quotedblleft" unicode="&#x201c;" horiz-adv-x="362" 
d="M212 562v113q0 57 33.5 98t91.5 54v-59q-58 -15 -61 -82h57v-124h-121zM67 562v113q0 57 34 98t91 54v-59q-58 -15 -60 -82h54v-124h-119z" />
    <glyph glyph-name="quotedblright" unicode="&#x201d;" horiz-adv-x="362" 
d="M158 788v-113q0 -57 -33.5 -99t-91.5 -55v61q58 15 61 82h-56v124h120zM303 788v-113q0 -57 -33.5 -99t-90.5 -55v61q57 15 60 82h-55v124h119z" />
    <glyph glyph-name="twodotenleader" unicode="&#x2025;" horiz-adv-x="799" 
d="M169 323v109h110v-109h-110zM520 323v109h110v-109h-110z" />
    <glyph glyph-name="ellipsis" unicode="&#x2026;" 
d="M86 324v108h110v-108h-110zM379 324v108h110v-108h-110zM668 324v108h110v-108h-110z" />
    <glyph glyph-name="perthousand" unicode="&#x2030;" 
d="M503 217q0 54 -14 87.5t-42 33.5q-27 0 -40.5 -34t-13.5 -87q0 -54 13.5 -87t40.5 -33t41.5 33.5t14.5 86.5zM222 522q0 120 -55 120q-27 0 -41 -33.5t-14 -86.5t13.5 -87t40.5 -34t41 34.5t15 86.5zM753 217q0 54 -13.5 87.5t-40.5 33.5t-41.5 -34t-14.5 -87t14 -86.5
t41 -33.5t41 33.5t14 86.5zM567 217q0 -86 -31 -132.5t-89 -46.5q-56 0 -87 47t-31 132q0 86 30.5 133t87.5 47q58 0 89 -47t31 -133zM481 719h62l-399 -698h-64zM166 702q57 0 88 -47t31 -132q1 -86 -30 -133.5t-88 -47.5t-88 47t-31 133t30.5 133t87.5 47zM818 217
q0 -86 -31 -132.5t-88 -46.5q-58 0 -89 46.5t-31 132.5t31 133t88 47q58 0 89 -47t31 -133z" />
    <glyph glyph-name="minute" unicode="&#x2032;" horiz-adv-x="431" 
d="M115 522l72 255h114l-121 -255h-65z" />
    <glyph glyph-name="second" unicode="&#x2033;" horiz-adv-x="484" 
d="M60 522l73 255h112l-120 -255h-65zM232 522l72 255h113l-120 -255h-65z" />
    <glyph glyph-name="uni2103" unicode="&#x2103;" horiz-adv-x="777" 
d="M537 41q-143 0 -223.5 83.5t-80.5 252.5v24q0 90 25 156t70 103.5t100 55t122 17.5q99 0 171 -36v-85q-94 36 -170 36q-96 0 -151.5 -56t-55.5 -177v-37q0 -126 50.5 -189t159.5 -63q83 0 174 41v-83q-72 -43 -191 -43zM125 560q-46 0 -76 31t-30 75t30 74.5t76 30.5
t76.5 -30.5t30.5 -74.5t-30.5 -75t-76.5 -31zM125 606q24 0 38.5 17t14.5 43t-14.5 43t-38.5 17q-23 0 -37.5 -17.5t-14.5 -42.5q0 -26 14 -43t38 -17z" />
    <glyph glyph-name="uni2109" unicode="&#x2109;" horiz-adv-x="851" 
d="M243 651q0 9 -1 13q-4 16 -17.5 27.5t-30.5 11.5q-21 0 -35 -16t-14 -38q0 -19 14.5 -35t34.5 -16q21 0 35 15.5t14 37.5zM290 649q0 -11 -3 -21q-8 -29 -33 -47.5t-59 -18.5q-41 0 -68.5 25.5t-27.5 61.5q0 38 27 64.5t69 26.5q41 0 68 -26.5t27 -64.5zM740 708v-87
h-280v-198h254v-86h-253v-293h-104v664h383z" />
    <glyph glyph-name="afii61289" unicode="&#x2113;" horiz-adv-x="456" 
d="M285 188l57 -31q-27 -58 -56.5 -83.5t-69.5 -25.5h-5q-67 3 -92 76q-28 -24 -56 -40q-7 10 -19 30t-19 30q57 36 81 59q-3 46 -3 94q2 137 23 231q44 203 156 203q102 0 102 -148q0 -90 -55.5 -210t-141.5 -203q7 -47 31 -50h3q16 0 34 19.5t30 48.5zM182 276
q51 63 84 146.5t33 148.5q0 75 -24 75q-16 0 -34 -35t-30 -88q-24 -106 -29 -247z" />
    <glyph glyph-name="arrowdblright" unicode="&#x21d2;" horiz-adv-x="891" 
d="M625 619l257 -258l-257 -258l-38 37l105 106h-687v55h740l63 60q-51 51 -63 61h-740v55h686l-27 27l-50 50l-27 27z" />
    <glyph glyph-name="arrowdblboth" unicode="&#x21d4;" horiz-adv-x="884" 
d="M621 619l257 -258l-257 -258l-38 37l105 106h-497q3 -3 52 -51.5t53 -54.5l-38 -37l-257 258l257 258l38 -38l-104 -104h495l-52 52l-52 52zM742 301l63 60q-14 12 -63 61h-605q-47 -47 -63 -61l63 -60h605z" />
    <glyph glyph-name="universal" unicode="&#x2200;" horiz-adv-x="846" 
d="M422 121h1l102 316h-202zM613 721h113l-236 -686h-128l-233 686h108l66 -203h242z" />
    <glyph glyph-name="partialdiff" unicode="&#x2202;" horiz-adv-x="509" 
d="M78 652l-30 66q76 53 171 53q109 0 184.5 -91.5t75.5 -249.5q0 -175 -77 -271t-189 -96q-94 0 -144 60.5t-50 143.5q0 99 60 167t150 68q54 0 95 -25t58 -56h1q1 9 1 28q0 112 -50.5 176.5t-122.5 64.5q-64 0 -133 -38zM224 143q57 0 98 56.5t51 136.5q-14 36 -47.5 61.5
t-78.5 25.5q-54 0 -91.5 -44.5t-37.5 -110.5q0 -57 29.5 -91t76.5 -34z" />
    <glyph glyph-name="existential" unicode="&#x2203;" horiz-adv-x="846" 
d="M244 350v85h287v201h-304v87h407v-687h-420v86h317v228h-287z" />
    <glyph glyph-name="gradient" unicode="&#x2207;" horiz-adv-x="846" 
d="M423 171l257 411h-514zM43 650h760l-380 -601z" />
    <glyph glyph-name="element" unicode="&#x2208;" 
d="M726 417v-76h-572q10 -59 56.5 -93.5t131.5 -34.5h386v-78h-382q-136 0 -206 69t-70 177q0 102 67.5 167t204.5 65h386v-78h-386q-83 0 -129 -32.5t-57 -85.5h570z" />
    <glyph glyph-name="suchthat" unicode="&#x220b;" 
d="M111 341v77h569q-12 53 -57.5 85t-127.5 32h-385v78h385q136 0 204 -65.5t68 -166.5q0 -107 -70 -176.5t-206 -69.5h-381v78h385q84 0 130 34.5t56 93.5h-570z" />
    <glyph glyph-name="product" unicode="&#x220f;" horiz-adv-x="654" 
d="M640 627h-106v-651h-98v651h-218v-651h-98v651h-106v87h626v-87z" />
    <glyph glyph-name="summation" unicode="&#x2211;" horiz-adv-x="547" 
d="M537 62v-86h-517v64q46 56 130 160t117 145q-31 39 -111.5 140t-123.5 156v73h481v-87h-345v-2q16 -20 217 -277l-228 -282v-4h380z" />
    <glyph glyph-name="radical" unicode="&#x221a;" horiz-adv-x="534" 
d="M557 829l-220 -871h-70l-153 406l-72 -29l-20 49l142 58l114 -320q9 -22 18 -65h2q2 6 6.5 30t7.5 36l172 706h73z" />
    <glyph glyph-name="proportional" unicode="&#x221d;" 
d="M758 516l-33 -52q-46 30 -79 30q-46 0 -80.5 -29.5t-66.5 -88.5q32 -59 66.5 -88t80.5 -29q32 0 71 21l30 -54q-53 -31 -101 -31q-107 0 -181 119q-73 -118 -184 -118q-71 0 -123.5 47.5t-52.5 133.5q0 83 52.5 132t122.5 49q113 0 185 -121q76 121 181 121q54 0 112 -42
zM285 261q51 0 85 32t62 83q-65 116 -147 116q-51 0 -81.5 -32t-30.5 -83q0 -54 29 -85t83 -31z" />
    <glyph glyph-name="infinity" unicode="&#x221e;" horiz-adv-x="723" 
d="M540 187q-35 0 -70.5 18.5t-55 36t-52.5 51.5q-63 -60 -91 -78q-46 -28 -96 -28q-66 0 -107.5 43t-41.5 110q0 63 44 108t112 45q27 0 51 -8t51 -28.5t38 -30.5t40 -39q36 36 54.5 52.5t55.5 35t76 18.5q66 0 107.5 -43t41.5 -110q0 -63 -44.5 -108t-112.5 -45zM541 255
h1q35 0 58.5 24.5t23.5 60.5q0 37 -22.5 61.5t-57.5 24.5q-25 0 -53 -15.5t-42 -29t-42 -41.5q7 -6 28.5 -26.5t33 -30t32 -19t40.5 -9.5zM180 255q25 0 53.5 16t40.5 27.5t42 41.5q-6 5 -28 26.5t-33 30.5t-32 19t-41 10q-35 0 -59.5 -25.5t-24.5 -60.5q0 -37 23.5 -61
t58.5 -24z" />
    <glyph glyph-name="angle" unicode="&#x2220;" horiz-adv-x="846" 
d="M716 144v-70h-586v50l450 525l55 -46l-395 -459h476z" />
    <glyph glyph-name="uni2225" unicode="&#x2225;" 
d="M371 813v-902h-52v902h52zM537 813v-902h-54v902h54z" />
    <glyph glyph-name="logicaland" unicode="&#x2227;" 
d="M450 642l281 -545l-56 -27l-252 487l-252 -487l-56 27l281 545h54z" />
    <glyph glyph-name="logicalor" unicode="&#x2228;" 
d="M675 649l56 -28l-281 -544h-54l-281 544l56 28l252 -487z" />
    <glyph glyph-name="intersection" unicode="&#x2229;" horiz-adv-x="617" 
d="M308 685q107 0 172 -69.5t65 -206.5v-382h-82v387q0 98 -41.5 146.5t-113.5 48.5t-113.5 -48.5t-41.5 -146.5v-387h-82v382q0 137 65.5 206.5t171.5 69.5z" />
    <glyph glyph-name="union" unicode="&#x222a;" horiz-adv-x="617" 
d="M70 685h82v-385q0 -98 43 -146t110 -48q72 0 115.5 48t43.5 146v385h82v-380q0 -136 -69 -207t-175 -71q-101 0 -166.5 68.5t-65.5 204.5v385z" />
    <glyph glyph-name="integral" unicode="&#x222b;" horiz-adv-x="316" 
d="M301 812l-11 -62q-20 4 -32 4q-27 0 -44 -23q-25 -32 -25 -147q0 -70 6 -220t6 -226q0 -125 -39 -178q-34 -54 -100 -54q-30 0 -55 10l12 63q20 -5 35 -5q26 0 42 20q28 35 28 143q0 76 -6.5 229t-6.5 224q0 136 53 192q35 38 91 38q26 0 46 -8z" />
    <glyph glyph-name="uni222C" unicode="&#x222c;" horiz-adv-x="539" 
d="M299 812l-12 -62q-20 4 -30 4q-28 0 -45 -23q-26 -35 -26 -147q0 -70 6.5 -220t6.5 -226q0 -123 -39 -178q-35 -54 -100 -54q-30 0 -55 10l12 63q20 -5 35 -5q25 0 41 20q29 34 29 143q0 76 -6.5 229t-6.5 224q0 136 53 192q34 38 91 38q28 0 46 -8zM522 812l-11 -62
q-18 4 -30 4q-30 0 -44 -23q-26 -31 -26 -147q0 -70 6 -220t6 -226q0 -125 -39 -178q-34 -54 -100 -54q-31 0 -56 10l13 63q23 -5 34 -5q26 0 43 20q28 37 28 143q0 76 -6.5 229t-6.5 224q0 134 53 192q34 38 91 38q27 0 45 -8z" />
    <glyph glyph-name="uni222E" unicode="&#x222e;" horiz-adv-x="846" 
d="M623 697l-45 -20q-16 37 -48 37q-21 0 -40 -57t-30 -157q54 -6 87.5 -42.5t28.5 -96.5q-4 -58 -42.5 -94.5t-92.5 -43.5q-14 -109 -41 -174q-33 -82 -89 -82q-59 0 -88 57l42 24q19 -39 49 -39q21 0 41 58t29 157q-50 8 -80.5 44t-26.5 93q5 55 40 90.5t85 45.5
q14 110 42 178q33 82 89 82q60 0 90 -60zM529 361q4 41 -15.5 72t-56.5 38q-4 -49 -6 -109q-2 -65 -7 -110q36 8 59 37.5t26 71.5zM399 467q-67 -25 -75 -106q-3 -41 14 -70t49 -38q4 49 6 109q1 53 6 105z" />
    <glyph glyph-name="therefore" unicode="&#x2234;" horiz-adv-x="551" 
d="M512 129q0 -23 -16 -39t-38 -16q-23 0 -39 16t-16 39q0 22 16 37.5t39 15.5q22 0 38 -15.5t16 -37.5zM148 129q0 -23 -16 -39t-39 -16t-38.5 16t-15.5 39q0 22 15.5 37.5t38.5 15.5t39 -15.5t16 -37.5zM329 508q0 -23 -15.5 -39.5t-38.5 -16.5t-39 16.5t-16 39.5
q0 22 16 37.5t39 15.5t38.5 -15.5t15.5 -37.5z" />
    <glyph glyph-name="uni2235" unicode="&#x2235;" horiz-adv-x="551" 
d="M39 507q0 23 15.5 38.5t38.5 15.5t39 -15.5t16 -38.5t-16 -38.5t-39 -15.5t-38.5 15.5t-15.5 38.5zM403 507q0 23 16 38.5t39 15.5q22 0 38 -15.5t16 -38.5t-16 -38.5t-38 -15.5q-23 0 -39 15.5t-16 38.5zM221 128q0 23 15.5 39t38.5 16t39 -16.5t16 -38.5t-16 -38
t-39 -16t-38.5 15.5t-15.5 38.5z" />
    <glyph glyph-name="uni223D" unicode="&#x223d;" 
d="M789 377q0 -75 -50.5 -128.5t-125.5 -53.5q-56 0 -118 43l31 51q43 -30 87 -30q49 0 80 33.5t31 84.5q0 46 -31.5 81.5t-78.5 35.5q-49 0 -83 -30.5t-69 -95.5q-15 -28 -22.5 -41.5t-29.5 -43t-42 -45t-52.5 -29t-69.5 -13.5q-71 0 -123 47.5t-52 133.5q0 83 51.5 132
t122.5 49q56 0 120 -41l-31 -53q-48 28 -82 28q-51 0 -82.5 -32t-31.5 -83q0 -52 30 -84t83 -32q32 0 59.5 14t48.5 42t31.5 45t25.5 48q78 148 196 148q75 0 126 -54.5t51 -126.5z" />
    <glyph glyph-name="uni2252" unicode="&#x2252;" horiz-adv-x="620" 
d="M53 268v62h514v-62h-514zM53 419v62h514v-62h-514zM114 588q0 24 17.5 41.5t40.5 17.5q24 0 41.5 -17.5t17.5 -41.5t-17.5 -41.5t-41.5 -17.5q-23 0 -40.5 17.5t-17.5 41.5zM387 160q0 23 17.5 40.5t41.5 17.5t41 -17.5t17 -40.5q0 -25 -17 -42t-41 -17t-41.5 17
t-17.5 42z" />
    <glyph glyph-name="notequal" unicode="&#x2260;" horiz-adv-x="560" 
d="M531 197h-291q-10 -17 -40 -64t-35 -55h-80l74 119h-130v71h176q19 28 69 106h-245v74h291l74 117h81l-76 -117h132v-74h-178q-8 -12 -33 -52t-35 -54h246v-71z" />
    <glyph glyph-name="equivalence" unicode="&#x2261;" horiz-adv-x="620" 
d="M567 199h-514v62h514v-62zM567 488h-514v62h514v-62zM567 344h-514v63h514v-63z" />
    <glyph glyph-name="lessequal" unicode="&#x2264;" horiz-adv-x="587" 
d="M529 163l-472 190v69q35 14 207.5 82.5t264.5 106.5v-77l-374 -147v-2q73 -28 210 -81t164 -63v-78zM529 60h-470v68h470v-68z" />
    <glyph glyph-name="greaterequal" unicode="&#x2265;" horiz-adv-x="587" 
d="M529 353l-472 -190v78q55 21 180.5 70t193.5 75v1l-374 147v77q92 -38 264.5 -106.5t207.5 -82.5v-69zM527 60h-470v68h470v-68z" />
    <glyph glyph-name="propersubset" unicode="&#x2282;" 
d="M728 607v-78h-386q-99 0 -144.5 -41.5t-45.5 -109.5q0 -73 46.5 -116t143.5 -43h386v-78h-382q-136 0 -206 67t-70 173q0 100 67.5 163t204.5 63h386z" />
    <glyph glyph-name="propersuperset" unicode="&#x2283;" 
d="M110 529v78h385q136 0 204 -63t68 -163q0 -106 -70 -173t-206 -67h-381v78h385q98 0 143.5 43t45.5 116q0 68 -45.5 109.5t-143.5 41.5h-385z" />
    <glyph glyph-name="reflexsubset" unicode="&#x2286;" 
d="M728 627v-77h-386q-99 0 -144.5 -38.5t-45.5 -100.5q0 -69 46 -108t144 -39h386v-78h-382q-137 0 -206.5 63t-69.5 165q0 95 67.5 154t204.5 59h386zM726 107v-77h-622v77h622z" />
    <glyph glyph-name="reflexsuperset" unicode="&#x2287;" 
d="M111 30v77h622v-77h-622zM110 550v77h385q136 0 204 -59t68 -154q0 -102 -69.5 -165t-206.5 -63h-381v78h385q189 0 189 147q0 62 -45.5 100.5t-143.5 38.5h-385z" />
    <glyph glyph-name="perpendicular" unicode="&#x22a5;" horiz-adv-x="846" 
d="M728 147v-73h-610v73h268v480h74v-480h268z" />
    <glyph glyph-name="uni2312" unicode="&#x2312;" horiz-adv-x="846" 
d="M670 618h-70q-57 104 -182 104t-184 -104h-70q80 156 252 156q171 0 254 -156z" />
    <glyph glyph-name="female" unicode="&#x2640;" horiz-adv-x="613" 
d="M272 132v122q-99 13 -165.5 87t-66.5 176q0 110 77.5 188t188.5 78q110 0 188 -78t78 -188q0 -102 -66 -176.5t-165 -86.5v-122h135v-69h-135v-132h-69v132h-136v69h136zM117 517q0 -79 55 -136.5t134 -57.5t134 57.5t55 136.5q0 80 -55 137t-134 57q-80 0 -134.5 -57
t-54.5 -137z" />
    <glyph glyph-name="male" unicode="&#x2642;" horiz-adv-x="729" 
d="M39 325q0 110 77.5 187.5t188.5 77.5q92 0 162 -55l107 107h-98v68h215v-215h-69v100l-108 -108q57 -71 57 -162q0 -110 -78 -188t-188 -78q-111 0 -188.5 78t-77.5 188zM116 325q0 -79 55 -136.5t134 -57.5t134 57.5t55 136.5q0 80 -55 137t-134 57q-80 0 -134.5 -57
t-54.5 -137z" />
    <glyph glyph-name="uni3001" unicode="&#x3001;" horiz-adv-x="681" 
d="M290 -10l-76 -71q-48 65 -89 108.5t-97 87.5l69 63q60 -45 101.5 -85.5t91.5 -102.5z" />
    <glyph glyph-name="uni3002" unicode="&#x3002;" horiz-adv-x="773" 
d="M177 -76q-59 0 -101 42.5t-42 101.5t42 101t101 42q60 0 102 -42t42 -101t-42.5 -101.5t-101.5 -42.5zM177 -12q32 0 55.5 24t23.5 56t-23.5 55.5t-55.5 23.5t-55.5 -23.5t-23.5 -55.5t23.5 -56t55.5 -24z" />
    <glyph glyph-name="uni3003" unicode="&#x3003;" horiz-adv-x="846" 
d="M245 200l78 270h113l-127 -270h-64zM422 200l79 270h113l-128 -270h-64z" />
    <glyph glyph-name="uni3008" unicode="&#x3008;" horiz-adv-x="439" 
d="M111 364l293 -372l-48 -36l-320 408l319 408l49 -36z" />
    <glyph glyph-name="uni3009" unicode="&#x3009;" horiz-adv-x="448" 
d="M87 772l321 -408l-320 -408l-49 36l293 371q-21 24 -57 72t-44 57q-36 47 -104.5 133.5t-87.5 110.5z" />
    <glyph glyph-name="uni300A" unicode="&#x300a;" horiz-adv-x="466" 
d="M87 364l235 -406l-48 -27l-251 433l251 433l48 -28zM210 364l235 -406l-49 -27l-251 433l251 433l49 -28z" />
    <glyph glyph-name="uni300B" unicode="&#x300b;" horiz-adv-x="468" 
d="M70 797l251 -433l-251 -433l-49 27l234 406q-179 307 -234 405zM191 797l251 -433l-251 -433l-49 27l235 406q-31 54 -121 208.5t-114 196.5z" />
    <glyph glyph-name="uni300C" unicode="&#x300c;" horiz-adv-x="341" 
d="M316 769v-69h-212v-349h-79v418h291z" />
    <glyph glyph-name="uni300D" unicode="&#x300d;" horiz-adv-x="347" 
d="M313 377v-418h-290v68h211v350h79z" />
    <glyph glyph-name="uni300E" unicode="&#x300e;" horiz-adv-x="368" 
d="M337 769v-135h-160v-283h-144v418h304zM123 684h160v34h-197v-317h37v283z" />
    <glyph glyph-name="uni300F" unicode="&#x300f;" horiz-adv-x="365" 
d="M328 377v-418h-304v135h160v283h144zM77 9h197v316h-36v-281h-161v-35z" />
    <glyph glyph-name="uni3010" unicode="&#x3010;" horiz-adv-x="352" 
d="M345 -41h-324v808h323q-105 -69 -167 -176.5t-62 -229.5q0 -121 62 -228t168 -174z" />
    <glyph glyph-name="uni3011" unicode="&#x3011;" horiz-adv-x="359" 
d="M335 767v-809h-325q106 68 168 175.5t62 228.5t-62 228.5t-167 176.5h324z" />
    <glyph glyph-name="uni3014" unicode="&#x3014;" horiz-adv-x="323" 
d="M102 110l193 -110l-33 -57l-229 127v586l229 128l33 -57l-193 -109v-508z" />
    <glyph glyph-name="uni3015" unicode="&#x3015;" horiz-adv-x="337" 
d="M296 656v-586l-228 -127l-33 57l192 109v509q-40 22 -94 54q-14 8 -48 27t-50 29l33 56z" />
    <glyph glyph-name="uni3131" unicode="&#x3131;" 
d="M709 135h-88v376h-457v81h545v-457z" />
    <glyph glyph-name="uni3132" unicode="&#x3132;" 
d="M461 511v81h284v-457h-87v376h-197zM432 592v-457h-87v376h-212v81h299z" />
    <glyph glyph-name="uni3133" unicode="&#x3133;" 
d="M393 135h-87v373h-185v81h272v-454zM755 125q-46 31 -84.5 77.5t-58.5 93.5q-20 -48 -58 -94t-85 -77l-52 59q67 47 109 118t42 154v133h89v-133q0 -82 42 -153.5t108 -118.5z" />
    <glyph glyph-name="uni3134" unicode="&#x3134;" 
d="M174 592h87v-377h466v-80h-553v457z" />
    <glyph glyph-name="uni3135" unicode="&#x3135;" 
d="M150 592h87v-386h176v-13q120 97 120 271v51h-114v80h315v-80h-113v-51q0 -186 134 -284l-55 -61q-85 63 -124 156q-38 -93 -129 -157l-34 39v-32h-263v467z" />
    <glyph glyph-name="uni3136" unicode="&#x3136;" 
d="M158 592h87v-386h176v-81h-263v467zM636 252q0 31 -17 52t-45 21t-46.5 -21.5t-18.5 -51.5t18.5 -51t46.5 -21t45 20.5t17 51.5zM675 528h-193v76h193v-76zM749 420h-345v75h345v-75zM717 252q0 -63 -39 -104t-104 -41q-63 0 -104 41t-41 104t41 104t104 41q65 0 104 -41
t39 -104z" />
    <glyph glyph-name="uni3137" unicode="&#x3137;" 
d="M715 133h-544v461h542v-81h-455v-300h457v-80z" />
    <glyph glyph-name="uni3138" unicode="&#x3138;" 
d="M735 133h-286v461h283v-81h-195v-300h198v-80zM423 133h-285v461h283v-81h-195v-300h197v-80z" />
    <glyph glyph-name="uni3139" unicode="&#x3139;" 
d="M727 122h-561v284h461v119h-461v79h547v-278h-459v-124h473v-80z" />
    <glyph glyph-name="uni313A" unicode="&#x313a;" 
d="M753 134h-87v383h-209v81h296v-464zM443 134h-293v270h197v114h-197v80h282v-272h-196v-113h207v-79z" />
    <glyph glyph-name="uni313B" unicode="&#x313b;" 
d="M430 133h-286v270h192v112h-192v80h278v-270h-192v-112h200v-80zM672 213v301h-122v-301h122zM760 133h-298v462h298v-462z" />
    <glyph glyph-name="uni313C" unicode="&#x313c;" 
d="M673 213v143h-125v-143h125zM760 133h-299v462h87v-159h125v159h87v-462zM425 133h-287v270h194v112h-194v80h280v-270h-193v-112h200v-80z" />
    <glyph glyph-name="uni313D" unicode="&#x313d;" 
d="M435 133h-286v270h193v112h-193v80h280v-270h-194v-112h200v-20q59 46 95 120t36 166v117h89v-117q0 -97 39 -173.5t104 -121.5l-56 -64q-91 64 -132 160q-39 -96 -131 -160l-44 50v-37z" />
    <glyph glyph-name="uni313E" unicode="&#x313e;" 
d="M429 133h-280v270h186v112h-186v80h272v-270h-186v-112h194v-80zM753 133h-292v461h287v-81h-200v-110h192v-79h-192v-111h205v-80z" />
    <glyph glyph-name="uni313F" unicode="&#x313f;" 
d="M412 133h-274v269h178v115h-178v78h261v-269h-176v-116h189v-77zM758 210v-77h-325v77h62l-13 286l78 7l11 -293h50l13 293l78 -6l-16 -287h62zM754 599v-75h-317v75h317z" />
    <glyph glyph-name="uni3140" unicode="&#x3140;" 
d="M405 594v-267h-183v-121h195v-76h-281v271h184v117h-184v76h269zM422 417v76h335v-76h-335zM726 252q0 -61 -39.5 -101t-104.5 -40q-63 0 -104 40.5t-41 100.5t41 100.5t104 40.5q65 0 104.5 -40t39.5 -101zM683 531h-192v75h192v-75zM645 252q0 30 -17.5 50.5
t-45.5 20.5t-46 -20.5t-18 -50.5t18 -50t46 -20q29 0 46 20t17 50z" />
    <glyph glyph-name="uni3141" unicode="&#x3141;" 
d="M626 213v302h-370v-302h370zM713 133h-545v463h545v-463z" />
    <glyph glyph-name="uni3142" unicode="&#x3142;" 
d="M625 213v142h-370v-142h370zM713 132h-546v472h88v-169h370v169h88v-472z" />
    <glyph glyph-name="uni3143" unicode="&#x3143;" 
d="M653 213v139h-108v-139h108zM337 213v139h-109v-139h109zM422 133h-280v470h86v-171h109v171h85v-470zM740 133h-280v470h85v-171h108v171h87v-470z" />
    <glyph glyph-name="uni3144" unicode="&#x3144;" 
d="M431 133h-289v462h87v-164h115v164h87v-409q61 47 101 120.5t40 153.5v134h89v-134q0 -85 43.5 -161t108.5 -121l-55 -59q-96 69 -142 177q-48 -109 -143 -177l-42 46v-32zM344 213v138h-115v-138h115z" />
    <glyph glyph-name="uni3145" unicode="&#x3145;" 
d="M750 193l-34 -74q-83 19 -160.5 78t-112.5 133q-36 -73 -113 -133t-162 -82l-37 73q109 32 187.5 112.5t78.5 172.5v139h90v-136q0 -95 76.5 -175t186.5 -108z" />
    <glyph glyph-name="uni3146" unicode="&#x3146;" 
d="M789 211q-28 -36 -53 -64q-39 24 -76 64t-57 82q-47 -96 -153 -178l-55 62q75 56 119.5 131.5t44.5 155.5v131h86v-125q0 -77 37.5 -144.5t106.5 -114.5zM438 256l-55 -63q-66 46 -96 100q-22 -50 -57.5 -95.5t-77.5 -73.5q-19 21 -60 62q62 44 105.5 121t43.5 154v131
h86v-127q0 -136 111 -209z" />
    <glyph glyph-name="uni3147" unicode="&#x3147;" 
d="M432 532q-80 0 -132.5 -43.5t-52.5 -120.5t52.5 -122t132.5 -45q82 0 134.5 44.5t52.5 122.5q0 77 -52.5 120.5t-134.5 43.5zM707 368q0 -111 -78.5 -177.5t-196.5 -66.5q-113 0 -194 67.5t-81 176.5q0 110 81 175.5t194 65.5t194 -65.5t81 -175.5z" />
    <glyph glyph-name="uni3148" unicode="&#x3148;" 
d="M713 526h-222v-59q0 -93 78.5 -166t187.5 -103l-44 -70q-87 27 -159.5 78.5t-106.5 116.5q-36 -66 -109 -119.5t-158 -79.5l-47 70q110 30 188.5 103t78.5 167v62h-223v77h536v-77z" />
    <glyph glyph-name="uni3149" unicode="&#x3149;" 
d="M783 199l-55 -62q-101 67 -141 158q-21 -49 -61 -97t-86 -80l-56 59q65 43 113.5 120t48.5 164v65h-96v78h301v-78h-123v-66q0 -81 43.5 -150.5t111.5 -110.5zM431 247l-62 -55q-56 45 -86 104q-44 -104 -137 -169l-53 60q64 44 107 120.5t43 156.5v62h-125v78h300v-78
h-94v-62q0 -132 107 -217z" />
    <glyph glyph-name="uni314A" unicode="&#x314a;" 
d="M589 566h-297v77h297v-77zM704 441h-216v-19q0 -87 77.5 -156t183.5 -95l-40 -75q-90 22 -160 72.5t-106 113.5q-38 -62 -111 -115.5t-159 -75.5l-39 75q106 30 183 98.5t77 154.5v22h-220v77h530v-77z" />
    <glyph glyph-name="uni314B" unicode="&#x314b;" 
d="M712 603v-477h-91v194h-463v77h463v126h-453v80h544z" />
    <glyph glyph-name="uni314C" unicode="&#x314c;" 
d="M723 212v-81h-552v465h548v-81h-460v-107h451v-81h-451v-115h464z" />
    <glyph glyph-name="uni314D" unicode="&#x314d;" 
d="M737 204v-76h-591v76h138l-25 270l84 10l24 -280h146l31 280l83 -10l-30 -270h140zM723 593v-77h-563v77h563z" />
    <glyph glyph-name="uni314E" unicode="&#x314e;" 
d="M586 561h-288v77h288v-77zM562 253q0 39 -33 61.5t-86 22.5q-54 0 -87.5 -22.5t-33.5 -61.5q0 -38 33.5 -60.5t87.5 -22.5q53 0 86 22.5t33 60.5zM733 440h-584v77h584v-77zM650 253q0 -72 -59.5 -115.5t-147.5 -43.5q-90 0 -149 43.5t-59 115.5q0 73 59 116t149 43
q89 0 148 -43t59 -116z" />
    <glyph glyph-name="uni314F" unicode="&#x314f;" 
d="M466 785v-350h194v-81h-194v-426h-86v857h86z" />
    <glyph glyph-name="uni3150" unicode="&#x3150;" 
d="M587 -72h-88v441h-120v-422h-87v828h87v-326h120v337h88v-858z" />
    <glyph glyph-name="uni3151" unicode="&#x3151;" 
d="M621 218h-192v-289h-87v859h87v-274h192v-81h-192v-134h192v-81z" />
    <glyph glyph-name="uni3152" unicode="&#x3152;" 
d="M379 442v-133h120v133h-120zM587 -72h-88v301h-120v-282h-87v828h87v-253h120v264h88v-858z" />
    <glyph glyph-name="uni3153" unicode="&#x3153;" 
d="M467 432v353h88v-857h-88v423h-196v81h196z" />
    <glyph glyph-name="uni3154" unicode="&#x3154;" 
d="M614 -69h-87v852h87v-852zM462 -39h-87v402h-166v81h166v328h87v-811z" />
    <glyph glyph-name="uni3155" unicode="&#x3155;" 
d="M464 453h-195v81h195v254h88v-859h-88v328h-195v80h195v116z" />
    <glyph glyph-name="uni3156" unicode="&#x3156;" 
d="M618 -69h-87v852h87v-852zM377 550v222h86v-811h-86v296h-166v77h166v139h-166v77h166z" />
    <glyph glyph-name="uni3157" unicode="&#x3157;" 
d="M825 149h-786v80h346v359h88v-359h352v-80z" />
    <glyph glyph-name="uni3158" unicode="&#x3158;" 
d="M843 355h-143v-422h-87v850h87v-347h143v-81zM582 271l9 -77q-148 -19 -295 -28q-173 -9 -236 -9l-8 81q42 0 229 7v274h87v-269q118 8 214 21z" />
    <glyph glyph-name="uni3159" unicode="&#x3159;" 
d="M768 -67h-87v440h-68v-411h-87v810h87v-322h68v333h87v-850zM496 275q4 -29 10 -77q-124 -18 -244 -24q-149 -7 -207 -7l-8 79q93 0 189 3v280h87v-274q98 8 173 20z" />
    <glyph glyph-name="uni315A" unicode="&#x315a;" 
d="M645 -66v849h87v-849h-87zM626 272q2 -30 8 -78q-140 -18 -272 -23l-62 -4q-124 -6 -196 -6q-2 22 -8 81q112 0 226 6v271h88v-267q120 7 216 20z" />
    <glyph glyph-name="uni315B" unicode="&#x315b;" 
d="M825 127h-776v78h213v386h87v-386h160v386h86v-386h230v-78z" />
    <glyph glyph-name="uni315C" unicode="&#x315c;" 
d="M483 -49h-87v363h-340v78h769v-78h-342v-363z" />
    <glyph glyph-name="uni315D" unicode="&#x315d;" 
d="M373 -3h-86v348q-97 -5 -200 -6l-7 78q336 2 565 33l12 -77q-136 -15 -284 -23v-353zM775 -67h-86v250h-205v78h205v522h86v-850z" />
    <glyph glyph-name="uni315E" unicode="&#x315e;" 
d="M548 257v515h87v-812h-87v219h-147v78h147zM790 -67h-88v850h88v-850zM339 -7h-87v356q-114 -8 -177 -8l-6 79q69 0 202 7q154 8 244 22l12 -76q-95 -14 -188 -19v-361z" />
    <glyph glyph-name="uni315F" unicode="&#x315f;" 
d="M436 -7h-87v354q-130 -6 -251 -9l-8 79q331 0 562 33l11 -78q-126 -13 -227 -20v-359zM782 -69h-87v852h87v-852z" />
    <glyph glyph-name="uni3160" unicode="&#x3160;" 
d="M609 -49h-86v370h-181v-370h-86v370h-217v78h786v-78h-216v-370z" />
    <glyph glyph-name="uni3161" unicode="&#x3161;" 
d="M825 138h-786v78h786v-78z" />
    <glyph glyph-name="uni3162" unicode="&#x3162;" 
d="M664 -41v809h86v-809h-86zM621 319l12 -77q-128 -18 -295 -28q-149 -6 -268 -7l-8 79q154 2 260 6q171 6 299 27z" />
    <glyph glyph-name="uni3163" unicode="&#x3163;" 
d="M399 -76v859h87v-859h-87z" />
    <glyph glyph-name="uni3380" unicode="&#x3380;" 
d="M120 -106v494q0 37 -3 151h81l5 -60h2q34 67 100 67q68 0 104.5 -65.5t36.5 -179.5q0 -125 -43 -187t-106 -62q-56 0 -83 51h-2v-209h-92zM212 359v-124q0 -21 5 -41q14 -66 61 -66q77 0 77 171q0 76 -19 122.5t-58 46.5q-22 0 -38 -19t-22 -47q-6 -20 -6 -43zM697 240
h-114l-33 -180h-83l129 665h98l116 -665h-82zM591 310h98l-23 157q-5 26 -23 159h-3q-3 -30 -12 -89.5t-11 -71.5z" />
    <glyph glyph-name="uni3381" unicode="&#x3381;" 
d="M673 240h-114l-33 -180h-82l128 665h98l117 -665h-83zM568 310h98l-23 157q-5 26 -13.5 86.5t-10.5 72.5h-2q-10 -74 -24 -161zM85 60v349q0 32 -2 76t-2 54h80l4 -57h2q39 64 112 64q57 0 88.5 -43t31.5 -126v-317h-93v306q0 103 -61 103q-21 0 -39 -18t-25 -50
q-4 -20 -4 -42v-299h-92z" />
    <glyph glyph-name="uni3382" unicode="&#x3382;" 
d="M691 240h-115q-13 -79 -32 -180h-82l128 665h97q19 -106 58 -328t60 -337h-83q-9 51 -31 180zM268 401l-47 -166l-6 -21q-3 -15 -3 -27v-5q2 -31 35 -31q25 0 48.5 27.5t37.5 59.5q13 25 19 49q26 88 38 132l79 -18l-56 -204q-7 -24 -7 -40q0 -22 19 -22h2
q-3 -9 -9.5 -30.5t-10.5 -32.5q-6 -1 -16 -1q-7 0 -11 1q-47 5 -47 63h-1q-45 -63 -104 -63q-36 0 -49 27q-14 -47 -15 -53q-26 -94 -31 -141h-82q5 59 30 147l107 367zM586 310h97q-6 43 -22 156q-2 8 -4 23q-4 24 -20 136h-3q-10 -82 -24 -160z" />
    <glyph glyph-name="uni3383" unicode="&#x3383;" 
d="M713 238h-104l-30 -178h-83l122 665h97l109 -665h-82zM617 309h90l-20 154q-12 75 -22 161h-3q-19 -135 -24 -163zM80 60v355q0 42 -4 124h73l2 -44h1q15 24 36 36.5t40 12.5q56 0 75 -51h2q26 51 74 51q49 0 66 -36t17 -110v-338h-82v318q0 50 -5.5 74t-24.5 24
q-23 0 -32 -38q-8 -30 -8 -59v-319h-79v334q0 28 -1.5 42.5t-8.5 27t-22 12.5q-23 0 -31 -41q-5 -17 -5 -56v-319h-83z" />
    <glyph glyph-name="uni3384" unicode="&#x3384;" 
d="M670 240h-114l-32 -180h-83l129 665h96l118 -665h-83zM565 310h98l-23 157q-10 49 -23 159h-3q-13 -96 -25 -161zM219 736v-417h2q8 23 22 59l72 161h91l-106 -203l111 -276h-93l-77 216l-22 -42v-174h-86v676h86z" />
    <glyph glyph-name="uni3388" unicode="&#x3388;" 
d="M278 138l10 -68q-22 -14 -64 -14q-77 0 -121.5 61.5t-44.5 179.5q0 107 49 177t131 70q36 0 53 -11l-14 -72q-32 9 -39 9q-45 0 -68.5 -50t-23.5 -123q0 -79 24 -123t69 -44q20 0 39 8zM600 371v-204q0 -68 5 -107h-79l-4 46h-2q-37 -52 -87 -52q-46 0 -77.5 37.5
t-31.5 101.5q0 84 56 127.5t131 45.5v15q0 96 -65 96q-36 0 -74 -23l-17 61q49 31 111 31q73 0 103.5 -45.5t30.5 -129.5zM513 207v99q-14 -1 -28 -4t-33 -12.5t-31 -32.5t-12 -56q0 -41 15 -60.5t33 -19.5q42 0 53 60q3 21 3 26zM674 60v676h88v-676h-88z" />
    <glyph glyph-name="uni3389" unicode="&#x3389;" 
d="M133 738v-420h1q3 9 6 21t5.5 21t5.5 17l57 162h78q-15 -38 -44 -107t-41 -97q12 -38 41 -131.5t45 -143.5h-81q-8 30 -57 214q-13 -31 -16 -40v-174h-78v678h78zM700 376v-210q0 -81 4 -106h-70q0 14 -2 44h-3q-29 -49 -71 -49q-37 0 -65 37t-28 101q0 84 48.5 127
t106.5 45v16q0 96 -53 96q-27 0 -58 -21q-2 7 -5 19l-5.5 22t-4.5 19q33 28 92 28q61 0 87.5 -43t26.5 -125zM737 60v678h78v-678h-78zM447 135l9 -68q-20 -11 -45 -11q-66 0 -103 60.5t-37 180.5q0 106 40.5 176t109.5 70q28 0 39 -9l-13 -71q-1 0 -5.5 2t-9.5 3.5t-10 1.5
q-37 0 -55 -50t-19 -125q0 -165 75 -165q14 0 24 5zM621 202v105h-2q-79 -13 -79 -106q0 -41 13 -60.5t28 -19.5q13 0 24 13.5t14 43.5q2 6 2 24z" />
    <glyph glyph-name="uni338A" unicode="&#x338a;" 
d="M116 -106v495q0 74 -4 150h82l4 -59h2q35 66 101 66q67 0 104.5 -66t37.5 -179q0 -123 -44 -185.5t-107 -62.5q-55 0 -82 51h-2v-210h-92zM208 360v-124q0 -23 3 -40q19 -67 63 -67q76 0 76 170q0 77 -19 123.5t-57 46.5q-23 0 -41 -22t-22 -51q-3 -16 -3 -36zM507 60
v665h264v-81h-171v-212h160v-78h-160v-294h-93z" />
    <glyph glyph-name="uni338B" unicode="&#x338b;" 
d="M515 60v665h265v-81h-172v-212h161v-78h-161v-294h-93zM117 60v349q0 48 -4 130h80l4 -57h2q39 64 112 64q57 0 88.5 -43t31.5 -126v-317h-93v306q0 103 -60 103q-22 0 -39.5 -17.5t-25.5 -50.5q-4 -20 -4 -42v-299h-92z" />
    <glyph glyph-name="uni338C" unicode="&#x338c;" 
d="M515 60v665h264v-81h-171v-213h160v-78h-160v-293h-93zM271 401l-47 -166q-5 -16 -6 -21q-4 -13 -4 -27v-5q3 -31 36 -31q45 0 86 87q8 16 19 49l37 130q25 -6 73 -16q-8 -28 -26.5 -97.5t-28.5 -106.5q-2 -12 -2 -13q-5 -15 -5 -29q0 -20 17 -20h4q-3 -9 -9.5 -30.5
t-10.5 -32.5q-10 -2 -16 -2q-7 0 -17 2q-35 10 -35 63h-1q-45 -63 -104 -63q-35 0 -51 27q-2 -10 -7.5 -29.5t-6.5 -23.5q-26 -104 -31 -141h-75q5 59 30 147q72 242 107 365q30 -7 74 -16z" />
    <glyph glyph-name="uni338D" unicode="&#x338d;" 
d="M760 378v-254q0 -136 -39 -182q-42 -49 -112 -49q-40 0 -81 15q11 39 17 67q32 -12 62 -12q69 0 69 114v24h-2q-7 -20 -24 -31.5t-34 -11.5q-56 0 -84 65.5t-28 168.5q0 125 36 187.5t84 62.5q33 0 58 -50h2l5 43h77q-6 -117 -6 -157zM268 401l-46 -166q-4 -8 -6 -21
q-4 -13 -4 -27v-5q2 -31 35 -31q46 0 87 87q13 30 18 49q26 88 38 132l79 -18l-48 -180q-2 -8 -5 -21.5t-4 -15.5q-6 -18 -6 -29q0 -20 17 -20h4q-14 -47 -19 -63q-6 -1 -16 -1q-8 0 -11 1q-48 5 -48 63q-45 -63 -104 -63q-35 0 -50 27q-12 -40 -15 -53q-24 -86 -31 -141
h-81q3 55 29 147l108 367zM678 215v166q0 3 -1 4q0 7 -2 17l-4 20q-3 11 -4 14t-5 12.5t-10 13t-14 3.5q-50 0 -50 -169q0 -58 8.5 -97.5t19.5 -54t22 -14.5q6 0 9.5 1t11 11.5t12.5 31.5q7 20 7 41z" />
    <glyph glyph-name="uni338E" unicode="&#x338e;" 
d="M59 60v353q0 32 -2 73t-2 53h77l3 -49h1q32 55 87 55q60 0 81 -58h1q22 34 40 45q19 13 47 13q50 0 71 -39t21 -117v-329h-85v310q0 27 -0.5 37t-3.5 30.5t-11.5 28.5t-22.5 8q-31 0 -42 -57q-4 -17 -4 -42v-315h-85v325q0 21 -0.5 29.5t-3.5 26.5t-11.5 25.5t-22.5 7.5
q-15 0 -28 -15t-16 -48q-1 -10 -1 -38v-313h-88zM781 378v-254q0 -135 -39 -182q-40 -49 -113 -49q-43 0 -81 14l18 68q30 -12 62 -12q68 0 68 113v25h-2q-8 -21 -24.5 -32.5t-34.5 -11.5q-56 0 -83.5 66t-27.5 170q0 124 36 186.5t84 62.5q34 0 59 -50h2l4 44h78
q-6 -117 -6 -158zM697 215v166q0 19 -4 35q0 1 -1.5 8t-2.5 9.5t-3 8.5t-4 9t-5.5 7t-8 5.5t-9.5 1.5q-51 0 -51 -168q0 -59 8.5 -98.5t19.5 -54t22 -14.5h5.5t6 2t7.5 6.5t7.5 13.5t7.5 22q5 15 5 41z" />
    <glyph glyph-name="uni338F" unicode="&#x338f;" 
d="M737 380v-255q0 -133 -41 -183q-45 -50 -117 -50q-47 0 -86 17q2 10 8 32.5t9 34.5q34 -14 68 -14q74 0 74 116v25h-2q-8 -22 -26 -33.5t-38 -11.5q-59 0 -89 66t-30 168q0 124 38 187t89 63q38 0 65 -53h2l5 46h77q-6 -117 -6 -155zM242 742v-422h1q15 36 27 58l83 161
h100q-33 -57 -123 -201q44 -94 132 -278h-102l-93 216q-4 -6 -25 -43v-173h-93v682h93zM653 218v135q0 23 -1 33q-4 80 -43 80q-56 0 -56 -170q0 -57 9 -96.5t20.5 -55t25.5 -15.5q17 0 29.5 20t14.5 58q1 4 1 11z" />
    <glyph glyph-name="uni3390" unicode="&#x3390;" 
d="M115 714h88v-267h163v267h87v-634h-87v287h-163v-287h-88v634zM509 80v54q98 187 125 240q14 23 22 40q20 34 26 48v2h-156v72h253v-59l-123 -235q-25 -43 -49 -89v-2h173v-71h-271z" />
    <glyph glyph-name="uni3391" unicode="&#x3391;" 
d="M321 725h87v-284h98v284h85v-665h-85v299h-98v-299h-87v665zM140 730v-413h3q3 11 6.5 30.5t6.5 29.5l48 162h78l-75 -206q30 -111 71 -273h-81l-45 213q-4 -18 -12 -37v-176h-79v670h79zM611 60v55l101 256q2 8 8 23t7 18q18 43 20 52v1h-119v73h208v-61
q-12 -31 -49 -122t-57 -142q-1 -2 -10 -21q-16 -42 -21 -58v-2h135v-72h-223z" />
    <glyph glyph-name="uni3392" unicode="&#x3392;" 
d="M305 60q-1 38 -3 80.5t-5 94.5t-4 80q-4 95 -4 214h-3q-11 -140 -20 -200l-41 -261h-45q-22 119 -42 253q-13 73 -31 208h-4v-27q0 -62 -4 -190l-9 -252h-65q28 436 40 665h64l39 -266q2 -8 2 -12q23 -129 34 -217h3q4 44 14 119t14 110q21 167 32 266h69l36 -665h-67z
M395 725h73v-289h74v289h72v-665h-72v303h-74v-303h-73v665zM648 60v54l80 263q4 18 12 40l13 47v5h-87v70h165v-62q-44 -133 -81 -256q-21 -53 -26 -90v-2h102v-69h-178z" />
    <glyph glyph-name="uni3393" unicode="&#x3393;" 
d="M331 725h85v-284h97v284h83v-665h-83v299h-97v-299h-85v665zM291 412v-343q-32 -16 -77 -16q-69 0 -114 50q-75 82 -75 267v11q1 80 15.5 143.5t36 100.5t50 61t53 32.5t48.5 8.5q36 0 58 -13l-16 -77q-10 10 -36 10q-20 0 -39.5 -12t-38.5 -39.5t-30.5 -82.5t-11.5 -131
q0 -74 9.5 -127t24.5 -79.5t30 -38t30 -11.5l5 2v210h-50v74h128zM615 60v55l101 256q2 7 7.5 20.5t7.5 20.5q18 38 21 52v1h-119v73h207v-61q-12 -29 -33 -82.5t-38.5 -97.5t-33.5 -84q-2 -4 -5.5 -11.5t-4.5 -9.5q-6 -12 -22 -58v-2h135v-72h-223z" />
    <glyph glyph-name="uni3394" unicode="&#x3394;" 
d="M303 725h87v-284h98v284h85v-665h-85v299h-98v-299h-87v665zM115 60v581h-78v83h241v-83h-78v-581h-85zM596 60v55q68 170 101 256l16 41q18 43 20 52v1h-119v73h208v-61q-67 -165 -106 -264l-10 -21q-9 -20 -22 -58v-2h136v-72h-224z" />
    <glyph glyph-name="uni3395" unicode="&#x3395;" 
d="M697 182l58 -32q-26 -57 -56 -83t-69 -26h-5q-68 3 -92 76q-25 -22 -57 -40q-3 5 -16.5 26.5t-21.5 32.5q61 42 81 60q-2 31 -2 95q0 133 22 230q46 203 156 203q102 0 102 -149q0 -88 -56 -209t-141 -203q5 -46 32 -49h3q16 0 32.5 19.5t29.5 48.5zM275 396l-50 -161
q-5 -16 -6 -21q-6 -24 -6 -32q2 -30 34 -30q44 0 90 89q7 15 21 50l41 128q14 -4 40 -12t37 -11l-61 -199q-9 -28 -9 -43q0 -19 17 -19h4q-1 -3 -19 -63q-5 -1 -13 -1q-61 0 -61 60v4q-48 -63 -107 -63q-37 0 -49 27q-13 -36 -17 -53q-29 -94 -37 -141h-82q9 63 36 147
q110 337 120 367q15 -4 41 -12t36 -11zM596 269q51 64 84 147.5t33 147.5q0 74 -25 74q-17 0 -35 -34.5t-30 -88.5q-23 -104 -27 -246z" />
    <glyph glyph-name="uni3396" unicode="&#x3396;" 
d="M62 60v353q0 23 -5 126h77l3 -49h2q31 54 86 54q60 0 81 -57h2q19 32 40 44q18 13 47 13q49 0 70.5 -39t21.5 -116v-329h-87v332q0 25 -1.5 40t-10 28t-24.5 13q-30 0 -43 -56q-3 -19 -3 -43v-314h-86v338q0 22 -1.5 35.5t-10.5 26.5t-26 13q-14 0 -27 -14.5t-17 -47.5
q-1 -10 -1 -38v-313h-87zM750 182q30 -18 56 -32q-25 -57 -54.5 -83t-67.5 -26h-4q-67 3 -90 76q-29 -25 -55 -40l-37 59q60 43 78 60q-2 31 -2 95q0 127 22 230q43 203 151 203q99 0 99 -149q0 -89 -54 -209.5t-137 -202.5q5 -46 30 -50h3q32 0 62 69zM651 269
q49 64 81 147.5t32 147.5q0 74 -23 74q-16 0 -33.5 -34.5t-28.5 -88.5q-24 -102 -28 -246z" />
    <glyph glyph-name="uni3397" unicode="&#x3397;" 
d="M324 711h87v-534q0 -5 0.5 -14.5t0.5 -14.5l3 -88h-75l-6 55h-3q-11 -26 -36.5 -44t-58.5 -18q-63 0 -99 63t-36 171q0 114 40.5 175.5t99.5 61.5q56 0 81 -52h2v239zM692 182q38 -22 57 -32q-27 -58 -56.5 -83.5t-69.5 -25.5h-4q-69 3 -93 76q-22 -21 -56 -40
q-2 3 -16 25.5t-22 33.5q60 40 81 60q-3 46 -3 95q2 136 23 230q45 203 156 203q102 0 102 -149q0 -88 -56 -209t-141 -203q7 -46 31 -50h3q16 0 33.5 20t30.5 49zM324 221v121q0 20 -2 29q-2 32 -19 55t-41 23q-38 0 -56 -46t-18 -117q0 -73 18.5 -117t52.5 -44q44 0 62 67
q3 10 3 29zM589 269q51 64 84 147.5t33 147.5q0 74 -24 74q-16 0 -34 -34.5t-30 -88.5q-24 -105 -29 -246z" />
    <glyph glyph-name="uni3398" unicode="&#x3398;" 
d="M667 188l58 -31q-50 -109 -125 -109h-5q-67 3 -92 76q-32 -26 -57 -40q-9 13 -38 60q61 40 81 59q-2 31 -2 94q0 134 22 231q46 203 156 203q102 0 102 -148q0 -90 -55.5 -210t-141.5 -203q5 -47 32 -50h2q16 0 33 19.5t30 48.5zM181 742v-422h2q15 36 27 58l84 161h100
l-124 -201q44 -94 132 -278h-101l-93 216l-27 -43v-173h-91v682h91zM566 276q50 63 83 146.5t33 148.5q0 75 -24 75q-16 0 -34.5 -34.5t-30.5 -88.5q-23 -105 -27 -247z" />
    <glyph glyph-name="uni3399" unicode="&#x3399;" 
d="M368 60v353q0 41 -4 127h77l3 -49h1q29 53 85 53q63 0 82 -56h2q18 32 40 46q19 10 46 10q52 0 72 -37.5t20 -114.5v-332h-86v310q0 68 -8 85q-9 18 -29 18q-32 0 -43 -56q-3 -15 -3 -42v-315h-85v326q0 60 -12 76q-9 12 -26 12q-14 0 -27 -15t-17 -47q-1 -10 -1 -38
v-314h-87zM248 60h-85v418h-61v61h61v28q0 91 39 133q34 41 93 41q35 0 61 -11l-15 -67q-20 5 -36 5q-56 0 -56 -101v-28h75v-61h-76v-418z" />
    <glyph glyph-name="uni339A" unicode="&#x339a;" 
d="M422 60v355q0 40 -4 124h73q0 -1 3 -44q14 24 34.5 36t38.5 12q52 0 72 -49h2q13 24 33 37q15 12 38 12q49 0 64 -35t15 -107v-341h-81v319q0 50 -5 73t-22 23q-20 0 -29 -34q-7 -26 -7 -62v-319h-79v335q0 7 -1 10q-1 24 -2.5 37.5t-8 23.5t-17.5 10q-21 0 -29 -41
q-5 -33 -5 -55v-320h-83zM86 60v353q0 31 -2 72.5t-2 53.5h73l6 -49h1q33 55 92 55q99 0 99 -154v-331h-87v321q0 9 -1 13q-1 24 -3.5 38t-12 27t-26.5 13q-15 0 -28.5 -15t-19.5 -44q-4 -17 -4 -49v-304h-85z" />
    <glyph glyph-name="uni339B" unicode="&#x339b;" 
d="M452 60v355q0 40 -4 124h73q0 -1 3 -44h1q13 24 33.5 36t38.5 12q5 0 7 -1q48 0 65 -48h2q12 24 37 43q14 6 34 6q49 0 64.5 -35t15.5 -107v-341h-82v319q0 7 0.5 22t0.5 23q0 51 -28 51q-26 0 -34 -54q-2 -10 -2 -42v-319h-79v335v6t-0.5 12.5t-0.5 16.5q0 46 -28 46
t-33 -59q-1 -9 -1 -37v-320h-83zM242 396l-51 -161l-6 -21q-5 -17 -5 -28v-4q0 -30 30 -30q23 0 46.5 27.5t40.5 60.5q4 8 21 50q6 22 20 64.5t21 64.5q13 -3 38.5 -11t37.5 -12q-35 -118 -61 -199q-9 -28 -9 -43q0 -19 17 -19h3q-3 -15 -18 -63q-5 -1 -13 -1q-61 0 -61 60
v4h-1q-45 -63 -103 -63q-31 0 -45 27q-4 -11 -17 -53q-29 -94 -37 -141h-82q8 55 36 147q51 152 121 367q13 -3 38.5 -11.5t38.5 -11.5z" />
    <glyph glyph-name="uni339C" unicode="&#x339c;" 
d="M459 60v355q0 40 -4 124h72q0 -1 3 -44h1q14 24 34.5 36t37.5 12q5 0 8 -1q48 0 65 -48h2q14 26 33 37q15 12 37 12q50 0 65 -35t15 -107v-341h-82v319q0 50 -5 73t-21 23q-20 0 -29 -34q-8 -30 -8 -62v-319h-79v335q0 81 -29 81q-20 0 -28 -41q-6 -26 -6 -55v-320h-82z
M48 60v355q0 32 -2 72t-2 52h73l2 -44h1q14 24 34.5 36t38.5 12q4 0 6 -1q48 0 66 -48h2q12 24 32 37q16 12 38 12q49 0 64 -35t15 -107v-341h-80v319q0 50 -5 73t-23 23q-19 0 -28 -34q-8 -24 -8 -62v-319h-79v345q-1 24 -2.5 37.5t-8 23.5t-18.5 10q-21 0 -29 -41
q-4 -26 -4 -55v-320h-83z" />
    <glyph glyph-name="uni339D" unicode="&#x339d;" 
d="M362 60v353q0 31 -2.5 71t-2.5 55h77l3 -49h1q34 55 89 55q63 0 84 -58h2q19 31 41 47q22 11 48 11q53 0 74.5 -39t21.5 -117v-329h-86v310v8q0 31 -1 47t-10.5 32.5t-28.5 16.5q-34 0 -47 -60q-3 -15 -3 -39v-315h-84v325v6q0 24 -1 38t-11 29.5t-30 15.5
q-15 0 -28.5 -15t-18.5 -48q-1 -10 -1 -38v-313h-86zM304 141l10 -71q-27 -17 -80 -17q-84 0 -133.5 63t-49.5 179q0 108 54 178.5t144 70.5q46 0 69 -14l-15 -74q-33 11 -53 11q-51 0 -79 -49.5t-28 -121.5q0 -78 28.5 -122t78.5 -44q29 0 54 11z" />
    <glyph glyph-name="uni339E" unicode="&#x339e;" 
d="M359 60v353q0 21 -5 126h75q2 -34 2 -49h1q33 54 89 54q62 0 81 -57h1q23 34 41 46q20 11 48 11q50 0 71 -38.5t21 -116.5v-329h-84v331q0 25 -2 40.5t-11 28.5t-25 13q-35 0 -47 -59q-2 -10 -2 -40v-314h-82v337q0 16 -1 26.5t-4.5 23.5t-12.5 19.5t-23 6.5
q-15 0 -28.5 -14.5t-17.5 -47.5q-1 -10 -1 -38v-313h-84zM164 732v-414h2q11 45 17 59l60 162h83l-90 -204q60 -184 91 -275h-86q-26 86 -61 214q-2 -6 -8 -19.5t-8 -20.5v-174h-83v672h83z" />
    <glyph glyph-name="uni339F" unicode="&#x339f;" 
d="M417 60v353q0 42 -2 126h66q2 -16 4 -46h1q10 25 34 41q11 8 26 8h7q38 0 52 -52h2q15 30 30 42q16 12 36 12q40 0 55.5 -37.5t15.5 -111.5v-335h-73v313q0 100 -26 100q-19 0 -24 -49q-2 -15 -2 -48v-316h-75v337q0 76 -20 76q-24 0 -29 -55q-1 -13 -1 -43v-315h-77z
M48 60v353q0 42 -2 126h66q2 -16 4 -46h1q23 51 57 51q47 0 62 -54h2q12 28 30 42q15 12 36 12q40 0 55 -37t15 -112v-335h-72v313q0 100 -27 100q-18 0 -23 -49q-2 -15 -2 -48v-316h-75v337q0 76 -21 76q-23 0 -28 -55q-2 -13 -2 -43v-315h-76zM854 530h-118v34q1 1 9.5 11
t13.5 15q46 60 46 84q0 11 -7 18t-19 7q-16 0 -32 -9l-6 37q20 11 48 11q12 0 19 -3q45 -8 45 -58q0 -43 -48 -89l-10 -13v-1h59v-44z" />
    <glyph glyph-name="uni33A0" unicode="&#x33a0;" 
d="M301 60v353q0 19 -5 127h77l3 -49h1q31 53 85 53q63 0 82 -56h2q18 32 41 46q19 10 46 10q51 0 71.5 -38t20.5 -114v-332h-87v310q0 68 -8 85q-10 17 -28 18q-33 0 -44 -56q-2 -10 -2 -42v-315h-86v326v8q0 18 -0.5 28t-3.5 24t-11.5 21t-22.5 7t-26.5 -14.5t-17.5 -47.5
q-1 -10 -1 -38v-314h-86zM243 135l9 -68q-20 -11 -48 -11q-70 0 -110.5 61.5t-40.5 180.5q0 106 44.5 176t118.5 70q29 0 41 -10l-14 -71q-1 0 -6 2t-10.5 3t-10.5 1q-39 0 -59 -49.5t-21 -123.5q0 -79 21 -122t60 -43q17 0 26 4zM834 530h-119v35l24 25q3 4 10.5 14.5
l10 14t8 12t7.5 12.5t5 10.5t4 11.5t1 10q0 10 -7 17t-19 7q-17 0 -31 -9l-8 37q21 12 48 12q34 0 49 -17.5t15 -43.5q0 -45 -47 -90l-10 -13v-1h59v-44z" />
    <glyph glyph-name="uni33A1" unicode="&#x33a1;" 
d="M66 60v342q0 55 -4 137h87l4 -75h3q49 85 145 85q45 0 79.5 -25t50.5 -67h1q21 39 55 61q40 31 99 31q61 0 107.5 -49t46.5 -158v-282h-99v268q0 136 -93 136q-31 0 -55 -20t-35 -50q-6 -14 -6 -42v-292h-100v282q0 56 -22 89t-65 33q-34 0 -59.5 -22.5t-36.5 -54.5
q-5 -16 -5 -41v-286h-98zM830 530h-118v35l22 25q2 3 8.5 11.5t8.5 11t7 9.5t7 10t5.5 9t4.5 9t3 8t2.5 9t0.5 8q0 10 -7 17t-19 7q-17 0 -31 -9l-8 37q21 12 48 12q34 0 49 -17.5t15 -43.5q0 -45 -47 -90l-10 -13v-1h59v-44z" />
    <glyph glyph-name="uni33A2" unicode="&#x33a2;" 
d="M323 60v353q0 42 -4 126h74l3 -49h1q31 54 88 54q62 0 81 -57h2q20 33 41 44q19 13 47 13q51 0 71.5 -38.5t20.5 -116.5v-329h-83v331q0 25 -2 40.5t-11 28.5t-26 13q-35 0 -47 -59q-2 -10 -2 -40v-314h-82v337q0 23 -1.5 36t-11 26.5t-28.5 13.5q-15 0 -28 -14.5
t-18 -47.5q-1 -10 -1 -38v-313h-84zM130 732v-414h3q12 47 16 59q11 27 31 81l30 81h82l-90 -204q16 -47 91 -275h-85q-42 142 -61 214l-17 -40v-174h-82v672h82zM850 530h-119v34q1 1 9.5 11t13.5 15q46 60 46 84q0 25 -25 25q-18 0 -32 -9l-7 37q20 11 48 11q11 0 20 -3
q44 -8 44 -58q0 -43 -48 -89q-7 -10 -9 -13v-1h59v-44z" />
    <glyph glyph-name="uni33A3" unicode="&#x33a3;" 
d="M417 60v353q0 42 -2 126h66q2 -16 4 -46h1q10 25 34 41q11 8 26 8h7q38 0 52 -52h2q15 30 30 42q16 12 36 12q40 0 55.5 -37.5t15.5 -111.5v-335h-73v313q0 100 -26 100q-19 0 -24 -49q-2 -15 -2 -48v-316h-75v337q0 76 -20 76q-24 0 -29 -55q-1 -13 -1 -43v-315h-77z
M48 60v353q0 42 -2 126h66q2 -16 4 -46h1q23 51 57 51q47 0 62 -54h2q12 28 30 42q15 12 36 12q40 0 55 -37t15 -112v-335h-72v313q0 100 -27 100q-18 0 -23 -49q-2 -15 -2 -48v-316h-75v337q0 76 -21 76q-23 0 -28 -55q-2 -13 -2 -43v-315h-76zM741 538q2 13 4 37
q21 -7 32 -7q30 0 30 24q0 28 -39 28h-5v37h3q36 0 36 22q0 20 -23 20q-18 0 -27 -8l-5 37q18 10 44 10q28 0 43.5 -14.5t15.5 -35.5q0 -30 -30 -45q35 -12 35 -53q0 -25 -19.5 -43.5t-53.5 -18.5q-25 0 -41 10z" />
    <glyph glyph-name="uni33A4" unicode="&#x33a4;" 
d="M727 538l4 37q21 -7 32 -7q29 0 29 24q0 28 -38 28h-5v37h3q36 0 36 23q0 19 -23 19q-19 0 -27 -8l-5 37q17 11 44 11q28 0 43.5 -15t15.5 -36q0 -30 -30 -45q35 -12 35 -53q0 -25 -19.5 -43.5t-53.5 -18.5q-25 0 -41 10zM301 60v353q0 19 -5 127h77l3 -49h1q31 53 85 53
q63 0 82 -56h2q18 32 41 46q19 10 46 10q51 0 71.5 -38t20.5 -114v-332h-87v310q0 68 -8 85q-10 17 -28 18q-33 0 -44 -56q-2 -10 -2 -42v-315h-86v326v8q0 18 -0.5 28t-3.5 24t-11.5 21t-22.5 7t-26.5 -14.5t-17.5 -47.5q-1 -10 -1 -38v-314h-86zM243 135l9 -68
q-20 -11 -48 -11q-70 0 -110.5 61.5t-40.5 180.5q0 106 44.5 176t118.5 70q29 0 41 -10l-14 -71q-1 0 -6 2t-10.5 3t-10.5 1q-39 0 -59 -49.5t-21 -123.5q0 -79 21 -122t60 -43q17 0 26 4z" />
    <glyph glyph-name="uni33A5" unicode="&#x33a5;" 
d="M66 60v342q0 55 -4 137h87l4 -75h3q49 85 145 85q45 0 79.5 -25t50.5 -67h1q21 39 55 61q40 31 99 31q61 0 107.5 -49t46.5 -158v-282h-99v268q0 136 -93 136q-31 0 -55 -20t-35 -50q-6 -14 -6 -42v-292h-100v282q0 56 -22 89t-65 33q-34 0 -59.5 -22.5t-36.5 -54.5
q-5 -16 -5 -41v-286h-98zM716 538l6 37q19 -7 31 -7q30 0 30 24q0 28 -39 28h-5v37h3q35 0 35 23q0 19 -22 19q-18 0 -27 -8l-4 37q15 11 43 11t43 -15t15 -36q0 -30 -29 -45q35 -12 35 -53q0 -25 -19.5 -43.5t-53.5 -18.5q-22 0 -42 10z" />
    <glyph glyph-name="uni33A6" unicode="&#x33a6;" 
d="M323 60v353q0 42 -4 126h74l3 -49h1q31 54 88 54q62 0 81 -57h2q20 33 41 44q19 13 47 13q51 0 71.5 -38.5t20.5 -116.5v-329h-83v331q0 25 -2 40.5t-11 28.5t-26 13q-35 0 -47 -59q-2 -10 -2 -40v-314h-82v337q0 23 -1.5 36t-11 26.5t-28.5 13.5q-15 0 -28 -14.5
t-18 -47.5q-1 -10 -1 -38v-313h-84zM130 732v-414h3q12 47 16 59q11 27 31 81l30 81h82l-90 -204q16 -47 91 -275h-85q-42 142 -61 214l-17 -40v-174h-82v672h82zM735 538l5 37q19 -7 32 -7q29 0 29 24q0 28 -39 28h-4v37h2q36 0 36 22q0 20 -22 20q-19 0 -28 -8
q-1 6 -2 18.5t-2 18.5q16 10 44 10q27 0 42.5 -14.5t15.5 -35.5q0 -31 -30 -45q36 -11 36 -53q0 -25 -20 -43.5t-54 -18.5q-23 0 -41 10z" />
    <glyph glyph-name="uni33A7" unicode="&#x33a7;" 
d="M66 60v356q0 39 -4 123h71q2 -28 4 -43h1q26 47 69 47q54 0 70 -48h2q17 25 32 36q13 12 36 12q46 0 61 -34.5t15 -105.5v-343h-81v322q0 93 -24 93q-17 0 -26 -29q-7 -40 -7 -66v-320h-78v338q0 5 -1 8q-1 35 -6 52t-20 17q-20 0 -27 -39q-5 -22 -5 -55v-321h-82z
M622 80q3 10 9 31t10 32q27 -18 58 -18q23 0 39 15.5t16 44.5q0 45 -49 88q-77 67 -77 136q0 59 35 97t85 38q31 0 69 -21q-4 -11 -10 -33l-9 -33q-26 17 -45 17q-23 0 -36.5 -15.5t-13.5 -37.5q0 -20 8.5 -36t34.5 -40q82 -71 82 -146q0 -72 -38.5 -107.5t-92.5 -35.5
q-20 0 -43 7t-32 17zM499 21h-58l155 709h60q-26 -118 -78 -354.5t-79 -354.5z" />
    <glyph glyph-name="uni33A8" unicode="&#x33a8;" 
d="M67 60v356q0 39 -4 123h70l2 -42h1q12 23 32 34.5t37 11.5q26 0 42.5 -10t26.5 -38h2q27 48 66 48q21 0 35.5 -7.5t22 -18t12 -30.5t5.5 -38t1 -46v-343h-80v322q0 93 -25 93q-21 0 -28 -45q-3 -22 -3 -50v-320h-78v346q-2 69 -26 69q-21 0 -29 -54q-1 -12 -1 -40v-321
h-81zM619 80l19 63q27 -18 59 -18q23 0 38.5 15.5t15.5 44.5q0 45 -49 88q-77 68 -77 136q0 59 35 97t85 38q31 0 69 -21q-4 -11 -10 -33l-9 -33q-25 17 -45 17q-23 0 -36.5 -15.5t-13.5 -37.5q0 -20 8.5 -36t35.5 -40q81 -70 81 -146q0 -72 -38 -107.5t-93 -35.5
q-20 0 -42.5 7t-32.5 17zM494 21h-60q93 421 155 709h61q-74 -328 -156 -709zM854 587h-118v34l23 26q17 22 25 33t15 25t7 26q0 11 -7.5 17.5t-19.5 6.5q-15 0 -31 -9q-1 6 -3 18.5t-4 18.5q16 12 48 12q4 0 10.5 -1t8.5 -1q45 -11 45 -59q0 -41 -47 -90l-11 -12v-2h59v-43
z" />
    <glyph glyph-name="uni33A9" unicode="&#x33a9;" 
d="M150 59v655q45 12 100 12q102 0 149 -48q47 -47 47 -139q0 -89 -43 -141q-25 -34 -64.5 -52.5t-78.5 -18.5h-22v-268h-88zM736 371v-204q0 -70 6 -107h-79l-5 46h-2q-34 -52 -85 -52q-47 0 -78 37t-31 102q0 85 55.5 128t130.5 45v15q0 96 -65 96q-38 0 -74 -23l-16 61
q44 31 110 31q72 0 102.5 -45.5t30.5 -129.5zM238 649v-248h18q48 0 75.5 34.5t27.5 96.5q0 120 -92 120q-17 0 -29 -3zM650 207v99q-15 -1 -28.5 -4t-33 -12.5t-31.5 -32.5t-12 -56q0 -41 15.5 -60.5t33.5 -19.5q41 0 53 59q3 12 3 27z" />
    <glyph glyph-name="uni33AA" unicode="&#x33aa;" 
d="M317 60v654q42 13 83 13q92 0 140 -48q44 -47 44 -137q0 -85 -41 -142q-23 -34 -59 -52t-70 -18q-8 0 -13 -2v-268h-84zM124 732v-414h2q3 9 6 21.5t5.5 21t5.5 16.5l60 162h84q-41 -95 -91 -204q12 -37 43.5 -130.5t48.5 -144.5h-87q-11 38 -31 109.5t-30 104.5
q-3 -8 -8.5 -21.5t-7.5 -18.5v-174h-84v672h84zM823 376v-210q0 -75 4 -106h-75l-4 44h-2q-29 -49 -74 -49q-40 0 -69.5 37t-29.5 101q0 84 51.5 127t113.5 45v16q0 96 -57 96q-28 0 -62 -21q-3 10 -8 30t-8 30q36 28 97 28q66 0 94.5 -42.5t28.5 -125.5zM401 650v-249h1
q1 0 2.5 0.5t3.5 0.5q42 0 66.5 34.5t24.5 96.5q0 120 -80 120q-11 0 -18 -3zM739 307q-77 -13 -86 -85q-1 -10 -1 -21q0 -41 14.5 -60.5t29.5 -19.5q30 0 40 52q3 11 3 24v110z" />
    <glyph glyph-name="uni33AB" unicode="&#x33ab;" 
d="M305 60l-13 258q-4 134 -4 213h-4q-11 -151 -19 -193q-17 -114 -41 -270h-46q-35 207 -42 256q-5 34 -15 106.5t-14 100.5h-4v-27q0 -63 -4 -189l-10 -255h-63q19 329 36 665h64q5 -33 19 -128.5t22 -148.5q29 -178 36 -230h3q5 44 14.5 120.5t13.5 109.5l33 277h68
l35 -665h-65zM480 335v-275h-70v654q33 12 55 12q83 0 123 -57q33 -41 33 -127q0 -79 -36 -141q-20 -32 -50 -49t-55 -17zM819 383v-219q0 -81 3 -104h-62l-3 42h-2q-26 -46 -57 -46q-32 0 -58.5 35.5t-26.5 102.5q0 44 15 78.5t37 53t42.5 28.5t37.5 11v18q0 94 -43 94
q-16 0 -45 -18q-13 54 -15 59q31 25 80 25q53 0 75 -39t22 -121zM480 652v-248q34 0 52 34.5t18 96.5q0 55 -17.5 86t-49.5 32q0 -1 -3 -1zM747 198v111q-64 -27 -64 -107q0 -30 7.5 -49.5t15 -26t14.5 -6.5q12 0 19.5 22.5t7.5 55.5z" />
    <glyph glyph-name="uni33AC" unicode="&#x33ac;" 
d="M318 416v-342q-41 -18 -88 -18q-78 0 -128 54q-77 87 -77 270v5q1 78 16 140t37.5 99.5t52.5 62t57.5 34t55.5 9.5q45 0 70 -15l-17 -77q-17 12 -47 12q-54 0 -95 -61.5t-41 -202.5q0 -72 10.5 -124.5t28 -79t35.5 -38.5t36 -12q12 0 15 3v205h-57v76h136zM392 60v654
q34 12 64 12q83 0 125 -56q33 -44 33 -128q0 -72 -32 -131q-20 -36 -51.5 -56.5t-59.5 -20.5h-4v-274h-75zM820 380v-215q0 -74 3 -105h-63l-3 43h-2q-28 -47 -60 -47q-34 0 -61 36t-27 102q0 82 46.5 125t91.5 45v19q0 95 -47 95q-20 0 -48 -19l-13 59q33 26 82 26
q56 0 78.5 -40t22.5 -124zM467 655v-254q11 0 19 4q57 19 57 129q0 104 -52 118q-11 3 -24 3zM746 309q-69 -23 -69 -108q0 -29 7 -49t15 -26.5t16 -6.5q13 0 22 22.5t9 53.5v114z" />
    <glyph glyph-name="uni33AD" unicode="&#x33ad;" 
d="M696 730h83v-553q0 -13 2 -53t2 -56v-10h-70q-4 30 -7 45h-5q-6 -19 -24 -34.5t-42 -15.5q-54 0 -81 64t-27 181q0 121 32.5 182.5t77.5 61.5q37 0 57 -47h2v235zM492 373v-209q0 -75 4 -106h-76l-4 45h-1q-32 -50 -77 -50q-40 0 -70 36.5t-30 100.5q0 84 52.5 127.5
t114.5 45.5v16q0 95 -57 95q-31 0 -63 -21l-16 61q12 10 40 19t59 9q66 0 95 -43t29 -126zM56 58v357q0 65 -3 121h77q2 -22 4 -62h3q12 29 34 48.5t48 19.5h14v-91h-11q-24 0 -45 -21.5t-29 -55.5q-7 -23 -7 -53q0 -4 1 -5v-258h-86zM696 208v169q0 8 -1 13q0 31 -10 53.5
t-25 22.5q-29 0 -38.5 -46t-9.5 -126q0 -170 43 -170h2q21 0 36 56q3 6 3 28zM406 200v105l-7 -1q-7 -2 -12 -3t-14 -5t-15.5 -8.5t-14 -12.5t-12.5 -18.5t-8.5 -25t-3.5 -32.5q0 -41 14 -60.5t30 -19.5q34 0 40 56q3 11 3 25z" />
    <glyph glyph-name="uni33AE" unicode="&#x33ae;" 
d="M461 716h62v-546q0 -16 1 -26q2 -66 2 -90h-50l-7 34h-4q-2 -13 -11.5 -26t-22.5 -13q-67 0 -67 247q0 83 11.5 140.5t26 79t29.5 21.5q20 0 28 -42h2v221zM334 377v-220q0 -72 3 -103h-58l-2 39h-2q-21 -44 -46 -44q-27 0 -49 35.5t-22 102.5q0 82 37.5 124t71.5 47v18
q0 94 -38 94q-18 0 -33 -15l-13 57q31 25 65 25q45 0 65.5 -39t20.5 -121zM681 73q0 2 7 25t9 35q19 -14 36 -14q15 0 26 15t11 44q0 51 -30 90q-54 72 -54 136q0 58 26.5 95.5t62.5 37.5q20 0 48 -20q-3 -14 -16 -63q-18 14 -26 14q-17 0 -25.5 -15t-8.5 -36q0 -42 24 -77
q60 -84 60 -146q0 -74 -30.5 -108t-70.5 -34q-13 0 -28 6t-21 15zM36 54v361q0 1 -0.5 3t-0.5 4q0 7 -3 109h59l4 -53h2q18 53 51 56q8 3 15 3v-89q-8 0 -14 -3q-13 -2 -26 -22t-19 -51q-2 -16 -2 -29q-1 -10 -1 -33v-256h-65zM589 14h-49q76 472 112 709h50
q-37 -237 -113 -709zM461 187v183q0 91 -14 91q-22 0 -22 -170q0 -173 21 -173q15 0 15 69zM269 191v111q-52 -24 -52 -107q0 -29 5.5 -48.5t11.5 -26t12 -6.5q23 0 23 77z" />
    <glyph glyph-name="uni33AF" unicode="&#x33af;" 
d="M461 716h62v-547q0 -16 1 -26l3 -89h-51l-7 34h-4q-2 -13 -11.5 -26t-22.5 -13q-67 0 -67 247q0 83 11.5 140t26 79t30.5 22q19 0 27 -42h2v221zM334 377v-220q0 -72 3 -103h-58l-2 39h-2q-21 -44 -46 -44q-27 0 -49 35.5t-22 102.5q0 82 37.5 124t71.5 47v18
q0 94 -38 94q-18 0 -33 -15l-13 57q31 25 65 25q45 0 65.5 -39t20.5 -121zM681 73q0 2 7 25t9 35q19 -14 36 -14q15 0 26 15t11 44q0 51 -30 90q-54 72 -54 136q0 58 26.5 95.5t62.5 37.5q20 0 48 -20q-3 -14 -16 -63q-18 14 -26 14q-17 0 -25.5 -15t-8.5 -36q0 -42 24 -77
q60 -84 60 -146q0 -74 -30.5 -108t-70.5 -34q-13 0 -28 6t-21 15zM36 54v368l-4 109h59l4 -53h2q18 53 51 56q8 3 15 3v-89q-8 0 -14 -3q-13 -2 -26 -22t-19 -51q-2 -16 -2 -29q-1 -10 -1 -33v-256h-65zM589 14h-49q76 472 112 709h50q-37 -237 -113 -709zM850 580h-119v35
l24 25q18 23 25 33t14 25t7 27q0 10 -7 16.5t-19 6.5q-18 0 -31 -8l-8 37q21 12 48 12q2 0 20 -3q44 -10 44 -58q0 -40 -47 -91q-2 -2 -10 -12v-2h59v-43zM461 188v182q0 91 -14 91q-23 0 -23 -170q0 -55 3.5 -95t8 -59t10.5 -19q15 0 15 70zM269 191v111q-51 -24 -51 -107
q0 -29 5 -48.5t11 -26t12 -6.5q23 0 23 77z" />
    <glyph glyph-name="uni33B0" unicode="&#x33b0;" 
d="M123 -106v494q0 75 -4 151h82l4 -60h2q34 67 101 67t104.5 -66t37.5 -179q0 -125 -43.5 -187t-106.5 -62q-58 0 -83 51h-2v-209h-92zM215 359v-124q0 -25 4 -40q17 -67 61 -67q77 0 77 171q0 76 -19 122.5t-58 46.5q-21 0 -39 -22t-23 -51q-3 -11 -3 -36zM494 84l21 67
q47 -26 89 -26q34 0 52.5 16.5t18.5 46.5q0 26 -15 44.5t-53 39.5q-102 57 -102 136q0 61 40.5 100.5t104.5 39.5q57 0 96 -25l-19 -69q-36 23 -75 23q-29 0 -45 -16.5t-16 -40.5q0 -23 14 -39t52 -37q104 -57 104 -146q0 -69 -43.5 -106t-115.5 -37q-68 0 -108 29z" />
    <glyph glyph-name="uni33B1" unicode="&#x33b1;" 
d="M101 60v348q0 47 -4 131h81l4 -62h2q42 70 124 70q60 0 97 -44.5t37 -133.5v-309h-94v299q0 111 -73 111q-26 0 -47 -19t-30 -52q-5 -18 -5 -43v-296h-92zM510 82l21 69q43 -26 89 -26q34 0 52.5 16.5t18.5 45.5q0 26 -15 45t-52 40q-103 55 -103 135q0 61 40.5 100.5
t105.5 39.5q54 0 96 -24l-20 -69q-36 22 -74 22q-29 0 -45.5 -16.5t-16.5 -40.5q0 -23 14 -38.5t52 -37.5q104 -56 104 -145q0 -69 -43 -106.5t-115 -37.5q-68 0 -109 28z" />
    <glyph glyph-name="uni33B2" unicode="&#x33b2;" 
d="M271 401l-47 -166l-6 -21q-3 -15 -3 -27v-5q2 -31 35 -31q45 0 86 85q16 40 19 51q26 88 38 132l79 -18l-48 -180q-6 -20 -9 -37q-6 -18 -6 -29q0 -20 17 -20h4q-13 -39 -19 -63q-6 -1 -16 -1q-8 0 -11 1q-48 5 -48 63q-45 -63 -104 -63q-36 0 -51 27l-14 -53
q-26 -94 -32 -141h-81q3 51 30 147q21 72 107 367zM509 82q3 11 10 34t10 34q47 -26 90 -26q33 0 51.5 16.5t18.5 46.5q0 26 -15 45t-53 39q-102 57 -102 136q0 61 40.5 100.5t105.5 39.5q53 0 95 -25l-19 -69q-36 23 -74 23q-29 0 -45.5 -17t-16.5 -40t14 -39t52 -37
q104 -57 104 -145q0 -69 -43.5 -106.5t-115.5 -37.5q-66 0 -107 28z" />
    <glyph glyph-name="uni33B3" unicode="&#x33b3;" 
d="M95 60v355q0 32 -2 72t-2 52h73l2 -44h1q29 49 76 49q56 0 75 -51h2q27 50 74 51q49 0 65.5 -36t16.5 -110v-338h-81v318q0 6 1 24.5t0 27.5t-3 22t-9 18.5t-18 5.5q-30 0 -39 -58q-2 -9 -2 -39v-319h-79v334q0 3 1 18t0 23t-3.5 19t-10 16.5t-19.5 5.5q-6 0 -13 -4
t-14.5 -18.5t-8.5 -36.5v-357h-83zM546 82l21 68q41 -24 80 -24q30 0 47.5 16t17.5 44q0 25 -13.5 44.5t-47.5 41.5q-95 58 -95 136q0 61 39 99.5t100 38.5q47 0 89 -23l-21 -69q-31 21 -65 21q-27 0 -42 -16t-15 -39q0 -21 12 -37t46 -38q98 -61 98 -147q0 -69 -42 -106
t-110 -37q-62 0 -99 27z" />
    <glyph glyph-name="uni33B4" unicode="&#x33b4;" 
d="M116 -106v498q0 77 -4 147h77l4 -54h2q29 61 81 61q62 0 93 -65.5t31 -180.5q0 -125 -37 -185.5t-92 -60.5q-46 0 -67 47h-2v-207h-86zM202 367v-139q0 -22 5 -42q16 -58 45 -58q61 0 61 171t-62 171q-16 0 -29.5 -20.5t-16.5 -45.5q-3 -17 -3 -37zM652 60h-96l-150 665
h100l58 -304q36 -191 43 -248h3q9 83 41 250l57 302h99z" />
    <glyph glyph-name="uni33B5" unicode="&#x33b5;" 
d="M660 60h-97l-150 665h99l59 -304q29 -144 43 -248h3q9 83 41 250l57 302h99zM104 60v349q0 7 -3 130h80l4 -57h2q39 64 118 64q58 0 91.5 -43t33.5 -126v-317h-93v306q0 103 -66 103q-23 0 -43 -18t-27 -50q-4 -13 -4 -42v-299h-93z" />
    <glyph glyph-name="uni33B6" unicode="&#x33b6;" 
d="M661 60h-97l-150 665h99l59 -305q29 -143 44 -247h3q10 93 40 249q11 57 57 303h99q-36 -155 -154 -665zM255 401l-47 -166l-6 -21q-3 -15 -3 -27v-5q2 -31 35 -31q44 0 87 87q13 30 18 49q26 88 38 132l79 -18l-57 -204q-6 -25 -6 -40q0 -22 19 -22h2q-13 -39 -19 -63
q-6 -1 -16 -1q-8 0 -11 1q-48 5 -48 63q-45 -63 -104 -63q-36 0 -51 27l-14 -53q-26 -94 -32 -141h-81q3 51 30 147q21 72 107 367z" />
    <glyph glyph-name="uni33B7" unicode="&#x33b7;" 
d="M64 60v353q0 32 -2 73t-2 53h73l4 -49h1q32 55 88 55q60 0 81 -58h2q19 32 41 44q21 14 47 14q51 0 71.5 -38.5t20.5 -117.5v-329h-83v310q0 68 -9 85q-10 18 -30 19q-34 0 -46 -60q-3 -15 -3 -39v-315h-82v325q0 58 -10 74q-10 15 -30 15q-15 0 -29 -15t-18 -48v-351
h-85zM701 60h-92l-123 665h94l44 -300q29 -194 33 -248h3q3 38 7.5 81t12 96.5t9.5 73.5l39 297h94z" />
    <glyph glyph-name="uni33B8" unicode="&#x33b8;" 
d="M228 743v-422h2q18 41 26 57l84 161h100l-123 -201l132 -278h-102l-93 216l-26 -43v-173h-92v683h92zM668 60h-92l-130 665h94l48 -302q30 -175 36 -248h3q5 64 32 251l44 299h95z" />
    <glyph glyph-name="uni33B9" unicode="&#x33b9;" 
d="M403 60l-12 263q-10 144 -7 227h-2q-17 -119 -33 -205l-57 -279h-52l-54 268q-29 130 -40 216h-4q1 -49 -6 -230l-10 -260h-72l41 665h78l54 -280q41 -207 45 -231h2q8 70 36 231l48 280h82l38 -665h-75zM706 60h-89l-114 665h92l40 -298q25 -190 29 -249h3q3 54 25 253
l31 294h92z" />
    <glyph glyph-name="uni33BA" unicode="&#x33ba;" 
d="M505 60h-76l-99 665h86l37 -295q2 -15 22 -242h3q6 84 33 242l45 295h58l47 -285q22 -129 33 -253h2l24 246l30 292h83l-93 -665h-83l-46 268q-13 81 -29 221h-2q-15 -138 -31 -223zM77 -106v499q0 78 -4 146h76l3 -49h2q24 54 64 54q110 0 110 -246q0 -125 -32.5 -184.5
t-80.5 -59.5q-39 0 -51 43h-2v-203h-85zM162 372v-149q0 -23 4 -55q5 -22 14.5 -31.5t17.5 -9.5q29 0 37 43.5t8 126.5q0 172 -47 172q-11 0 -20 -14.5t-11 -34.5q-3 -20 -3 -48z" />
    <glyph glyph-name="uni33BB" unicode="&#x33bb;" 
d="M505 60h-76l-99 665h86l37 -295q2 -15 22 -242h3q6 84 33 242l45 295h58l47 -285q22 -129 33 -253h2l24 246l30 292h83l-93 -665h-83l-46 268q-13 81 -29 221h-2q-15 -138 -31 -223zM46 80v335q0 43 -4 121h73l3 -49h2q34 56 94 56q101 0 101 -153v-310h-84v302
q0 19 -1.5 32.5t-6 28t-14.5 22t-25 7.5q-16 0 -30.5 -15.5t-20.5 -45.5q-3 -15 -3 -42v-289h-84z" />
    <glyph glyph-name="uni33BC" unicode="&#x33bc;" 
d="M557 60h-66q-3 25 -84 665h81q1 -9 27 -292q4 -40 15 -241h5q4 65 28 241q25 201 38 292h46q16 -109 40 -279q24 -165 29 -256h3q1 9 18 247q14 192 20 288h76l-73 -665h-75q-9 64 -35 235q-5 35 -12 98l-17 145h-2q-8 -73 -22 -188l-8 -57q-1 -13 -8 -63.5t-15 -105.5
t-9 -64zM221 401l-47 -166q-5 -16 -6 -21q-4 -13 -4 -27v-5q3 -31 35 -31q44 0 86 86q2 4 2 6q1 3 2.5 7t3.5 9t3 8q6 14 9 29q21 65 36 121l74 -16q-4 -14 -24.5 -89.5t-31.5 -114.5q-2 -12 -2 -13q-5 -15 -5 -29q0 -20 17 -20h4q-9 -32 -20 -63q-10 -2 -16 -2q-8 0 -16 2
q-36 10 -36 63h-1q-20 -29 -47.5 -46t-55.5 -17q-35 0 -50 27q-2 -7 -7 -25.5t-7 -27.5q-26 -94 -31 -141h-75q3 49 29 147q10 35 49 164.5t60 200.5q26 -7 72 -16z" />
    <glyph glyph-name="uni33BD" unicode="&#x33bd;" 
d="M556 60h-70q-27 221 -83 665h80q15 -141 27 -292q6 -47 16 -241h4q5 75 28 241l38 292h51q16 -109 40 -279q24 -165 29 -256h3q1 9 18 247q14 192 20 288h76l-73 -665h-77l-34 235q-2 10 -14 98q-15 135 -16 145h-1q-20 -164 -23 -188q-6 -43 -8 -57zM60 60v353
q0 25 -0.5 46t-1.5 43.5t-1 36.5h67l3 -46h1q12 27 35 41q9 8 25 8h7q38 0 53 -52h1q15 31 31 42q13 12 36 12q40 0 54.5 -37t14.5 -112v-335h-71v313q0 100 -27 100q-17 0 -24 -49q-2 -15 -2 -48v-316h-74v328q0 85 -21 85q-24 0 -29 -55q-1 -13 -1 -43v-315h-76z" />
    <glyph glyph-name="uni33BE" unicode="&#x33be;" 
d="M505 60h-76l-99 665h86q8 -57 20.5 -162.5t15.5 -132.5q9 -72 22 -242h3q7 83 34 242q20 143 45 295h58q7 -48 23 -143t24 -142q24 -153 33 -253h2l24 246l30 292h82q-34 -249 -92 -665h-83l-43 253q-2 7 -9 53q-11 77 -23 183h-2q-18 -145 -24 -184q-4 -20 -10 -58
q-22 -129 -41 -247zM149 732v-414h3q11 45 17 59q40 108 59 162h84l-90 -204q60 -184 91 -275h-86l-62 214q-2 -8 -8.5 -22.5t-7.5 -17.5v-174h-82v672h82z" />
    <glyph glyph-name="uni33BF" unicode="&#x33bf;" 
d="M560 60h-66l-83 665h80l27 -292q2 -16 16 -241h4q4 65 28 241l37 292h46l40 -279q24 -165 29 -256h3q1 10 18 247l20 288h76l-74 -665h-73l-38 254q-5 35 -26 224h-2q-18 -160 -27 -226zM321 60l-12 260q-6 103 -4 215h-4q-13 -149 -22 -195l-45 -273h-45l-44 260
q-20 103 -32 208h-4q1 -45 -6 -219l-8 -256h-64l39 665h63l44 -280q24 -130 36 -230h3q5 45 16 124.5t14 105.5l38 280h67l36 -665h-66z" />
    <glyph glyph-name="uni33C0" unicode="&#x33c0;" 
d="M712 138v-3h91v-75h-175v58q35 40 55 120t20 174q0 45 -5.5 84.5t-16.5 75t-31 56t-47 20.5q-36 0 -60.5 -36t-34 -87t-9.5 -111q0 -86 22 -171.5t54 -124.5v-58h-176v75h92v3q-86 127 -86 290q0 138 56 220.5t148 82.5q90 0 139 -83t49 -213q0 -88 -24 -167t-61 -130z
M172 733v-415h3q8 38 19 59q42 108 64 162h84l-96 -204q17 -45 49 -137.5t49 -137.5h-86l-68 215l-18 -41v-174h-83v673h83z" />
    <glyph glyph-name="uni33C1" unicode="&#x33c1;" 
d="M748 139v-3h80v-77h-157v60q27 40 42.5 121.5t15.5 174.5q-2 236 -71 236q-72 0 -72 -234q0 -83 17.5 -171t40.5 -127v-60h-156v77h78v3q-72 131 -72 294q0 138 46.5 217.5t125.5 79.5q76 0 115.5 -80t39.5 -211q0 -86 -20.5 -167t-52.5 -133zM387 60l-12 262
q-10 143 -7 227h-2q-16 -113 -33 -205l-58 -278h-53l-55 267q-29 127 -39 216h-4q0 -41 -3 -128.5t-3 -101.5l-11 -259h-73l42 665h79l55 -280q38 -193 44 -231h3q11 98 36 231l48 280h84l38 -665h-76z" />
    <glyph glyph-name="uni33C3" unicode="&#x33c3;" 
d="M113 62v652q46 13 108 13q93 0 143 -47q40 -40 40 -114q0 -50 -25 -89t-72 -59v-2q58 -16 87.5 -60.5t29.5 -107.5q0 -78 -43 -129q-53 -63 -173 -63q-65 0 -95 6zM200 654v-210h22q38 0 67 32.5t29 79.5q0 103 -89 103q-16 0 -29 -5zM200 378v-249q10 -3 26 -3
q50 0 79.5 32t29.5 90q0 60 -33 94.5t-80 35.5h-22zM681 -106v207h-2q-23 -47 -74 -47q-55 0 -88.5 64.5t-33.5 172.5q0 121 37.5 188t98.5 67q47 0 73 -56l2 -3l5 52h74q-4 -140 -4 -154v-491h-88zM681 226v142q0 21 -2 31q-4 30 -17.5 50.5t-28.5 20.5q-61 0 -61 -172
q0 -170 60 -170q31 0 46 61q3 12 3 37z" />
    <glyph glyph-name="uni33C4" unicode="&#x33c4;" 
d="M391 141l11 -71q-27 -17 -81 -17q-84 0 -133.5 63t-49.5 179q0 108 54 178.5t145 70.5q45 0 68 -14l-15 -74q-30 11 -53 11q-51 0 -78.5 -49.5t-27.5 -121.5q0 -78 28.5 -122t78.5 -44q28 0 53 11zM713 141l10 -71q-27 -17 -80 -17q-84 0 -133 63t-49 179
q0 108 53.5 178.5t143.5 70.5q44 0 70 -14l-16 -74q-30 11 -53 11q-51 0 -79 -49.5t-28 -121.5q0 -78 29 -122t79 -44q28 0 53 11z" />
    <glyph glyph-name="uni33C5" unicode="&#x33c5;" 
d="M352 142l11 -72q-32 -16 -81 -16q-84 0 -133.5 63t-49.5 179q0 108 54 178.5t144 70.5q45 0 69 -14l-15 -74q-26 11 -53 11q-51 0 -78.5 -49.5t-27.5 -121.5q0 -78 28 -122t78 -44q29 0 54 11zM633 743h91v-561q0 -16 0.5 -38t2 -48t1.5 -36h-78l-7 58h-3
q-13 -28 -39.5 -47t-60.5 -19q-66 0 -104 66.5t-38 179.5q0 120 42.5 184t104.5 64q60 0 86 -54h2v251zM633 229v127q0 21 -4 41q-4 31 -20.5 51t-40.5 20q-41 0 -59.5 -48t-18.5 -123q0 -76 19.5 -122t54.5 -46q44 0 63 63q6 18 6 37z" />
    <glyph glyph-name="uni33C6" unicode="&#x33c6;" 
d="M820 364v-245q0 -135 -33 -179q-37 -46 -103 -46q-32 0 -72 12l17 65q26 -10 54 -10q33 0 47 26t14 86v27h-2q-7 -19 -21.5 -29t-29.5 -10q-50 0 -74.5 62t-24.5 162q0 120 31 178.5t75 58.5q10 0 17 -5q21 -8 33 -40h2l5 39h69q-4 -74 -4 -152zM443 699v-392h2
q9 41 15 55l53 154h79q-65 -156 -82 -194l82 -262h-83q-43 170 -52 203q-13 -30 -14 -36v-167h-80v639h80zM204 332l7 -66q-15 -9 -46 -9q-66 0 -104 58t-38 171q0 102 42 168.5t113 66.5q25 0 38 -8l-12 -69q-17 7 -26 7q-38 0 -57 -48t-19 -119q0 -158 77 -158q15 0 25 6z
M160 21q3 12 22.5 104t28.5 141l96 464h60l-149 -709h-58zM744 209v161q0 17 -3 29q-5 50 -29 50q-44 0 -44 -160q0 -57 8 -95t17 -51t19 -13q18 0 26 30q6 21 6 49z" />
    <glyph glyph-name="uni33C8" unicode="&#x33c8;" 
d="M292 736h88v-554q0 -20 2 -69.5t2 -52.5h-74l-6 52h-4q-9 -23 -31.5 -40.5t-50.5 -17.5q-60 0 -92 65.5t-32 180.5q0 121 37.5 183.5t90.5 62.5q45 0 68 -51h2v241zM292 218v143q0 24 -1 29q-1 32 -15 56t-33 24q-63 0 -63 -172q0 -78 15.5 -124.5t44.5 -46.5q33 0 50 62
q2 8 2 29zM468 62v652q46 13 108 13q95 0 143 -47q41 -41 41 -114q0 -50 -25 -89t-71 -59v-2q57 -16 86 -60.5t29 -107.5q0 -80 -43 -129q-51 -63 -173 -63q-62 0 -95 6zM556 654v-210h22q37 0 66 32.5t29 79.5q0 103 -88 103q-17 0 -29 -5zM556 378v-249q9 -3 26 -3
q50 0 79 32t29 90q0 60 -33 94.5t-80 35.5h-21z" />
    <glyph glyph-name="uni33C9" unicode="&#x33c9;" 
d="M443 416v-338q-54 -23 -122 -23q-107 0 -167 70q-75 85 -75 254v6q1 176 76 260.5t180 84.5q64 0 97 -19q-13 -59 -17 -80q-29 16 -76 16q-71 0 -118 -62t-47 -198q0 -133 41 -193.5t104 -60.5q30 0 39 6v199h-77v78h162zM466 539h97q8 -37 27.5 -113.5t29.5 -125.5
q13 -55 18 -93h2q4 30 18 92l51 240h89l-81 -298q-44 -179 -115 -270q-17 -20 -47.5 -45t-45.5 -29q-19 43 -32 77q33 20 66 51t44 60l2 8l3 14q0 6 -4 20q-21 77 -62 210t-60 202z" />
    <glyph glyph-name="uni33CA" unicode="&#x33ca;" 
d="M178 64v675h87v-239h2q13 18 33 35q23 14 54 14q96 0 96 -165v-320h-88v315q0 96 -42 96q-39 0 -53 -63q-2 -18 -2 -35v-313h-87zM763 373v-206q0 -70 6 -107h-79l-5 45h-2q-31 -51 -80 -51q-44 0 -75 37t-31 102q0 85 54 128t124 45v15q0 95 -61 95q-35 0 -70 -22
l-16 62q42 29 106 29q69 0 99 -44t30 -128zM678 206v100q-13 -1 -25.5 -4t-30.5 -12.5t-29.5 -32.5t-11.5 -56q0 -41 14.5 -60.5t31.5 -19.5q36 0 48 59q3 21 3 26z" />
    <glyph glyph-name="uni33CF" unicode="&#x33cf;" 
d="M247 743v-422h2l110 218h100l-123 -201l132 -278h-102l-93 216l-26 -43v-173h-92v683h92zM552 621l93 34v-116h91v-67h-91v-265q0 -43 13 -59t36 -16q18 0 31 3l3 -72q-20 -8 -63 -8q-55 0 -80 29q-33 32 -33 126v262h-58v67h58v82z" />
    <glyph glyph-name="uni33D0" unicode="&#x33d0;" 
d="M97 60v682h90v-682h-90zM282 60v348q0 47 -4 131h78l4 -59h2q37 66 106 66q73 0 99 -69h2q18 33 44 51t65 18q113 0 113 -174v-312h-89v294q0 55 -11 85t-45 30q-22 0 -38 -16.5t-23 -46.5q-4 -13 -4 -40v-306h-88v310q0 99 -59 99q-20 0 -37 -17.5t-24 -49.5
q-2 -11 -2 -38v-304h-89z" />
    <glyph glyph-name="uni33D3" unicode="&#x33d3;" 
d="M183 60v686h91v-686h-91zM364 539h101l79 -180h2l79 180h95l-123 -235l124 -244h-102l-81 184h-2l-81 -184h-94l124 241z" />
    <glyph glyph-name="uni33D6" unicode="&#x33d6;" 
d="M51 60v353q0 25 -0.5 46t-1.5 43.5t-1 36.5h68l3 -46h1q12 27 33 41q11 8 26 8h6q37 0 54 -52h1q13 29 31 42q13 12 35 12q41 0 55.5 -37t14.5 -112v-335h-72v313q0 100 -27 100q-17 0 -22 -49q-3 -15 -3 -48v-316h-75v344q0 69 -20 69q-22 0 -27 -55q-2 -13 -2 -43v-315
h-77zM540 56h-1q-54 0 -89 59.5t-35 184.5q0 124 36.5 184.5t88.5 60.5q53 0 88.5 -62t35.5 -183q0 -132 -35 -188t-89 -56zM704 60v672h81v-672h-81zM541 126q12 0 17 14q29 27 29 160q0 174 -47 174q-27 0 -38 -54t-11 -118q0 -176 50 -176z" />
    <glyph glyph-name="uni33DB" unicode="&#x33db;" 
d="M161 81l20 69q37 -24 80 -24q30 0 47 16t17 44q0 48 -59 85q-97 60 -97 137q0 60 39.5 99t100.5 39q49 0 89 -23q-14 -46 -20 -69q-33 21 -65 21q-28 0 -42.5 -16t-14.5 -39q0 -22 11.5 -37.5t45.5 -37.5q99 -63 99 -147q0 -69 -42.5 -106t-110.5 -37q-65 0 -98 26z
M482 60v349q0 25 -2 73t-2 57h82l4 -74h3q13 36 40.5 58.5t58.5 22.5q14 0 19 -1v-94q-5 1 -19 1q-31 0 -55.5 -24t-32.5 -62q-4 -26 -4 -47v-259h-92z" />
    <glyph glyph-name="uni33DC" unicode="&#x33dc;" 
d="M93 82l19 80q44 -27 102 -27q50 0 78.5 28t28.5 74q0 39 -22 67.5t-68 61.5q-128 88 -128 184q0 78 52 129t136 51q57 0 100 -26l-22 -78q-33 23 -79 23q-45 0 -70 -26t-25 -61q0 -40 21 -64.5t77 -61.5q120 -80 120 -191q0 -86 -56.5 -138t-142.5 -52q-80 0 -121 27z
M429 539h98l58 -254q12 -59 23 -124h3l23 124l57 254h92l-134 -479h-85z" />
    <glyph glyph-name="uni33DD" unicode="&#x33dd;" 
d="M204 60h-76l-99 665h87l35 -295q8 -56 22 -242h3q8 93 35 242l44 295h58l47 -285q24 -153 33 -253h2l24 246l30 292h82l-92 -665h-83l-46 268q-13 81 -29 221h-2q-15 -138 -31 -223zM565 179v553h85v-238h1q28 51 69 51q45 0 70 -62t26 -175q0 -124 -31 -188.5t-81 -64.5
q-26 0 -37.5 13.5t-23.5 44.5h-5l-4 -53h-73q4 64 4 119zM650 379v-164q0 -12 2 -30q16 -57 34 -58q28 0 35.5 42.5t7.5 130.5q0 81 -9.5 125.5t-36.5 44.5q-12 0 -21 -20t-10 -39q-2 -10 -2 -32z" />
    <glyph glyph-name="uniAC00" unicode="&#xac00;" 
d="M854 379h-132v-458h-103v891h103v-348h132v-85zM488 718q-11 -417 -399 -630l-64 78q151 69 245.5 197t107.5 271h-301v84h411z" />
    <glyph glyph-name="uniAC01" unicode="&#xac01;" 
d="M853 511h-131v-225h-103v526h103v-215h131v-86zM474 755q-4 -176 -111.5 -291t-289.5 -159l-52 80q126 24 224 100t116 185h-297v85h410zM723 -82h-103v244h-484v81h587v-325z" />
    <glyph glyph-name="uniAC04" unicode="&#xac04;" 
d="M854 467h-132v-306h-103v651h103v-259h132v-86zM473 743q-3 -179 -115 -303t-287 -172l-51 82q127 27 224.5 110t116.5 197h-297v86h409zM746 -53h-591v282h103v-200h488v-82z" />
    <glyph glyph-name="uniAC07" unicode="&#xac07;" 
d="M853 519h-131v-208h-103v501h103v-207h131v-86zM474 755q-4 -176 -111 -288.5t-290 -158.5l-52 81q126 24 224 98t116 183h-297v85h410zM737 -68h-585v335h573v-84h-470v-168h482v-83z" />
    <glyph glyph-name="uniAC08" unicode="&#xac08;" 
d="M853 541h-131v-179h-103v450h103v-187h131v-84zM474 770q-3 -89 -37 -163t-91.5 -125t-125 -85.5t-147.5 -54.5l-52 84q132 23 223.5 91.5t114.5 167.5h-295v85h410zM751 -71h-602v233h470v73h-474v82h577v-232h-471v-76h500v-80z" />
    <glyph glyph-name="uniAC09" unicode="&#xac09;" 
d="M853 525h-131v-193h-103v480h103v-202h131v-85zM474 766q-3 -89 -37 -163.5t-91.5 -126.5t-125.5 -86.5t-147 -54.5l-52 83q131 24 223 94t115 170h-295v84h410zM446 285h277v-368h-103v292h-174v76zM454 22l13 -76q-108 -22 -263 -22h-93v215h192v72h-193v75h291v-216
h-191v-69q159 -2 244 21z" />
    <glyph glyph-name="uniAC0A" unicode="&#xac0a;" 
d="M853 525h-131v-194h-103v481h103v-202h131v-85zM474 766q-3 -89 -37 -163.5t-91.5 -126.5t-125.5 -86.5t-147 -54.5l-52 83q131 24 223 94t115 170h-295v84h410zM722 -77h-286v365h286v-365zM396 20l9 -79q-68 -14 -209 -17h-97v218h181v70h-182v76h282v-215h-182v-72
q113 -1 198 19zM631 -2v215h-104v-215h104z" />
    <glyph glyph-name="uniAC10" unicode="&#xac10;" 
d="M853 515h-131v-203h-103v500h103v-211h131v-86zM474 755q-4 -175 -111.5 -288.5t-289.5 -159.5l-52 81q126 24 224 98.5t116 183.5h-296v85h409zM722 -68h-570v336h570v-336zM619 13v174h-364v-174h364z" />
    <glyph glyph-name="uniAC11" unicode="&#xac11;" 
d="M853 525h-131v-195h-103v482h103v-202h131v-85zM474 761q-2 -90 -36 -165.5t-91.5 -128t-126.5 -88t-148 -54.5l-51 85q127 18 222.5 92t116.5 174h-296v85h410zM722 -68h-571v352h103v-94h365v96h103v-354zM619 15v95h-365v-95h365z" />
    <glyph glyph-name="uniAC12" unicode="&#xac12;" 
d="M440 -68h-303v346h97v-99h109v101h97v-348zM343 9v94h-109v-94h109zM853 519h-131v-187h-103v480h103v-207h131v-86zM63 761h411q-2 -90 -36 -165.5t-91.5 -128t-126.5 -88t-148 -54.5l-52 84q127 19 223 92.5t117 173.5h-297v86zM833 -8l-58 -71q-42 18 -85 64t-51 83
q-8 -40 -47.5 -84t-85.5 -67l-61 69q71 30 107.5 93t36.5 145v63h100v-63q0 -76 36 -138.5t108 -93.5z" />
    <glyph glyph-name="uniAC13" unicode="&#xac13;" 
d="M853 489h-131v-263h-103v586h103v-238h131v-85zM473 738q-2 -176 -114 -300.5t-285 -170.5l-52 82q124 24 222.5 107t117.5 197h-298v85h409zM787 -8l-50 -81q-89 17 -175.5 75t-117.5 119q-26 -63 -112.5 -120.5t-181.5 -72.5l-48 81q113 13 202 82.5t89 160.5v37h106
v-37q0 -90 88 -158t200 -86z" />
    <glyph glyph-name="uniAC14" unicode="&#xac14;" 
d="M853 526h-131v-203h-103v489h103v-201h131v-85zM474 755q-4 -174 -111.5 -288t-289.5 -160l-52 81q126 24 224 98.5t116 183.5h-296v85h409zM829 -2l-55 -74q-48 21 -96.5 67.5t-64.5 93.5q-13 -48 -62 -98.5t-103 -77.5l-58 69q79 36 125.5 103.5t46.5 152.5v43h100v-42
q0 -83 45.5 -146.5t121.5 -90.5zM381 -3q-27 14 -54 39.5t-40 52.5q-18 -53 -65.5 -100.5t-108.5 -73.5l-56 69q75 32 125 97.5t50 146.5v45h100v-41q0 -62 35 -105.5t79 -57.5z" />
    <glyph glyph-name="uniAC15" unicode="&#xac15;" 
d="M853 511h-131v-226h-103v527h103v-216h131v-85zM474 748q-3 -174 -110 -291t-290 -171l-53 83q126 27 223.5 105.5t115.5 188.5h-295v85h409zM734 99q0 -81 -80.5 -129t-222.5 -48q-141 0 -221 48t-80 129q0 82 80 129.5t221 47.5q142 0 222.5 -47.5t80.5 -129.5zM629 99
q0 45 -52.5 70t-145.5 25t-144.5 -25t-51.5 -70q0 -44 51.5 -69.5t144.5 -25.5t145.5 25.5t52.5 69.5z" />
    <glyph glyph-name="uniAC16" unicode="&#xac16;" 
d="M853 516h-131v-209h-103v505h103v-210h131v-86zM474 755q-5 -175 -112 -288.5t-289 -159.5l-52 82q126 23 224 97.5t116 183.5h-296v85h409zM148 263h589v-81h-239q7 -73 89.5 -125t189.5 -65l-49 -78q-83 8 -170 60t-114 113q-26 -59 -112.5 -110.5t-182.5 -61.5l-47 76
q107 7 189 60.5t97 130.5h-240v81z" />
    <glyph glyph-name="uniAC17" unicode="&#xac17;" 
d="M784 -17l-48 -79q-93 13 -176.5 59.5t-112.5 96.5q-25 -52 -110 -98t-180 -56l-49 77q98 5 179.5 48.5t102.5 103.5h-246v80h607v-80h-243q20 -58 99 -101t177 -51zM474 763q-3 -89 -36.5 -164t-90.5 -127.5t-125.5 -88.5t-148.5 -57l-52 81q137 30 225.5 100.5
t112.5 172.5h-295v83h410zM853 534h-131v-198h-103v476h103v-193h131v-85zM583 262h-276v81h276v-81z" />
    <glyph glyph-name="uniAC19" unicode="&#xac19;" 
d="M474 760q-14 -339 -401 -439l-52 81q56 12 109 34.5t102 55.5t83 80.5t44 101.5h-295v86h410zM853 529h-131v-193h-103v476h103v-197h131v-86zM708 76h-451v-67h489v-78h-592v360h574v-77h-471v-64h451v-74z" />
    <glyph glyph-name="uniAC1A" unicode="&#xac1a;" 
d="M853 523h-131v-200h-103v489h103v-204h131v-85zM742 195h-604v81h604v-81zM750 -65h-620v82h130l-28 136l103 14l22 -150h165l25 150l102 -15l-31 -135h132v-82zM64 757h409q-7 -175 -112.5 -286t-287.5 -158l-52 81q130 28 224 99t114 179h-295v85z" />
    <glyph glyph-name="uniAC1B" unicode="&#xac1b;" 
d="M853 531h-131v-185h-103v466h103v-196h131v-85zM474 764q-3 -89 -37 -164t-91 -128t-125.5 -89t-147.5 -56l-52 84q130 23 222.5 96t115.5 174h-295v83h410zM583 288h-270v80h270v-80zM765 171h-629v77h629v-77zM693 25q0 -53 -60 -85t-182 -32t-182 32t-60 85
q0 54 60 87.5t182 33.5q123 0 182.5 -33.5t59.5 -87.5zM587 25q0 48 -136 48t-136 -48q0 -46 136 -46t136 46z" />
    <glyph glyph-name="uniAC1C" unicode="&#xac1c;" 
d="M781 -79h-98v451h-89v-409h-97v831h97v-336h89v354h98v-891zM409 705q-3 -390 -327 -604l-66 71q131 78 206.5 195.5t84.5 253.5h-242v84h344z" />
    <glyph glyph-name="uniAC1D" unicode="&#xac1d;" 
d="M781 288h-98v222h-88v-212h-97v498h97v-201h88v217h98v-524zM416 748q-1 -319 -330 -469l-62 79q116 42 195 127t89 180h-238v83h346zM781 -80h-101v243h-504v81h605v-324z" />
    <glyph glyph-name="uniAC20" unicode="&#xac20;" 
d="M781 148h-98v319h-88v-287h-97v616h97v-243h88v259h98v-664zM417 729q-1 -162 -89.5 -280t-242.5 -188l-61 78q114 41 194.5 126t90.5 182h-238v82h346zM804 -55h-614v288h102v-206h512v-82z" />
    <glyph glyph-name="uniAC24" unicode="&#xac24;" 
d="M810 -72h-619v233h486v71h-493v83h596v-230h-487v-76h517v-81zM781 356h-98v177h-88v-171h-97v434h97v-177h88v193h98v-456zM417 761q-6 -303 -329 -434l-61 79q112 33 190 107t91 165h-238v83h347z" />
    <glyph glyph-name="uniAC2C" unicode="&#xac2c;" 
d="M781 -68h-585v330h585v-330zM781 308h-98v203h-88v-194h-97v479h97v-199h88v215h98v-504zM416 748q-1 -318 -331 -466l-62 76q115 40 195.5 124.5t90.5 182.5h-239v83h346zM679 14v168h-381v-168h381z" />
    <glyph glyph-name="uniAC2D" unicode="&#xac2d;" 
d="M781 -68h-586v353h102v-95h382v97h102v-355zM781 330h-98v190h-88v-182h-97v458h97v-191h88v207h98v-482zM417 751q-5 -319 -332 -453l-61 79q113 34 192.5 113t91.5 177h-238v84h347zM679 15v95h-382v-95h382z" />
    <glyph glyph-name="uniAC2F" unicode="&#xac2f;" 
d="M781 230h-99v272h-87v-194h-97v488h97v-208h87v224h99v-582zM819 -8l-50 -81q-89 17 -175.5 75t-117.5 119q-26 -63 -112.5 -120.5t-181.5 -72.5l-49 81q114 13 203 82.5t89 160.5v32h106v-32q0 -90 88 -158t200 -86zM416 733q-1 -164 -88 -285.5t-243 -192.5l-62 77
q112 40 193.5 130t92.5 188h-238v83h345z" />
    <glyph glyph-name="uniAC30" unicode="&#xac30;" 
d="M780 301h-98v208h-88v-198h-97v485h97v-202h88v218h98v-511zM416 747q-1 -313 -332 -462l-63 78q114 40 195.5 123.5t91.5 178.5h-238v82h346zM852 -6l-57 -75q-47 22 -95 68t-66 93q-11 -48 -60 -98.5t-103 -77.5l-59 69q80 36 126 101.5t46 149.5v38h99v-37
q0 -82 47 -143.5t122 -87.5zM402 -7q-27 14 -54 39t-40 53q-16 -53 -63.5 -100t-109.5 -75l-55 69q75 32 124.5 94.5t49.5 143.5v41h99v-36q0 -61 35.5 -102.5t80.5 -55.5z" />
    <glyph glyph-name="uniAC31" unicode="&#xac31;" 
d="M790 98q0 -80 -82 -128t-226 -48q-142 0 -224.5 48t-82.5 128q0 81 82 129.5t225 48.5q144 0 226 -48.5t82 -129.5zM781 276h-98v233h-88v-202h-97v489h97v-202h88v218h98v-536zM417 742q-1 -315 -332 -466l-62 77q115 41 195.5 125t90.5 181h-239v83h347zM684 98
q0 44 -54 69t-148 25t-147.5 -25t-53.5 -69t53.5 -69t147.5 -25t148 25t54 69z" />
    <glyph glyph-name="uniAC38" unicode="&#xac38;" 
d="M860 306v-84h-139v-301h-102v891h102v-233h139v-83h-139v-190h139zM487 718q-9 -418 -398 -630l-64 78q150 69 244.5 197t107.5 271h-300v84h410z" />
    <glyph glyph-name="uniAC39" unicode="&#xac39;" 
d="M473 755q-3 -174 -110 -288.5t-288 -159.5l-53 80q127 25 223.5 99t114.5 184h-297v85h410zM853 407h-131v-120h-103v525h103v-128h131v-83h-131v-110h131v-84zM723 -84h-103v247h-484v82h587v-329z" />
    <glyph glyph-name="uniAC3C" unicode="&#xac3c;" 
d="M853 348h-131v-182h-103v646h103v-162h131v-84h-131v-134h131v-84zM473 742q-1 -177 -112 -300t-288 -172l-53 81q130 27 226 108.5t115 196.5h-298v86h410zM752 -53h-596v282h102v-201h494v-81z" />
    <glyph glyph-name="uniAC40" unicode="&#xac40;" 
d="M752 -72h-603v231h470v69h-474v82h577v-228h-471v-73h501v-81zM474 770q-3 -89 -37 -163t-91.5 -125t-125 -85.5t-147.5 -54.5l-52 84q132 23 223.5 91.5t114.5 167.5h-295v85h410zM853 445h-131v-95h-103v462h103v-104h131v-82h-131v-100h131v-81z" />
    <glyph glyph-name="uniAC4B" unicode="&#xac4b;" 
d="M473 738q-2 -176 -114 -300.5t-285 -170.5l-52 82q124 24 222.5 107t117.5 197h-298v85h409zM853 374h-131v-148h-103v586h103v-145h131v-82h-131v-127h131v-84zM787 -8l-50 -81q-89 17 -175.5 75t-117.5 119q-26 -63 -112.5 -120.5t-181.5 -72.5l-48 81q113 13 202 83
t89 161v34h106v-34q0 -90 88.5 -158.5t199.5 -86.5z" />
    <glyph glyph-name="uniAC4D" unicode="&#xac4d;" 
d="M734 99q0 -81 -80.5 -129t-222.5 -48q-141 0 -221 48t-80 129t80 129t221 48q142 0 222.5 -48t80.5 -129zM474 748q-3 -174 -110 -291t-290 -171l-53 83q126 27 223.5 105.5t115.5 188.5h-295v85h409zM853 389h-131v-103h-103v526h103v-130h131v-84h-131v-125h131v-84z
M629 99q0 45 -52.5 70t-145.5 25t-144.5 -25t-51.5 -70q0 -44 51.5 -69.5t144.5 -25.5t145.5 25.5t52.5 69.5z" />
    <glyph glyph-name="uniAC54" unicode="&#xac54;" 
d="M781 -79h-98v330h-92v-288h-97v831h97v-208h92v226h98v-891zM409 705q-3 -390 -327 -604l-68 71q132 78 208 196t85 253h-242v84h344zM591 502v-168h92v168h-92z" />
    <glyph glyph-name="uniAC58" unicode="&#xac58;" 
d="M781 147h-98v205h-88v-172h-97v616h97v-149h88v165h98v-665zM417 729q-1 -163 -86 -279.5t-237 -185.5l-61 78q113 41 189 123.5t87 180.5h-239v83h347zM804 -55h-614v288h102v-206h512v-82zM595 563v-128h88v128h-88z" />
    <glyph glyph-name="uniAC5C" unicode="&#xac5c;" 
d="M810 -72h-619v233h486v70h-491v83h593v-229h-486v-76h517v-81zM780 354h-98v89h-87v-84h-97v437h97v-97h87v113h98v-458zM417 761q-3 -89 -28.5 -160.5t-71.5 -121t-99.5 -83.5t-123.5 -62l-61 80q113 33 188 102.5t87 160.5h-238v84h347zM595 620v-98h87v98h-87z" />
    <glyph glyph-name="uniAC70" unicode="&#xac70;" 
d="M764 -79h-102v453h-182v86h182v352h102v-891zM480 718q-5 -207 -105 -367.5t-292 -265.5l-64 78q149 69 243.5 198.5t107.5 272.5h-301v84h411z" />
    <glyph glyph-name="uniAC71" unicode="&#xac71;" 
d="M764 291h-103v209h-175v86h175v226h103v-521zM484 756q-15 -338 -396 -459l-56 83q130 29 223.5 104.5t114.5 185.5h-293v86h407zM765 -80h-103v244h-498v81h601v-325z" />
    <glyph glyph-name="uniAC74" unicode="&#xac74;" 
d="M763 166h-102v292h-175v84h175v270h102v-646zM485 743q-6 -180 -111 -299.5t-288 -175.5l-53 82q130 28 226 109.5t115 197.5h-299v86h410zM784 -56h-604v281h103v-199h501v-82z" />
    <glyph glyph-name="uniAC77" unicode="&#xac77;" 
d="M763 313h-102v177h-175v85h175v237h102v-499zM484 756q-17 -338 -398 -460l-54 85q130 29 223.5 103.5t115.5 185.5h-294v86h407zM782 -68h-599v335h587v-84h-484v-168h496v-83z" />
    <glyph glyph-name="uniAC78" unicode="&#xac78;" 
d="M763 362h-102v160h-178v85h178v205h102v-450zM487 770q-3 -89 -37 -163.5t-91 -126t-125 -86t-148 -54.5l-52 82q131 24 221.5 93t116.5 170h-295v85h410zM793 -72h-611v238h480v67h-483v82h585v-227h-479v-79h508v-81z" />
    <glyph glyph-name="uniAC7A" unicode="&#xac7a;" 
d="M764 331h-103v188h-176v86h176v207h103v-481zM487 766q-3 -88 -37 -162.5t-91 -127t-125 -88t-148 -55.5l-52 83q130 23 222 94.5t116 171.5h-295v84h410zM434 21l11 -80q-69 -14 -213 -17h-99v217h184v67h-187v77h286v-213h-184v-68q134 0 202 17zM764 -76h-289v361h289
v-361zM672 -2v213h-106v-213h106z" />
    <glyph glyph-name="uniAC80" unicode="&#xac80;" 
d="M764 313h-103v190h-176v85h176v224h103v-499zM484 756q-9 -179 -107 -290t-286 -175l-55 83q132 34 222.5 110t111.5 186h-293v86h407zM765 -68h-582v335h582v-335zM662 14v172h-375v-172h375z" />
    <glyph glyph-name="uniAC81" unicode="&#xac81;" 
d="M764 333h-103v175h-175v85h175v219h103v-479zM484 760q-9 -177 -108.5 -285.5t-284.5 -168.5l-55 82q129 30 221 103.5t113 182.5h-293v86h407zM765 -68h-582v353h104v-94h375v95h103v-354zM662 15v96h-375v-96h375z" />
    <glyph glyph-name="uniAC83" unicode="&#xac83;" 
d="M763 222h-102v262h-176v85h176v243h102v-590zM483 741q-7 -177 -111.5 -299.5t-284.5 -181.5l-55 83q131 30 228 117t112 195h-296v86h407zM810 -8l-50 -81q-89 17 -175 75t-118 119q-26 -63 -112 -120.5t-181 -72.5l-49 81q113 13 202 83t89 162v33h107v-33
q0 -90 88 -159t199 -87z" />
    <glyph glyph-name="uniAC84" unicode="&#xac84;" 
d="M763 309h-102v196h-177v85h177v222h102v-503zM483 756q-9 -176 -107.5 -285.5t-282.5 -167.5l-57 81q128 29 220.5 103t114.5 183h-295v86h407zM845 -2l-55 -74q-48 21 -96.5 67.5t-64.5 93.5q-12 -48 -61 -98.5t-103 -77.5l-59 69q79 36 125.5 102t46.5 150v43h100v-42
q0 -82 45.5 -144t121.5 -89zM397 -3q-27 14 -54 39.5t-40 52.5q-17 -53 -64.5 -100.5t-108.5 -73.5l-57 69q75 32 125 95.5t50 144.5v44h100v-39q0 -62 35 -104t79 -56z" />
    <glyph glyph-name="uniAC85" unicode="&#xac85;" 
d="M764 284h-103v201h-178v86h178v241h103v-528zM485 749q-9 -174 -112 -289.5t-284 -175.5l-56 84q130 31 223 108.5t115 187.5h-295v85h409zM771 97q0 -81 -81 -128.5t-225 -47.5q-142 0 -222 47.5t-80 128.5q0 82 80 130t222 48q144 0 225 -48t81 -130zM665 97
q0 44 -52.5 69.5t-147.5 25.5q-92 0 -144.5 -25.5t-52.5 -69.5t52.5 -69t144.5 -25q95 0 147.5 25t52.5 69z" />
    <glyph glyph-name="uniAC86" unicode="&#xac86;" 
d="M763 308h-102v191h-176v86h176v227h102v-504zM483 756q-9 -179 -107 -286t-284 -167l-56 81q128 29 220 102.5t115 183.5h-294v86h406zM181 265h590v-82h-239q6 -73 89 -125t190 -64l-49 -79q-83 8 -170 60.5t-114 112.5q-26 -59 -112.5 -110t-183.5 -61l-47 76
q106 7 189 60t98 130h-241v82z" />
    <glyph glyph-name="uniAC89" unicode="&#xac89;" 
d="M661 500h-175v85h175v227h102v-481h-102v169zM777 -68h-591v359h581v-76h-477v-66h455v-75h-455v-66h487v-76zM486 760q-2 -89 -36 -165t-90.5 -129.5t-125.5 -89.5t-148 -55l-54 82q126 20 222.5 95.5t117.5 175.5h-295v86h409z" />
    <glyph glyph-name="uniAC8A" unicode="&#xac8a;" 
d="M779 -65h-620v82h131l-29 136l102 14l23 -150h166l26 149l102 -14l-31 -135h130v-82zM661 505h-176v85h176v222h102v-491h-102v184zM772 195h-605v81h605v-81zM77 756h407q-9 -177 -108.5 -285.5t-285.5 -167.5l-54 82q128 29 220.5 102.5t113.5 182.5h-293v86z" />
    <glyph glyph-name="uniAC8B" unicode="&#xac8b;" 
d="M763 338h-102v185h-175v86h175v203h102v-474zM487 766q-4 -90 -38.5 -165t-90.5 -128t-124.5 -89t-147.5 -56l-52 82q129 23 221 97t117 175h-295v84h410zM603 291h-270v79h270v-79zM781 173h-622v78h622v-78zM713 25q0 -53 -60.5 -85.5t-181.5 -32.5q-122 0 -182.5 32.5
t-60.5 85.5q0 54 60 87t183 33t182.5 -33t59.5 -87zM605 25q0 47 -134 47q-136 0 -136 -47t136 -47q134 0 134 47z" />
    <glyph glyph-name="uniAC8C" unicode="&#xac8c;" 
d="M781 -79h-98v891h98v-891zM605 -37h-96v407h-119v84h119v340h96v-831zM406 705q-1 -202 -81.5 -349.5t-242.5 -254.5l-68 70q132 79 207.5 195.5t83.5 254.5h-240v84h341z" />
    <glyph glyph-name="uniAC90" unicode="&#xac90;" 
d="M781 151h-98v661h98v-661zM612 177h-97v282h-116v84h116v253h97v-619zM410 729q-1 -322 -318 -465l-60 77q113 41 186.5 123t83.5 182h-231v83h339zM804 -55h-614v284h102v-202h512v-82z" />
    <glyph glyph-name="uniAC94" unicode="&#xac94;" 
d="M781 360h-99v452h99v-452zM611 364h-97v158h-110v85h110v189h97v-432zM410 761q-3 -91 -28 -162.5t-70 -121.5t-97.5 -84.5t-122.5 -62.5l-61 79q111 32 184 104.5t85 163.5h-230v84h340zM810 -69h-619v231h486v71h-492v82h594v-229h-486v-73h517v-82z" />
    <glyph glyph-name="uniAC9C" unicode="&#xac9c;" 
d="M781 310h-98v502h98v-502zM611 316h-97v189h-111v85h111v206h97v-480zM410 748q-10 -334 -319 -460l-60 78q111 33 186 116t85 182h-232v84h340zM781 -68h-589v335h589v-335zM679 14v172h-385v-172h385z" />
    <glyph glyph-name="uniAC9D" unicode="&#xac9d;" 
d="M781 327h-98v485h98v-485zM611 331h-97v176h-110v85h110v204h97v-465zM410 751q-5 -321 -319 -448l-60 78q110 32 183.5 110t87.5 176h-232v84h340zM781 -68h-591v345h103v-90h386v92h102v-347zM679 15v91h-386v-91h386z" />
    <glyph glyph-name="uniAC9F" unicode="&#xac9f;" 
d="M780 228h-98v584h98v-584zM611 303h-97v178h-110v86h110v229h97v-493zM410 731q-5 -323 -315 -469l-66 79q117 44 188.5 125.5t82.5 181.5h-229v83h339zM824 -6l-52 -82q-89 16 -177.5 75.5t-116.5 118.5q-24 -60 -112.5 -118t-181.5 -74l-53 80q112 11 204.5 83
t92.5 162v27h105v-27q0 -91 90.5 -161t200.5 -84z" />
    <glyph glyph-name="uniACA0" unicode="&#xaca0;" 
d="M780 307h-98v505h98v-505zM610 313h-97v182h-110v86h110v215h97v-483zM409 744q-5 -174 -88 -281t-230 -169l-62 79q112 33 187 111t85 176h-231v84h339zM793 -84q-44 21 -91.5 70.5t-63.5 92.5q-13 -48 -57.5 -99t-98.5 -76l-67 70q79 37 125.5 104t46.5 149v42h100v-41
q0 -79 50.5 -146t119.5 -92zM409 5q-26 13 -54 40t-40 54q-17 -51 -67.5 -105.5t-104.5 -78.5l-61 72q76 36 126 101.5t50 144.5v36h99v-31q0 -59 35 -103.5t86 -63.5z" />
    <glyph glyph-name="uniACA1" unicode="&#xaca1;" 
d="M781 276h-98v536h98v-536zM611 309h-97v181h-110v84h110v222h97v-487zM410 740q-10 -333 -319 -461l-60 78q110 33 185 117t86 182h-232v84h340zM790 98q0 -80 -82.5 -128t-226.5 -48q-142 0 -224 48t-82 128q0 81 81.5 129.5t224.5 48.5q145 0 227 -48.5t82 -129.5z
M684 98q0 44 -54 69t-149 25q-93 0 -146.5 -25t-53.5 -69t53.5 -69t146.5 -25q94 0 148.5 25t54.5 69z" />
    <glyph glyph-name="uniACA8" unicode="&#xaca8;" 
d="M764 -79h-102v330h-191v83h191v150h-177v84h177v244h102v-891zM479 718q-5 -208 -104.5 -368t-291.5 -265l-64 78q149 69 243 198.5t107 272.5h-300v84h410z" />
    <glyph glyph-name="uniACA9" unicode="&#xaca9;" 
d="M484 756q-17 -340 -395 -457l-57 82q130 28 223.5 104t115.5 185h-294v86h407zM764 291h-103v102h-175v83h175v97h-163v83h163v156h103v-521zM765 -80h-103v243h-498v81h601v-324z" />
    <glyph glyph-name="uniACAA" unicode="&#xacaa;" 
d="M484 756q-17 -340 -395 -457l-57 82q130 28 223.5 104t115.5 185h-294v86h407zM764 293h-103v106h-175v82h175v95h-163v84h163v152h103v-519zM765 -80h-99v246h-194v81h293v-327zM430 -80h-100v246h-198v81h298v-327z" />
    <glyph glyph-name="uniACAC" unicode="&#xacac;" 
d="M763 166h-102v188h-175v83h175v115h-164v83h164v177h102v-646zM486 742q-7 -177 -110.5 -295.5t-288.5 -177.5l-55 81q130 28 226.5 109.5t115.5 197.5h-298v85h410zM785 -56h-602v278h103v-196h499v-82z" />
    <glyph glyph-name="uniACAF" unicode="&#xacaf;" 
d="M782 -68h-599v335h587v-84h-484v-168h496v-83zM484 756q-18 -339 -396 -458l-56 83q130 28 223.5 104t115.5 185h-294v86h407zM763 313h-102v91h-178v83h178v95h-164v84h164v146h102v-499z" />
    <glyph glyph-name="uniACB0" unicode="&#xacb0;" 
d="M793 -73h-610v235h478v73h-484v82h586v-231h-477v-77h507v-82zM487 770q-3 -88 -37 -162t-91 -126t-125 -87t-148 -55l-53 83q131 24 223 93.5t116 168.5h-295v85h410zM763 364h-102v84h-178v78h178v83h-163v79h163v124h102v-448z" />
    <glyph glyph-name="uniACB8" unicode="&#xacb8;" 
d="M765 -68h-582v335h582v-335zM484 756q-9 -177 -107 -288.5t-284 -175.5l-58 83q132 33 223 109t113 186h-294v86h407zM764 313h-103v91h-176v83h176v96h-165v84h165v145h103v-499zM662 14v172h-375v-172h375z" />
    <glyph glyph-name="uniACB9" unicode="&#xacb9;" 
d="M765 -67h-582v349h104v-94h375v96h103v-351zM484 758q-9 -177 -107.5 -285.5t-283.5 -167.5q-10 13 -29 40.5t-29 40.5q129 30 221.5 104t113.5 182h-293v86h407zM485 414v83h176v92h-164v83h164v140h103v-483h-103v85h-176zM662 15v92h-375v-92h375z" />
    <glyph glyph-name="uniACBB" unicode="&#xacbb;" 
d="M763 222h-102v153h-179v84h179v99h-164v84h164v170h102v-590zM484 741q-7 -175 -110.5 -298.5t-283.5 -182.5l-57 82q128 30 226.5 118t113.5 195h-297v86h408zM811 -8l-50 -81q-89 17 -175.5 75t-117.5 119q-26 -63 -112 -120.5t-181 -72.5l-49 81q114 13 202.5 82.5
t88.5 160.5v34h107v-34q0 -90 88 -158t199 -86z" />
    <glyph glyph-name="uniACBC" unicode="&#xacbc;" 
d="M483 756q-9 -176 -107.5 -285.5t-282.5 -167.5l-57 81q128 29 220.5 103t114.5 183h-295v86h407zM763 307h-102v98h-177v84h177v95h-165v83h165v145h102v-505zM846 -2l-55 -74q-48 21 -96.5 67.5t-64.5 93.5q-12 -48 -61 -98.5t-103 -77.5l-59 69q79 36 125.5 102
t46.5 150v41h100v-40q0 -82 45.5 -144t121.5 -89zM398 -3q-27 14 -54 39.5t-40 52.5q-17 -53 -64.5 -100t-108.5 -74l-57 69q75 32 125 95.5t50 144.5v42h100v-37q0 -62 35 -104t79 -56z" />
    <glyph glyph-name="uniACBD" unicode="&#xacbd;" 
d="M771 97q0 -81 -81 -128.5t-225 -47.5q-142 0 -222 47.5t-80 128.5q0 83 79.5 130.5t222.5 47.5q144 0 225 -48t81 -130zM485 749q-9 -174 -112 -289.5t-284 -175.5l-56 83q130 31 223 108.5t115 188.5h-295v85h409zM764 282h-103v114h-175v83h175v94h-163v83h163v156h103
v-530zM665 97q0 44 -52.5 69t-147.5 25q-92 0 -144.5 -25t-52.5 -69t52.5 -68.5t144.5 -24.5q95 0 147.5 24.5t52.5 68.5z" />
    <glyph glyph-name="uniACC1" unicode="&#xacc1;" 
d="M486 760q-5 -173 -119 -286t-281 -153l-54 83q126 19 222.5 94.5t117.5 175.5h-295v86h409zM763 338h-102v78h-175v83h175v92h-162v83h162v138h102v-474zM746 77h-456v-69h495v-77h-599v360h580v-76h-476v-64h456v-74z" />
    <glyph glyph-name="uniACC4" unicode="&#xacc4;" 
d="M608 -37h-97v307h-122v81h122v143h-100v80h100v220h97v-831zM781 -79h-98v891h98v-891zM403 705q-3 -392 -323 -604l-68 71q131 78 206 195.5t84 253.5h-237v84h338z" />
    <glyph glyph-name="uniACC8" unicode="&#xacc8;" 
d="M613 177h-97v176h-116v80h116v108h-99v80h99v175h97v-619zM410 729q-1 -322 -318 -465l-61 78q113 41 187 123.5t84 180.5h-231v83h339zM806 -55h-613v284h102v-202h511v-82zM781 151h-98v661h98v-661z" />
    <glyph glyph-name="uniACCC" unicode="&#xaccc;" 
d="M810 -72h-619v234h486v69h-493v83h595v-228h-486v-77h517v-81zM410 761q-3 -90 -28 -161t-70 -121.5t-97.5 -85.5t-122.5 -63l-61 81q112 33 184.5 103.5t84.5 162.5h-230v84h340zM612 359h-97v82h-115v79h115v83h-97v78h97v115h97v-437zM781 354h-99v458h99v-458z" />
    <glyph glyph-name="uniACD5" unicode="&#xacd5;" 
d="M781 -68h-590v345h102v-90h386v92h102v-347zM410 751q-5 -321 -319 -448l-61 80q110 32 184.5 110t87.5 174h-232v84h340zM612 322h-97v103h-115v81h115v81h-97v80h97v129h97v-474zM781 322h-98v490h98v-490zM679 15v91h-386v-91h386z" />
    <glyph glyph-name="uniACD7" unicode="&#xacd7;" 
d="M820 -8l-50 -81q-89 17 -175.5 75t-117.5 119q-26 -63 -112.5 -120.5t-181.5 -72.5l-49 81q114 13 203 82.5t89 160.5v30h106v-30q0 -90 88 -158t200 -86zM410 731q-5 -323 -315 -469l-66 79q117 44 188.5 125.5t82.5 181.5h-229v83h339zM612 299h-97v90h-113v80h113v94
h-96v81h96v152h97v-497zM780 228h-98v584h98v-584z" />
    <glyph glyph-name="uniACE0" unicode="&#xace0;" 
d="M835 51h-805v83h301v305h102v-305h402v-83zM735 727q0 -340 -39 -500l-98 15q34 152 34 402h-509v83h612z" />
    <glyph glyph-name="uniACE1" unicode="&#xace1;" 
d="M835 316h-805v82h314v174h102v-174h389v-82zM119 232h609v-313h-103v231h-506v82zM730 767q2 -203 -25 -309l-100 14q22 97 22 213h-503v82h606z" />
    <glyph glyph-name="uniACE4" unicode="&#xace4;" 
d="M835 292h-805v83h309v173h103v-173h393v-83zM735 754q4 -211 -26 -319l-99 13q22 98 22 225h-507v81h610zM739 -53h-609v261h102v-179h507v-82z" />
    <glyph glyph-name="uniACE7" unicode="&#xace7;" 
d="M737 -67h-608v316h599v-83h-497v-150h506v-83zM835 339h-805v82h309v156h103v-156h393v-82zM730 780q2 -193 -26 -304l-100 13q23 96 23 210h-503v81h606z" />
    <glyph glyph-name="uniACE8" unicode="&#xace8;" 
d="M762 -67h-637v226h503v67h-506v82h607v-223h-502v-69h535v-83zM835 375h-805v83h318v142h102v-142h385v-83zM731 780q2 -168 -20 -278l-98 10q16 66 16 185h-506v83h608z" />
    <glyph glyph-name="uniACEA" unicode="&#xacea;" 
d="M753 -74h-292v355h292v-355zM835 359h-805v83h308v150h103v-150h394v-83zM417 18l12 -76q-64 -13 -205 -16h-110v216h191v63h-192v76h287v-209h-191v-70q137 0 208 16zM730 786q3 -179 -26 -295l-98 13q24 97 21 200h-503v82h606zM662 2v204h-111v-204h111z" />
    <glyph glyph-name="uniACEC" unicode="&#xacec;" 
d="M835 357h-805v83h308v152h103v-152h394v-83zM410 19l10 -75q-64 -16 -197 -18h-116v215h198v63h-201v77h295v-213h-196v-65q131 0 207 16zM730 786q4 -183 -26 -295l-98 13q23 93 21 200h-503v82h606zM808 -6l-56 -71q-47 18 -87 64t-49 90q-11 -45 -50.5 -93t-86.5 -71
l-57 67q65 26 104.5 101.5t39.5 152.5v50h98v-50q0 -76 39 -144.5t105 -95.5z" />
    <glyph glyph-name="uniACEF" unicode="&#xacef;" 
d="M835 372h-805v83h308v143h103v-143h394v-83zM421 18l10 -76q-55 -12 -207 -16h-109v219h182v67h-185v77h280v-216h-182v-71q140 0 211 16zM730 790q2 -191 -23 -294l-100 13q22 79 20 199h-503v82h606zM766 15q0 -49 -42.5 -76t-109.5 -27q-68 0 -110.5 27t-42.5 76
t42.5 76.5t110.5 27.5q66 0 109 -27.5t43 -76.5zM801 141h-374v75h374v-75zM713 247h-199v76h199v-76zM679 15q0 17 -19 26t-46 9q-28 0 -47 -9t-19 -26q0 -34 66 -34q27 0 46 8.5t19 25.5z" />
    <glyph glyph-name="uniACF0" unicode="&#xacf0;" 
d="M728 -67h-599v322h599v-322zM835 339h-805v82h310v160h103v-160h392v-82zM730 777q4 -195 -26 -306l-99 14q24 99 22 210h-503v82h606zM626 14v161h-395v-161h395z" />
    <glyph glyph-name="uniACF1" unicode="&#xacf1;" 
d="M728 -67h-599v350h102v-96h395v97h102v-351zM835 350h-805v82h309v157h103v-157h393v-82zM730 785q5 -181 -26 -301l-99 12q22 97 22 207h-503v82h606zM626 15v93h-395v-93h395z" />
    <glyph glyph-name="uniACF3" unicode="&#xacf3;" 
d="M835 324h-805v82h312v165h103v-165h390v-82zM763 -4l-50 -85q-95 14 -179 70.5t-114 120.5q-26 -62 -115.5 -116t-185.5 -68l-50 78q115 7 206.5 77.5t91.5 154.5v32h104v-32q0 -83 88 -152t204 -80zM730 777q4 -202 -27 -320l-99 13q23 92 23 225h-503v82h606z" />
    <glyph glyph-name="uniACF5" unicode="&#xacf5;" 
d="M735 90q0 -78 -81 -123t-228 -45t-229 45.5t-82 122.5q0 78 82 123.5t229 45.5t228 -45.5t81 -123.5zM835 336h-805v81h313v159h103v-159h389v-81zM731 777q5 -175 -27 -313l-99 14q26 104 23 217h-503v82h606zM426 176q-96 0 -150.5 -22.5t-54.5 -63.5q0 -42 54.5 -64
t150.5 -22t150 22t54 64q0 41 -54.5 63.5t-149.5 22.5z" />
    <glyph glyph-name="uniACF6" unicode="&#xacf6;" 
d="M123 261h603v-81h-246q13 -71 99 -125t186 -59l-49 -82q-94 12 -181 64.5t-111 108.5q-26 -54 -112.5 -107.5t-179.5 -63.5l-50 80q103 4 188.5 59.5t99.5 124.5h-247v81zM835 339h-805v83h313v159h103v-159h389v-83zM730 777q5 -176 -26 -305l-99 13q24 99 22 210h-503
v82h606z" />
    <glyph glyph-name="uniACFC" unicode="&#xacfc;" 
d="M854 356h-125v-435h-102v891h102v-370h125v-86zM575 215l8 -80q-226 -31 -551 -33l-14 87q150 0 182 1v253h103v-249q139 6 272 21zM526 713q2 -255 -31 -390l-97 12q23 121 25 295h-356v83h459z" />
    <glyph glyph-name="uniACFD" unicode="&#xacfd;" 
d="M729 -82h-102v217h-494v82h596v-299zM857 483h-128v-221h-102v550h102v-243h128v-86zM574 407l9 -77q-216 -29 -561 -33l-15 85q118 0 182 1v167h102v-165h3q145 5 280 22zM514 757q0 -207 -25 -299l-98 15q19 85 21 200h-344v84h446z" />
    <glyph glyph-name="uniAD00" unicode="&#xad00;" 
d="M857 456h-128v-308h-102v664h102v-271h128v-85zM757 -56h-605v261h103v-179h502v-82zM574 379l9 -77q-216 -29 -561 -33l-15 85h184v187h101v-183h2q173 6 280 21zM516 747q-2 -223 -26 -315l-98 15q23 94 21 217h-344v83h447z" />
    <glyph glyph-name="uniAD04" unicode="&#xad04;" 
d="M762 -80h-625v216h490v60h-494v80h596v-214h-489v-63h522v-79zM574 446l9 -77q-224 -30 -561 -34l-15 85q117 0 181 1v153h102v-151l2 1h2q179 6 280 22zM857 510h-128v-190h-102v492h102v-217h128v-85zM514 764q0 -186 -25 -280l-98 15q21 95 21 183h-344v82h446z" />
    <glyph glyph-name="uniAD06" unicode="&#xad06;" 
d="M729 -77h-287v340h287v-340zM403 18l11 -77q-83 -14 -204 -17h-102v206h179v57h-181v77h279v-204h-178v-60q110 -2 196 18zM572 438l9 -76q-214 -30 -559 -34l-15 86q117 0 181 1v159h102v-157h4q153 5 278 21zM857 510h-128v-197h-102v499h102v-217h128v-85zM514 761
q0 -182 -25 -282l-98 16q21 90 21 182h-344v84h446zM638 -2v189h-105v-189h105z" />
    <glyph glyph-name="uniAD0C" unicode="&#xad0c;" 
d="M728 -67h-583v313h583v-313zM729 812v-238h128v-86h-128v-197h-102v521h102zM574 425l9 -77q-216 -29 -561 -33l-15 86h181v162h102v-160l2 1h2q155 5 280 21zM626 14v153h-379v-153h379zM514 764q0 -183 -24 -285l-100 16q22 86 22 188h-344v81h446z" />
    <glyph glyph-name="uniAD0D" unicode="&#xad0d;" 
d="M728 -68h-582v338h102v-89h378v91h102v-340zM729 812v-234h128v-84h-128v-180h-102v498h102zM572 439l8 -76q-214 -30 -558 -34l-15 86q117 0 181 1v154h102v-153l2 1h2q153 5 278 21zM514 767q0 -178 -24 -285l-100 16q22 91 22 188h-344v81h446zM626 15v85h-378v-85
h378z" />
    <glyph glyph-name="uniAD0F" unicode="&#xad0f;" 
d="M786 -6l-46 -79q-93 11 -178 64t-114 109q-26 -55 -113 -109t-177 -63l-47 78q107 6 197 72t90 143v44h105v-44q0 -76 88.5 -142t194.5 -73zM729 812v-267h128v-85h-128v-250h-102v602h102zM574 410l9 -77q-216 -29 -561 -33l-15 85h181v170h102v-167h2q1 1 2 1
q173 6 280 21zM514 757q0 -201 -23 -299l-101 14q22 90 22 204h-344v81h446z" />
    <glyph glyph-name="uniAD11" unicode="&#xad11;" 
d="M736 92q0 -77 -81 -121.5t-222 -44.5t-221 44.5t-80 121.5t80.5 122t220.5 45t221.5 -45t81.5 -122zM729 812v-239h128v-86h-128v-220h-102v545h102zM574 422l9 -76q-224 -30 -561 -34l-15 86q118 0 182 1v174h102v-172h3q155 5 280 21zM514 764q0 -180 -23 -295l-101 15
q22 101 22 199h-343v81h445zM433 176q-91 0 -143.5 -23t-52.5 -61t53 -61t143 -23q92 0 145 22.5t53 61.5q0 38 -53 61t-145 23z" />
    <glyph glyph-name="uniAD18" unicode="&#xad18;" 
d="M802 -79h-98v441h-85v-398h-96v830h96v-346h85v364h98v-891zM482 228l7 -78q-224 -28 -467 -30l-13 84q44 0 148 2v240h98v-236q136 4 227 18zM440 713v-72q0 -178 -25 -316l-95 13q20 105 22 294h-283v81h381z" />
    <glyph glyph-name="uniAD1C" unicode="&#xad1c;" 
d="M802 141h-98v312h-85v-284h-96v627h96v-258h85v274h98v-671zM822 -53h-646v266h102v-184h544v-82zM481 383l7 -78q-216 -29 -460 -29l-12 83q44 0 148 2v178h96v-174q129 4 221 18zM441 741q0 -190 -24 -305l-95 12q19 73 19 211h-272v82h372z" />
    <glyph glyph-name="uniAD20" unicode="&#xad20;" 
d="M835 -78h-649v214h513v60h-517v80h620v-212h-513v-63h546v-79zM802 311h-98v194h-85v-186h-96v477h96v-206h85v222h98v-501zM481 441l7 -78q-212 -28 -460 -30l-13 84q99 0 152 1v156h94v-152q135 4 220 19zM440 767q0 -169 -24 -278l-94 13q19 66 19 184h-272v81h371z
" />
    <glyph glyph-name="uniAD29" unicode="&#xad29;" 
d="M802 -67h-616v336h103v-87h410v88h103v-337zM802 308h-98v192h-85v-186h-96v482h96v-211h85v227h98v-504zM482 434l7 -77q-200 -28 -461 -30l-12 84q45 0 151 2v159h94v-155q103 2 221 17zM441 763q0 -186 -25 -282l-95 14q20 65 20 187h-272v81h372zM699 15v85h-410v-85
h410z" />
    <glyph glyph-name="uniAD2C" unicode="&#xad2c;" 
d="M802 283h-98v214h-85v-205h-96v504h96v-213h85v229h98v-529zM797 -83h-1q-45 18 -91.5 62t-63.5 86q-15 -45 -59.5 -90.5t-97.5 -69.5l-59 67q78 37 121 99.5t43 143.5v33h98v-32q0 -79 45.5 -139.5t117.5 -88.5zM481 415l7 -77q-206 -29 -460 -31l-13 84q47 0 151 2v162
h94v-158q128 4 221 18zM440 752q0 -189 -24 -291l-95 12q19 75 19 198h-272v81h372zM406 -4h-1q-27 12 -52.5 35t-37.5 47q-17 -47 -65.5 -92t-105.5 -70l-58 70q172 74 172 233v25h98v-21q0 -59 32 -99.5t84 -58.5z" />
    <glyph glyph-name="uniAD2D" unicode="&#xad2d;" 
d="M807 88q0 -77 -83.5 -120.5t-226.5 -43.5q-144 0 -227.5 43.5t-83.5 120.5q0 78 83.5 122.5t226.5 44.5q144 0 227.5 -44.5t83.5 -122.5zM801 261h-98v224h-84v-196h-97v507h97v-225h84v241h98v-551zM497 172q-94 0 -149.5 -23t-55.5 -61q0 -37 55.5 -59.5t149.5 -22.5
q93 0 148.5 22.5t55.5 59.5q0 39 -55.5 61.5t-148.5 22.5zM481 409l8 -78q-205 -27 -461 -29l-12 83q98 0 151 1v165h94v-161q139 6 220 19zM441 748q2 -181 -25 -291l-95 12q20 75 20 198h-272v81h372z" />
    <glyph glyph-name="uniAD34" unicode="&#xad34;" 
d="M775 -79h-103v891h103v-891zM619 213l8 -79q-222 -27 -583 -31l-16 85q130 0 198 1v246h99v-243q183 7 294 21zM554 713q0 -259 -29 -390l-100 11q25 140 26 296h-364v83h467z" />
    <glyph glyph-name="uniAD35" unicode="&#xad35;" 
d="M165 229h603v-310h-102v229h-501v81zM618 405l4 -79q-227 -27 -582 -31l-15 84q124 0 189 1v170h102v-166q177 5 302 21zM534 756q0 -191 -25 -299l-99 15q23 85 21 201h-335v83h438zM768 276h-102v536h102v-536z" />
    <glyph glyph-name="uniAD38" unicode="&#xad38;" 
d="M793 -55h-613v254h103v-172h510v-82zM767 152h-102v660h102v-660zM615 375l4 -79q-226 -27 -581 -31l-15 84q124 0 188 1v189h102v-185h1q198 7 301 21zM533 746q0 -210 -26 -315l-98 14q20 83 20 219h-334v82h438z" />
    <glyph glyph-name="uniAD3C" unicode="&#xad3c;" 
d="M799 -69h-625v215h490v62h-495v81h597v-215h-490v-61h523v-82zM615 459l4 -79q-215 -27 -581 -31l-15 83q125 0 189 1v161h102v-157q202 8 301 22zM533 776q-1 -183 -25 -281l-99 14q20 73 20 184h-334v83h438zM766 329h-102v483h102v-483z" />
    <glyph glyph-name="uniAD44" unicode="&#xad44;" 
d="M768 -66h-591v311h591v-311zM616 418l4 -79q-226 -27 -581 -31l-16 84q125 0 190 1v164h102v-160q196 7 301 21zM666 15v151h-386v-151h386zM534 760q0 -200 -25 -297l-99 14q21 77 21 200h-336v83h439zM767 291h-102v521h102v-521z" />
    <glyph glyph-name="uniAD45" unicode="&#xad45;" 
d="M768 -67h-590v335h103v-89h385v91h102v-337zM616 434l4 -78q-224 -28 -581 -32l-16 85q126 0 191 2v155h102v-152q187 5 300 20zM534 761q0 -185 -25 -285l-100 14q22 78 22 188h-336v83h439zM767 315h-102v497h102v-497zM666 14v85h-385v-85h385z" />
    <glyph glyph-name="uniAD47" unicode="&#xad47;" 
d="M807 -5l-46 -80q-95 11 -179.5 64.5t-111.5 108.5q-28 -56 -114 -109t-176 -62l-47 78q107 6 196.5 72t89.5 143v44h106v-44q0 -76 88.5 -142t193.5 -73zM616 406l4 -79q-226 -27 -581 -31l-15 84q123 0 187 1v167h102v-163h2q198 7 301 21zM767 202h-102v610h102v-610z
M533 756q0 -200 -24 -303l-99 15q20 85 20 205h-336v83h439z" />
    <glyph glyph-name="uniAD49" unicode="&#xad49;" 
d="M774 88q0 -78 -81 -121.5t-223 -43.5q-141 0 -221.5 43.5t-80.5 121.5t81 121.5t221 43.5q141 0 222.5 -44t81.5 -121zM616 413l4 -79q-216 -27 -582 -31l-15 83q124 0 188 1v165h102v-161h1q221 10 302 22zM534 756q0 -193 -25 -296l-99 14q21 87 21 199h-336v83h439z
M768 261h-102v551h102v-551zM470 169q-90 0 -143.5 -22t-53.5 -59q0 -38 53.5 -60.5t143.5 -22.5q92 0 145 22t53 61q0 38 -53 59.5t-145 21.5z" />
    <glyph glyph-name="uniAD50" unicode="&#xad50;" 
d="M835 49h-805v83h188v278h103v-278h111v278h103v-278h300v-83zM739 714q0 -306 -39 -479l-98 15q33 123 33 381h-512v83h616z" />
    <glyph glyph-name="uniAD54" unicode="&#xad54;" 
d="M835 294h-805v82h195v172h102v-172h117v172h102v-172h289v-82zM734 761q-2 -198 -26 -318l-99 11q20 96 23 226h-508v81h610zM743 -53h-610v268h103v-186h507v-82z" />
    <glyph glyph-name="uniAD58" unicode="&#xad58;" 
d="M766 -67h-637v225h501v69h-507v82h609v-223h-501v-70h535v-83zM835 377h-805v83h195v148h102v-148h116v148h102v-148h290v-83zM735 790q0 -177 -22 -279l-97 10q14 68 16 186h-509v83h612z" />
    <glyph glyph-name="uniAD61" unicode="&#xad61;" 
d="M731 -67h-597v348h103v-95h392v97h102v-350zM835 349h-805v82h196v150h102v-150h116v150h102v-150h289v-82zM734 785q5 -174 -27 -301l-99 11q23 88 23 208h-507v82h610zM629 15v91h-392v-91h392z" />
    <glyph glyph-name="uniAD63" unicode="&#xad63;" 
d="M835 323h-805v82h197v166h103v-166h117v167h103v-167h285v-82zM769 -4l-51 -85q-95 14 -179 70.5t-113 120.5q-26 -62 -115 -116t-185 -68l-51 78q114 7 205.5 78t91.5 155v31h105v-31q0 -83 88 -152.5t204 -80.5zM730 777q3 -213 -24 -320l-97 12q20 88 22 226h-507v82
h606z" />
    <glyph glyph-name="uniAD6C" unicode="&#xad6c;" 
d="M728 761q0 -235 -30 -380h137v-83h-353v-377h-102v377h-350v83h570q23 108 25 296h-493v84h596z" />
    <glyph glyph-name="uniAD6D" unicode="&#xad6d;" 
d="M127 229h254v161h-351v83h574q21 85 23 221h-494v83h596q0 -193 -26 -304h132v-83h-352v-161h247v-311h-102v228h-501v83z" />
    <glyph glyph-name="uniAD70" unicode="&#xad70;" 
d="M482 127h-102v224h-350v82h571q24 99 26 251h-493v83h595q-2 -234 -28 -334h134v-82h-353v-224zM743 -53h-610v280h103v-198h507v-82z" />
    <glyph glyph-name="uniAD73" unicode="&#xad73;" 
d="M729 777q0 -173 -27 -305h133v-82h-352v-136h249v-83h-497v-156h506v-83h-608v322h248v136h-351v82h573q24 94 24 222h-494v83h596z" />
    <glyph glyph-name="uniAD74" unicode="&#xad74;" 
d="M729 777q0 -174 -25 -280h131v-82h-352v-99h250v-228h-504v-73h537v-83h-637v232h504v69h-509v83h257v99h-351v82h574q23 86 23 198h-494v82h596z" />
    <glyph glyph-name="uniAD75" unicode="&#xad75;" 
d="M729 777q0 -168 -25 -278h131v-82h-353v-121h-102v121h-350v82h574q23 92 23 196h-494v82h596zM472 20l12 -73q-95 -22 -245 -22h-126v211h205v62h-207v76h303v-208h-205v-66q157 -1 263 20zM459 274h288v-353h-101v273h-187v80z" />
    <glyph glyph-name="uniAD76" unicode="&#xad76;" 
d="M729 777q0 -172 -25 -279h131v-82h-353v-120h-102v120h-350v82h573q24 91 24 197h-494v82h596zM753 -74h-293v347h293v-347zM419 16l11 -75q-65 -13 -203 -16h-114v211h192v62h-194v75h290v-207h-192v-65q135 -2 210 15zM662 1v197h-112v-197h112z" />
    <glyph glyph-name="uniAD7B" unicode="&#xad7b;" 
d="M729 777q-1 -175 -26 -280h132v-82h-353v-113h-102v113h-350v82h574q23 84 23 197h-494v83h596zM431 -57q-63 -14 -207 -18h-109v219h181v64h-184v76h279v-212h-181v-70q142 0 211 15zM766 14q0 -49 -43 -76t-109 -27q-68 0 -110.5 27t-42.5 76q0 50 42.5 77.5
t110.5 27.5q66 0 109 -28t43 -77zM801 142h-374v75h374v-75zM713 246h-199v78h199v-78zM679 14q0 35 -65 35q-66 0 -66 -35q0 -16 19 -25t47 -9q27 0 46 9t19 25z" />
    <glyph glyph-name="uniAD7C" unicode="&#xad7c;" 
d="M729 777q0 -182 -28 -311h134v-81h-352v-130h249v-323h-599v323h248v130h-351v81h573q24 96 24 228h-494v83h596zM630 14v161h-395v-161h395z" />
    <glyph glyph-name="uniAD7D" unicode="&#xad7d;" 
d="M730 -67h-599v358h102v-104h395v105h102v-359zM729 778q0 -180 -28 -312h132v-81h-351v-141h-102v141h-352v81h575q21 92 23 229h-493v83h596zM628 15v94h-395v-94h395z" />
    <glyph glyph-name="uniAD7F" unicode="&#xad7f;" 
d="M729 777q0 -179 -29 -312h135v-81h-353v-123h-102v123h-350v81h572q25 100 25 229h-494v83h596zM777 -2l-49 -82q-95 11 -179.5 59t-117.5 104q-30 -58 -117 -105t-182 -58l-52 80q116 4 208 63.5t92 136.5v39h104v-39q0 -78 87 -134t206 -64z" />
    <glyph glyph-name="uniAD81" unicode="&#xad81;" 
d="M729 777q0 -186 -28 -310h134v-82h-352v-126q124 -8 192 -53t68 -115q0 -77 -82 -123.5t-228 -46.5t-228 46.5t-82 123.5q0 70 67.5 115t190.5 53v126h-351v82h573q24 94 24 227h-494v83h596zM637 91q0 42 -54.5 65t-150.5 23q-95 0 -149.5 -23t-54.5 -65t54.5 -65
t149.5 -23q96 0 150.5 23t54.5 65z" />
    <glyph glyph-name="uniAD82" unicode="&#xad82;" 
d="M729 777q0 -171 -26 -299h132v-83h-352v-110h-102v110h-351v83h574q23 99 23 216h-494v83h596zM132 254h602v-83h-245q14 -70 98.5 -120t186.5 -55l-49 -82q-96 12 -182.5 64t-110.5 109q-26 -58 -111 -109.5t-181 -61.5l-50 80q104 5 189.5 56.5t99.5 118.5h-247v83z
" />
    <glyph glyph-name="uniAD88" unicode="&#xad88;" 
d="M353 -45h-102v365q-99 -4 -228 -4l-15 85q203 0 302 4q58 2 85 4q24 114 24 249h-317v84h421q-1 -189 -28 -327q76 5 117 11l7 -78q-107 -14 -266 -24v-369zM775 -79h-103v254h-190v81h190v556h103v-891z" />
    <glyph glyph-name="uniAD89" unicode="&#xad89;" 
d="M351 244h-103v172q-118 -5 -214 -5l-14 84q173 0 296 5q56 2 83 4q18 68 18 184h-312v81h417q0 -146 -22 -258q42 2 109 10l8 -76q-134 -17 -266 -24v-177zM775 252h-103v59h-186v73h186v428h103v-560zM775 -79h-103v202h-509v82h612v-284z" />
    <glyph glyph-name="uniAD8C" unicode="&#xad8c;" 
d="M389 198h-102v189q-128 -5 -254 -6l-14 84q173 0 296 5l81 3q20 87 20 199h-313v82h416q0 -150 -24 -275q87 8 113 12l7 -76q-89 -12 -226 -21v-196zM775 134h-103v129h-186v75h186v474h103v-678zM792 -55h-646v273h102v-191h544v-82z" />
    <glyph glyph-name="uniAD90" unicode="&#xad90;" 
d="M807 -79h-630v198h493v52h-498v77h602v-197h-495v-54h528v-76zM352 288h-103v144q-118 -5 -215 -5l-14 84q173 0 296 5q56 2 83 4q17 71 17 171h-310v81h414q0 -126 -22 -246q59 4 111 12l7 -77q-132 -17 -264 -24v-149zM775 287h-104v49h-185v73h185v403h104v-525z" />
    <glyph glyph-name="uniAD9C" unicode="&#xad9c;" 
d="M350 261h-103v159q-93 -4 -213 -4l-15 84q173 0 297 5q54 2 83 4q18 75 18 181h-313v82h417q0 -147 -21 -257q43 3 109 11l7 -77q-113 -13 -266 -23v-165zM774 260h-103v53h-186v78h186v422h103v-553zM795 -90h-1q-45 17 -91.5 60.5t-63.5 85.5q-15 -45 -59 -89.5
t-98 -69.5l-59 67q82 39 123 90t41 130v45h98v-44q0 -142 163 -205zM404 -11h-1q-27 13 -53 35t-38 46q-16 -46 -64.5 -91t-105.5 -70l-57 69q86 38 129 86t43 126v31h97v-27q0 -57 30 -87t86 -50z" />
    <glyph glyph-name="uniAD9D" unicode="&#xad9d;" 
d="M782 87q0 -79 -81 -122.5t-223 -43.5t-223.5 43.5t-81.5 122.5q0 77 81.5 120.5t223.5 43.5q140 0 222 -44t82 -120zM347 268h-103v154q-117 -5 -210 -5l-14 85q173 0 296 5q56 2 84 4q17 71 17 179h-312v81h417q0 -140 -21 -254q22 2 59.5 5.5t48.5 4.5l7 -76
q-163 -18 -269 -23v-160zM775 257h-103v66h-186v75h186v414h103v-555zM477 168q-92 0 -145.5 -22t-53.5 -60t53.5 -60t145.5 -22q93 0 146.5 22t53.5 60t-53.5 60t-146.5 22z" />
    <glyph glyph-name="uniADA4" unicode="&#xada4;" 
d="M303 -10h-98v332q-92 -5 -184 -6l-13 84q189 2 259 6q13 0 45 2q23 102 23 224h-269v81h370q0 -156 -25 -297q27 1 75 7l6 -74q-47 -7 -189 -21v-338zM627 -36h-97v220h-152v78h152v532h97v-830zM799 -79h-98v891h98v-891z" />
    <glyph glyph-name="uniADB7" unicode="&#xadb7;" 
d="M303 202h-98v199q-114 -4 -178 -5l-12 83q147 0 259 7q5 0 15.5 0.5t16.5 0.5q22 78 22 178h-251v81h352q0 -151 -23 -252q40 1 87 8l5 -74q-84 -11 -195 -20v-206zM822 -5l-46 -80q-94 11 -179 64.5t-112 108.5q-27 -56 -113.5 -109t-176.5 -62l-47 78q108 6 197 68
t89 138v27h106v-27q0 -75 88 -137t194 -69zM631 238h-97v68h-140v71h140v421h97v-560zM799 172h-98v640h98v-640z" />
    <glyph glyph-name="uniADC0" unicode="&#xadc0;" 
d="M365 -34h-103v353q-105 -5 -231 -5l-16 85q204 0 305 4l77 3q23 114 23 257h-316v82h420q0 -189 -26 -332q97 6 124 10l8 -77q-77 -11 -265 -23v-357zM771 -79h-103v891h103v-891z" />
    <glyph glyph-name="uniADC1" unicode="&#xadc1;" 
d="M366 259h-103v146q-100 -4 -228 -4l-16 84q198 0 296 5q54 2 81 4q19 85 19 197h-305v81h409q0 -150 -24 -272q45 3 115 11l7 -79q-116 -14 -251 -22v-151zM768 -79h-102v212h-507v81h609v-293zM768 261h-102v551h102v-551z" />
    <glyph glyph-name="uniADC4" unicode="&#xadc4;" 
d="M397 189h-103v189q-129 -6 -260 -6l-15 85q198 0 296 4l80 3q19 87 19 204h-305v82h408q0 -163 -22 -279q45 3 115 11l7 -78q-132 -16 -220 -21v-194zM786 -55h-640v265h102v-183h538v-82zM768 142h-102v670h102v-670z" />
    <glyph glyph-name="uniADC8" unicode="&#xadc8;" 
d="M799 -79h-622v222h487v68h-492v79h594v-221h-487v-69h520v-79zM365 321h-103v119q-100 -4 -228 -4l-15 85q198 0 296 4l84 3q15 75 15 168h-304v81h407q0 -143 -18 -241q40 3 110 11l7 -79q-138 -17 -251 -22v-125zM767 331h-102v481h102v-481z" />
    <glyph glyph-name="uniADD0" unicode="&#xadd0;" 
d="M768 -66h-594v302h594v-302zM366 272h-103v143q-101 -4 -228 -4l-16 84q198 0 296 4l82 4q18 90 18 190h-305v81h409q0 -152 -22 -264q54 3 114 11l7 -79q-133 -16 -252 -23v-147zM666 15v140h-389v-140h389zM768 279h-102v533h102v-533z" />
    <glyph glyph-name="uniADD1" unicode="&#xadd1;" 
d="M768 -67h-599v330h103v-85h394v87h102v-332zM364 289h-103v140q-100 -4 -226 -4l-16 85q198 0 296 3l84 4q14 77 16 179h-305v81h408q0 -147 -18 -253q43 3 111 11l7 -78q-126 -16 -254 -24v-144zM768 308h-102v504h102v-504zM666 15v82h-394v-82h394z" />
    <glyph glyph-name="uniADD3" unicode="&#xadd3;" 
d="M353 209h-103v183q-142 -4 -216 -4l-15 85q198 0 296 4l78 3q21 105 21 202h-305v80h408q0 -165 -23 -275l116 12l7 -79q-137 -17 -264 -23v-188zM827 -1l-46 -80q-94 11 -180 65.5t-113 109.5q-30 -60 -115.5 -112t-176.5 -61l-47 78q108 7 198 72t90 142v48h105v-48
q0 -75 89.5 -140.5t195.5 -73.5zM767 188h-102v624h102v-624z" />
    <glyph glyph-name="uniADDC" unicode="&#xaddc;" 
d="M728 759q0 -231 -30 -382h137v-83h-200v-374h-102v374h-205v-374h-102v374h-196v83h569q26 112 26 300h-501v82h604z" />
    <glyph glyph-name="uniADE0" unicode="&#xade0;" 
d="M729 767q0 -217 -29 -334h135v-82h-207v-217h-103v217h-138v-215h-102v215h-255v82h571q22 88 26 252h-493v82h595zM741 -53h-608v274h103v-192h505v-82z" />
    <glyph glyph-name="uniADE4" unicode="&#xade4;" 
d="M729 777q0 -160 -26 -279h132v-82h-212v-98h110v-230h-502v-73h535v-83h-637v232h502v72h-507v82h115v98h-209v82h573q26 85 24 198h-494v81h596zM341 416v-98h180v98h-180z" />
    <glyph glyph-name="uniADF8" unicode="&#xadf8;" 
d="M835 51h-805v83h805v-83zM730 716q0 -330 -39 -520l-101 13q16 65 26.5 189.5t10.5 236.5h-504v81h607z" />
    <glyph glyph-name="uniADF9" unicode="&#xadf9;" 
d="M835 373h-805v82h573q24 101 24 240h-494v82h596q0 -190 -27 -322h133v-82zM127 245h603v-327h-102v245h-501v82z" />
    <glyph glyph-name="uniADFC" unicode="&#xadfc;" 
d="M835 326h-805v83h573q23 101 23 272h-488v80h590q0 -229 -23 -352h130v-83zM753 -49h-615v284h102v-203h513v-81z" />
    <glyph glyph-name="uniADFF" unicode="&#xadff;" 
d="M729 774q0 -184 -28 -321h134v-83h-805v83h573q24 106 24 239h-494v82h596zM741 -68h-608v324h599v-84h-497v-157h506v-83z" />
    <glyph glyph-name="uniAE00" unicode="&#xae00;" 
d="M766 -67h-637v234h502v76h-507v80h609v-228h-502v-80h535v-82zM729 777q1 -157 -28 -284h134v-83h-805v83h573q24 86 24 202h-494v82h596z" />
    <glyph glyph-name="uniAE01" unicode="&#xae01;" 
d="M729 774q0 -173 -27 -302h133v-83h-805v83h573q24 94 24 220h-494v82h596zM466 23l12 -76q-80 -18 -257 -18h-108v222h204v72h-207v76h305v-218h-204v-74q183 0 255 16zM462 298l285 1v-375h-101v293h-184v81z" />
    <glyph glyph-name="uniAE08" unicode="&#xae08;" 
d="M732 -68h-599v327h599v-327zM729 774q0 -193 -28 -321h134v-83h-805v83h573q22 96 24 239h-494v82h596zM630 14v165h-395v-165h395z" />
    <glyph glyph-name="uniAE09" unicode="&#xae09;" 
d="M730 -67h-599v368h102v-104h395v106h102v-370zM728 777q0 -183 -27 -316h132v-83h-805v83h574q23 104 23 234h-492v82h595zM628 15v102h-395v-102h395z" />
    <glyph glyph-name="uniAE0B" unicode="&#xae0b;" 
d="M728 774q0 -202 -30 -344h135v-83h-805v83h572q23 100 25 262h-492v82h595zM776 -5l-50 -85q-94 14 -178.5 70.5t-114.5 120.5q-25 -61 -114.5 -115.5t-185.5 -68.5l-50 78q113 7 205 79t92 155v44h104v-44q0 -83 88 -153t204 -81z" />
    <glyph glyph-name="uniAE0D" unicode="&#xae0d;" 
d="M743 100q0 -78 -82 -125.5t-228 -47.5t-227.5 47.5t-81.5 125.5t81.5 125.5t226.5 47.5q147 0 229 -47.5t82 -125.5zM728 772q0 -192 -31 -331h138v-83h-805v83h568q12 44 19.5 119t7.5 130h-492v82h595zM637 100q0 43 -55 67t-150 24q-94 0 -149 -24t-55 -67t54.5 -67
t149.5 -24t150 24t55 67z" />
    <glyph glyph-name="uniAE14" unicode="&#xae14;" 
d="M775 812v-891h-103v891h103zM544 713q0 -258 -30 -405l-99 14q28 107 26 310h-344v81h447zM629 155q-277 -30 -595 -32l-15 86q178 -2 300 4q176 7 302 20z" />
    <glyph glyph-name="uniAE30" unicode="&#xae30;" 
d="M764 -79h-102v891h102v-891zM491 718q-9 -415 -401 -630l-64 78q151 69 246.5 197t108.5 271h-303v84h413z" />
    <glyph glyph-name="uniAE31" unicode="&#xae31;" 
d="M164 245h601v-325h-104v244h-497v81zM764 291h-103v521h103v-521zM495 755q-4 -176 -112 -290.5t-289 -159.5l-53 80q126 24 224.5 100t117.5 185h-298v85h410z" />
    <glyph glyph-name="uniAE34" unicode="&#xae34;" 
d="M763 166h-102v646h102v-646zM788 -56h-604v278h103v-196h501v-82zM495 743q-3 -179 -115.5 -303t-288.5 -172l-52 82q128 27 227 110t118 197h-298v86h409z" />
    <glyph glyph-name="uniAE37" unicode="&#xae37;" 
d="M763 316h-102v496h102v-496zM782 -68h-599v335h586v-84h-483v-168h496v-83zM495 755q-4 -176 -112 -291t-290 -159l-52 80q81 16 151.5 52.5t124 97.5t65.5 135h-297v85h410z" />
    <glyph glyph-name="uniAE38" unicode="&#xae38;" 
d="M791 -69h-612v228h481v70h-485v81h587v-227h-481v-72h510v-80zM763 361h-102v451h102v-451zM494 770q-3 -89 -37 -163.5t-91.5 -126.5t-126 -86.5t-147.5 -54.5l-52 84q131 24 224 94t116 168h-295v85h409z" />
    <glyph glyph-name="uniAE3A" unicode="&#xae3a;" 
d="M764 333h-103v479h103v-479zM494 766q-3 -89 -37 -164t-91 -127t-125.5 -87t-147.5 -55l-53 84q130 23 223.5 94t117.5 171h-296v84h409zM764 -77h-286v363h286v-363zM673 -1v212h-105v-212h105zM435 20l11 -79q-74 -14 -213 -17h-99v218h186v67h-187v78h285v-215h-185
v-70q124 0 202 18z" />
    <glyph glyph-name="uniAE40" unicode="&#xae40;" 
d="M764 -68h-581v335h581v-335zM661 14v172h-374v-172h374zM764 316h-103v496h103v-496zM495 755q-4 -176 -111.5 -289t-289.5 -159l-53 82q126 24 224.5 98t117.5 183h-298v85h410z" />
    <glyph glyph-name="uniAE41" unicode="&#xae41;" 
d="M765 -68h-582v350h104v-94h375v96h103v-352zM662 15v92h-375v-92h375zM764 330h-103v482h103v-482zM495 760q-1 -90 -35 -165.5t-91.5 -128.5t-126.5 -88.5t-148 -54.5l-53 85q127 18 223 91.5t119 174.5h-298v86h410z" />
    <glyph glyph-name="uniAE43" unicode="&#xae43;" 
d="M494 738q-3 -178 -114 -301.5t-286 -171.5l-53 83q127 26 225.5 108.5t117.5 195.5h-298v86h408zM763 226h-102v586h102v-586zM810 -7l-50 -81q-90 17 -175.5 74.5t-117.5 119.5q-26 -63 -112.5 -120.5t-180.5 -72.5l-49 81q113 12 202 81.5t89 161.5v42h107v-42
q0 -90 88 -158t199 -86z" />
    <glyph glyph-name="uniAE45" unicode="&#xae45;" 
d="M763 285h-102v527h102v-527zM494 747q-2 -174 -108.5 -290.5t-290.5 -172.5l-55 83q130 30 226 107.5t115 187.5h-296v85h409zM771 97q0 -80 -81 -127.5t-225 -47.5q-142 0 -222 47.5t-80 127.5q0 81 80 129t222 48q144 0 225 -48t81 -129zM665 97q0 44 -52.5 69
t-147.5 25q-92 0 -144.5 -25t-52.5 -69t52.5 -68.5t144.5 -24.5q95 0 147.5 24.5t52.5 68.5z" />
    <glyph glyph-name="uniAE46" unicode="&#xae46;" 
d="M763 316h-102v496h102v-496zM494 756q-4 -176 -111 -289t-290 -159l-52 82q126 23 224.5 97.5t116.5 182.5h-297v86h409zM180 266h592v-83h-240q6 -73 89.5 -125t190.5 -64l-49 -79q-85 8 -171.5 60.5t-113.5 112.5q-26 -60 -113 -110.5t-184 -60.5l-47 76
q107 7 189.5 60t98.5 130h-242v83z" />
    <glyph glyph-name="uniAE4A" unicode="&#xae4a;" 
d="M495 759q-4 -175 -110 -284t-292 -156l-52 82q73 13 143 46.5t128 93.5t70 132h-297v86h410zM778 -66h-619v83h130l-29 136l103 14l23 -150h162l34 150l98 -20l-34 -130h132v-83zM771 195h-605v82h605v-82zM763 324h-102v488h102v-488z" />
    <glyph glyph-name="uniAE4C" unicode="&#xae4c;" 
d="M728 812v-359h132v-85h-132v-447h-98v891h98zM297 717q0 -196 -52.5 -339t-162.5 -259l-79 54q92 85 144 211t53 250h-142v83h239zM542 717q0 -221 -44.5 -367.5t-160.5 -283.5l-82 53q97 100 144 234.5t47 280.5h-111v83h207z" />
    <glyph glyph-name="uniAE4D" unicode="&#xae4d;" 
d="M853 506h-131v-211h-100v517h100v-221h131v-85zM141 244h582v-324h-103v244h-479v80zM284 756q0 -137 -50 -232.5t-153 -175.5l-69 66q156 97 172 256h-136v86h236zM533 756q0 -154 -47.5 -260.5t-149.5 -189.5l-72 63q80 54 123.5 135t45.5 166h-111v86h211z" />
    <glyph glyph-name="uniAE4E" unicode="&#xae4e;" 
d="M853 496h-131v-199h-100v515h100v-230h131v-86zM441 248h282v-328h-100v246h-182v82zM113 248h283v-328h-101v246h-182v82zM284 756q0 -137 -50 -232.5t-153 -175.5l-70 66q157 97 173 256h-136v86h236zM534 756q0 -153 -48 -257t-151 -188l-69 59q80 54 123 134.5
t46 165.5h-113v86h212z" />
    <glyph glyph-name="uniAE50" unicode="&#xae50;" 
d="M722 812v-274h132v-85h-132v-287h-100v646h100zM749 -53h-599v274h103v-192h496v-82zM284 742q0 -277 -202 -437l-71 65q76 47 120.5 127t51.5 159h-135v86h236zM534 742q0 -320 -199 -487l-73 65q79 50 124 148t47 188h-111v86h212z" />
    <glyph glyph-name="uniAE54" unicode="&#xae54;" 
d="M853 529h-131v-161h-100v444h100v-198h131v-85zM752 -72h-603v233h470v74h-475v83h578v-233h-471v-76h501v-81zM283 768q0 -235 -203 -367l-68 64q74 39 119 95.5t53 123.5h-136v84h235zM532 768q0 -139 -48 -235.5t-150 -173.5l-71 61q155 93 170 264h-111v84h210z" />
    <glyph glyph-name="uniAE56" unicode="&#xae56;" 
d="M853 506h-131v-169h-99v475h99v-221h131v-85zM722 -77h-286v367h286v-367zM630 -2v216h-102v-216h102zM397 18l9 -77q-69 -14 -210 -17h-97v219h181v70h-182v76h282v-217h-182v-73q120 0 199 19zM284 764q0 -243 -203 -377l-69 67q73 40 119 100.5t53 126.5h-136v83h236z
M535 764q0 -269 -200 -421l-71 64q156 97 171 274h-113v83h213z" />
    <glyph glyph-name="uniAE5C" unicode="&#xae5c;" 
d="M853 510h-131v-194h-99v496h99v-217h131v-85zM722 -68h-570v335h570v-335zM619 14v172h-364v-172h364zM284 759q0 -137 -50.5 -232t-152.5 -175l-70 65q157 97 173 257h-136v85h236zM534 759q0 -154 -47.5 -260.5t-149.5 -189.5l-70 63q79 54 122 135t46 167h-113v85h212
z" />
    <glyph glyph-name="uniAE5D" unicode="&#xae5d;" 
d="M853 519h-131v-184h-100v477h100v-207h131v-86zM722 -68h-571v353h103v-95h365v97h103v-355zM619 15v95h-365v-95h365zM284 762q0 -136 -50 -229t-153 -173l-70 62q157 99 173 255h-136v85h236zM534 762q0 -153 -47 -257t-150 -186l-71 60q77 51 121.5 132.5t47.5 165.5
h-113v85h212z" />
    <glyph glyph-name="uniAE5F" unicode="&#xae5f;" 
d="M853 477h-131v-251h-100v586h100v-250h131v-85zM284 749q0 -138 -50.5 -236.5t-152.5 -178.5l-70 64q78 49 122 119t51 147h-136v85h236zM534 749q0 -154 -48 -264.5t-149 -192.5l-71 61q80 52 123 137t46 174h-113v85h212zM796 -8l-50 -81q-90 17 -176 75t-118 119
q-25 -63 -111.5 -120.5t-181.5 -72.5l-49 81q113 13 202 82.5t89 161.5v31h108v-31q0 -90 88 -158.5t199 -86.5z" />
    <glyph glyph-name="uniAE60" unicode="&#xae60;" 
d="M853 515h-131v-200h-100v497h100v-211h131v-86zM284 759q0 -137 -50.5 -232t-152.5 -175l-70 64q157 99 173 259h-136v84h236zM534 759q0 -154 -47.5 -260.5t-149.5 -189.5l-69 61q79 53 121.5 135.5t45.5 169.5h-113v84h212zM829 -2l-55 -74q-48 21 -96.5 67.5
t-64.5 93.5q-13 -48 -62 -98.5t-103 -77.5l-58 69q80 36 126 101t46 149v43h100v-42q0 -82 46 -143t121 -88zM381 -3q-67 37 -94 92q-18 -53 -65.5 -100.5t-108.5 -73.5l-56 69q76 32 125.5 94.5t49.5 142.5v45h100v-40q0 -62 34.5 -102.5t79.5 -54.5z" />
    <glyph glyph-name="uniAE61" unicode="&#xae61;" 
d="M853 500h-131v-214h-100v526h100v-226h131v-86zM284 759q0 -137 -50 -232t-152 -175l-70 64q157 99 172 258h-136v85h236zM535 759q0 -151 -48 -259t-150 -191l-69 59q77 53 121 138t46 168h-113v85h213zM734 97q0 -79 -80 -127.5t-223 -48.5q-141 0 -221 48.5t-80 127.5
q0 80 80 129t221 49q143 0 223 -49t80 -129zM629 97q0 45 -52 70t-146 25t-145 -25t-51 -70q0 -44 51 -69t145 -25t146 25t52 69z" />
    <glyph glyph-name="uniAE65" unicode="&#xae65;" 
d="M853 528h-131v-194h-100v478h100v-198h131v-86zM284 765q0 -135 -50 -227.5t-153 -172.5l-70 65q157 98 173 250h-136v85h236zM534 765q0 -151 -47.5 -254.5t-149.5 -187.5l-71 59q78 52 122 134t47 164h-113v85h212zM709 74h-454v-68h485v-75h-588v359h577v-76h-474v-66
h454v-74z" />
    <glyph glyph-name="uniAE68" unicode="&#xae68;" 
d="M786 -79h-98v448h-78v-405h-97v830h97v-340h78v358h98v-891zM456 707q-2 -215 -37 -354t-133 -275l-82 52q153 189 155 492h-79v85h176zM249 707q0 -193 -39 -321t-128 -236l-78 52q146 164 148 420h-99v85h196z" />
    <glyph glyph-name="uniAE69" unicode="&#xae69;" 
d="M785 287h-98v219h-79v-210h-97v500h97v-205h79v221h98v-525zM174 244h611v-324h-103v242h-508v82zM276 754h186q-1 -155 -42 -262t-130 -203l-75 57q66 60 106.5 146.5t41.5 177.5h-87v84zM54 754h196q0 -245 -169 -405l-72 57q62 47 100 117.5t42 146.5h-97v84z" />
    <glyph glyph-name="uniAE6C" unicode="&#xae6c;" 
d="M785 165h-98v299h-79v-287h-97v619h97v-247h79v263h98v-647zM807 -55h-622v283h103v-201h519v-82zM462 745q-1 -163 -43 -273.5t-131 -200.5l-77 52q67 60 108 149t43 189h-85v84h185zM251 745q-1 -254 -169 -413l-73 57q59 47 96.5 121.5t45.5 150.5h-96v84h196z" />
    <glyph glyph-name="uniAE70" unicode="&#xae70;" 
d="M813 -72h-623v232h491v71h-496v83h599v-231h-492v-74h521v-81zM785 355h-98v178h-80v-172h-96v435h96v-177h80v193h98v-457zM462 761q-1 -141 -41.5 -235.5t-125.5 -180.5l-74 56q61 48 101 124.5t41 153.5h-86v82h185zM251 761q0 -222 -166 -357l-67 60q112 76 133 215
h-97v82h197z" />
    <glyph glyph-name="uniAE78" unicode="&#xae78;" 
d="M785 -68h-594v333h594v-333zM785 310h-98v201h-79v-193h-97v478h97v-200h79v216h98v-502zM682 14v170h-389v-170h389zM462 757q-1 -157 -40.5 -258t-130.5 -199l-77 55q145 130 149 319h-86v83h185zM250 757q0 -131 -44 -225t-124 -170l-72 57q62 47 99.5 113.5
t41.5 141.5h-96v83h195z" />
    <glyph glyph-name="uniAE79" unicode="&#xae79;" 
d="M785 -68h-591v351h102v-94h386v96h103v-353zM785 330h-98v190h-79v-181h-97v457h97v-191h79v207h98v-482zM277 761h185q0 -151 -41.5 -252t-130.5 -191l-76 55q67 60 107 138.5t42 166.5h-86v83zM250 761q0 -232 -169 -379l-70 58q63 46 99.5 108.5t40.5 129.5h-96v83
h195zM682 15v93h-386v-93h386z" />
    <glyph glyph-name="uniAE7B" unicode="&#xae7b;" 
d="M785 244h-98v258h-78v-191h-96v485h96v-208h78v224h98v-568zM822 -8l-49 -81q-90 17 -176 75t-118 119q-25 -63 -111.5 -120.5t-181.5 -72.5l-49 81q113 13 202.5 84t89.5 163v32h106v-32q0 -90 88.5 -160t198.5 -88zM462 750q0 -162 -42 -270t-132 -200l-76 57
q67 59 107.5 146t42.5 184h-86v83h186zM251 750q0 -250 -169 -409l-72 59q60 47 97 119t43 148h-95v83h196z" />
    <glyph glyph-name="uniAE7C" unicode="&#xae7c;" 
d="M784 306h-98v205h-78v-198h-96v483h96v-200h78v216h98v-506zM854 -6l-55 -75q-48 22 -96 68t-66 93q-12 -48 -60.5 -98.5t-102.5 -77.5l-59 69q79 36 125.5 104.5t46.5 153.5v39h99v-38q0 -83 46.5 -147.5t121.5 -90.5zM462 757q-1 -155 -41 -256t-131 -199l-76 53
q66 60 106.5 144t42.5 176h-86v82h185zM405 -7q-27 14 -54 39t-39 53q-17 -53 -64.5 -100.5t-109.5 -74.5l-55 69q74 32 124 98.5t50 147.5v40h99v-36q0 -62 36 -106.5t80 -58.5zM249 757q0 -131 -43.5 -225.5t-123.5 -169.5l-74 58q60 49 99 116.5t43 138.5h-95v82h194z
" />
    <glyph glyph-name="uniAE7D" unicode="&#xae7d;" 
d="M793 98q0 -80 -81.5 -128t-225.5 -48q-143 0 -225 48t-82 128q0 81 82 129.5t225 48.5q144 0 225.5 -48.5t81.5 -129.5zM785 276h-98v230h-79v-196h-96v486h96v-205h79v221h98v-536zM688 98q0 44 -54 69t-148 25t-147 -25t-53 -69t53.5 -69t146.5 -25q94 0 148 25t54 69z
M461 753q0 -159 -39.5 -260t-131.5 -200l-76 58q67 61 107 143.5t41 175.5h-85v83h184zM250 753q0 -240 -169 -399l-72 58q133 108 142 258h-96v83h195z" />
    <glyph glyph-name="uniAE84" unicode="&#xae84;" 
d="M856 309v-83h-134v-305h-99v891h99v-231h134v-83h-134v-189h134zM541 717q-1 -220 -45.5 -367.5t-160.5 -283.5l-82 54q95 98 142 236t49 278h-111v83h208zM293 717q0 -196 -52.5 -339t-162.5 -259l-75 59q94 86 143.5 208.5t49.5 247.5h-141v83h238z" />
    <glyph glyph-name="uniAE85" unicode="&#xae85;" 
d="M853 485v-83h-131v-112h-100v522h100v-136h131v-83h-131v-108h131zM141 244h581v-324h-103v242h-478v82zM534 756q1 -155 -46.5 -261t-150.5 -189l-71 60q77 53 121 135.5t48 168.5h-113v86h212zM284 756q-1 -141 -50.5 -234t-152.5 -174l-70 64q155 96 173 258h-136v86
h236z" />
    <glyph glyph-name="uniAE8C" unicode="&#xae8c;" 
d="M752 -72h-603v234h470v73h-475v83h578v-232h-471v-77h501v-81zM853 535v-83h-131v-87h-100v447h100v-96h131v-83h-131v-98h131zM322 768h215q0 -139 -49 -235.5t-152 -173.5l-71 60q76 46 119 118t50 147h-112v84zM283 768q0 -234 -203 -367l-65 63q72 37 116.5 96
t52.5 124h-136v84h235z" />
    <glyph glyph-name="uniAEBC" unicode="&#xaebc;" 
d="M334 717h208q-2 -143 -17 -243h140v338h99v-891h-99v467h-157q-44 -170 -172 -322l-81 56q94 98 141 231.5t49 280.5h-111v83zM56 717h240q0 -198 -52.5 -339.5t-163.5 -258.5l-76 57q92 86 142 209t52 249h-142v83z" />
    <glyph glyph-name="uniAEBD" unicode="&#xaebd;" 
d="M764 297h-99v211h-125v85h125v219h99v-515zM164 248h601v-328h-102v246h-499v82zM290 756q0 -138 -50 -233t-153 -175l-69 66q155 97 173 256h-136v86h235zM325 756h214q-1 -160 -48 -265t-151 -189l-72 63q79 51 122 134t47 171h-112v86z" />
    <glyph glyph-name="uniAEBE" unicode="&#xaebe;" 
d="M764 296h-99v212h-125v85h125v219h99v-516zM475 246h290v-326h-99v245h-191v81zM145 246h289v-326h-99v245h-190v81zM290 757q0 -138 -50.5 -232.5t-153.5 -174.5l-67 65q154 96 172 256h-136v86h235zM326 757h211q0 -154 -48.5 -261t-151.5 -190l-72 60q80 54 124 136.5
t48 168.5h-111v86z" />
    <glyph glyph-name="uniAEC0" unicode="&#xaec0;" 
d="M664 465h-124v86h124v261h100v-646h-100v299zM784 -56h-604v281h104v-199h500v-82zM290 743q0 -280 -203 -437l-68 65q75 47 119 126t53 160h-136v86h235zM540 743q-1 -315 -199 -485l-74 63q78 55 124 150t48 186h-115v86h216z" />
    <glyph glyph-name="uniAEC4" unicode="&#xaec4;" 
d="M793 -72h-611v233h480v74h-484v83h586v-233h-479v-76h508v-81zM763 367h-99v168h-124v85h124v192h99v-445zM290 768q0 -236 -205 -367l-67 65q74 38 119.5 95t53.5 123h-136v84h235zM537 768q-1 -141 -48 -237t-149 -172l-73 61q152 93 170 264h-112v84h212z" />
    <glyph glyph-name="uniAECC" unicode="&#xaecc;" 
d="M765 -68h-581v335h581v-335zM663 14v172h-376v-172h376zM764 317h-99v187h-125v85h125v223h99v-495zM290 759q0 -137 -50 -232.5t-153 -174.5l-69 64q157 98 173 258h-136v85h235zM537 759q0 -155 -47.5 -262.5t-149.5 -190.5l-75 65q78 53 123 135.5t49 167.5h-111v85
h211z" />
    <glyph glyph-name="uniAECD" unicode="&#xaecd;" 
d="M765 -68h-581v357h103v-98h376v99h102v-358zM663 15v96h-376v-96h376zM764 334h-99v176h-125v85h125v217h99v-478zM290 762q0 -136 -50 -229t-153 -173l-69 64q157 100 173 253h-136v85h235zM326 762h212q-1 -155 -48.5 -259.5t-150.5 -187.5l-74 64q79 52 124 133.5
t47 164.5h-110v85z" />
    <glyph glyph-name="uniAECF" unicode="&#xaecf;" 
d="M763 224h-99v247h-125v86h125v255h99v-588zM290 749q0 -138 -50.5 -237t-153.5 -178l-68 63q77 48 120.5 119t51.5 148h-136v85h236zM537 749q0 -154 -49 -264.5t-151 -193.5l-71 63q79 52 123 137.5t47 172.5h-111v85h212zM810 -8l-50 -81q-89 17 -175 75t-118 119
q-26 -63 -112 -120.5t-181 -72.5l-49 81q113 13 202 84.5t89 163.5v33h107v-33q0 -90 88.5 -160.5t198.5 -88.5z" />
    <glyph glyph-name="uniAED0" unicode="&#xaed0;" 
d="M763 303h-99v197h-124v86h124v226h99v-509zM290 759q0 -137 -50 -232.5t-154 -174.5l-68 65q156 98 172 258h-136v84h236zM536 759q0 -157 -47 -263.5t-149 -189.5l-72 63q80 54 123 136t45 170h-111v84h211zM846 -2l-56 -74q-48 21 -96 67.5t-65 93.5q-12 -48 -61 -98.5
t-103 -77.5l-59 69q80 36 126 100.5t46 148.5v42h100v-41q0 -83 45.5 -143t122.5 -87zM397 -3q-27 15 -54.5 40t-39.5 52q-17 -53 -64.5 -100.5t-108.5 -73.5l-56 69q75 32 124.5 94t49.5 142v44h100v-39q0 -62 35 -102t80 -54z" />
    <glyph glyph-name="uniAED1" unicode="&#xaed1;" 
d="M665 492h-125v84h125v236h99v-536h-99v216zM290 759q0 -137 -50 -232.5t-153 -174.5l-68 65q154 96 172 257h-136v85h235zM537 759q0 -158 -46.5 -264t-148.5 -189l-68 63q78 53 119.5 135t43.5 170h-111v85h211zM771 97q0 -79 -81.5 -127.5t-224.5 -48.5
q-141 0 -221.5 48.5t-80.5 127.5q0 80 80 129t222 49q144 0 225 -49t81 -129zM666 97q0 44 -53 69.5t-148 25.5q-92 0 -144.5 -25.5t-52.5 -69.5t52.5 -69t144.5 -25q95 0 148 25t53 69z" />
    <glyph glyph-name="uniAED8" unicode="&#xaed8;" 
d="M275 708h172q0 -149 -14 -242h86v328h97v-831h-97v418h-101q-38 -161 -140 -303l-82 51q153 192 155 493h-76v86zM786 -79h-98v891h98v-891zM54 708h194q0 -193 -38 -322t-126 -236l-79 54q147 164 147 418h-98v86z" />
    <glyph glyph-name="uniAED9" unicode="&#xaed9;" 
d="M456 754q0 -85 -13 -161h78v203h97v-500h-97v212h-100q-36 -111 -136 -219l-78 56q67 61 108 147.5t42 177.5h-82v84h181zM785 -80h-103v242h-508v82h611v-324zM785 287h-98v525h98v-525zM248 754q0 -246 -167 -405l-73 58q61 47 98.5 117t42.5 146h-94v84h193z" />
    <glyph glyph-name="uniAEDC" unicode="&#xaedc;" 
d="M454 745q0 -99 -17 -182h83v233h97v-619h-97v301h-106q-43 -115 -133 -207l-78 55q67 60 108.5 149t42.5 186h-79v84h179zM807 -55h-622v286h104v-204h518v-82zM785 165h-98v647h98v-647zM248 745q0 -256 -166 -413l-74 58q60 47 97.5 121.5t43.5 149.5h-94v84h193z" />
    <glyph glyph-name="uniAEE8" unicode="&#xaee8;" 
d="M785 -68h-590v331h590v-331zM454 757q0 -84 -13 -162h80v201h97v-480h-97v194h-103q-36 -105 -132 -210l-78 57q67 60 106.5 142.5t40.5 174.5h-80v83h179zM682 14v169h-386v-169h386zM785 309h-98v503h98v-503zM248 757q0 -132 -43 -226t-123 -169l-73 58
q62 46 99 112.5t41 141.5h-94v83h193z" />
    <glyph glyph-name="uniAEEB" unicode="&#xaeeb;" 
d="M454 750q0 -83 -13 -163h79v209h97v-495h-97v200h-100q-38 -118 -138 -221l-76 56q66 59 106.5 146t41.5 185h-79v83h179zM831 -6l-54 -82q-88 16 -177 75.5t-117 118.5q-23 -60 -111.5 -118t-181.5 -74l-54 80q112 11 204.5 85t92.5 165v26h106v-26q0 -92 91 -164
t201 -86zM785 225h-98v587h98v-587zM247 750q0 -254 -165 -409l-74 59q60 46 97.5 119.5t43.5 147.5h-94v83h192z" />
    <glyph glyph-name="uniAEED" unicode="&#xaeed;" 
d="M796 98q0 -79 -82 -127.5t-225 -48.5t-225.5 48.5t-82.5 127.5q0 81 82.5 129.5t225.5 48.5t225 -48.5t82 -129.5zM455 757q-2 -98 -14 -164h79v203h97v-489h-97v201h-101q-36 -104 -132 -210l-77 57q67 61 105.5 143.5t39.5 175.5h-80v83h180zM691 98q0 44 -54 69
t-148 25t-147 -25t-53 -69t53.5 -69t146.5 -25q94 0 148 25t54 69zM785 274h-98v538h98v-538zM248 757q0 -242 -167 -401l-73 60q61 48 99 115.5t42 142.5h-94v83h193z" />
    <glyph glyph-name="uniAEF4" unicode="&#xaef4;" 
d="M764 -79h-99v325h-142v84h142v156h-127v84h127v242h99v-891zM531 717q-1 -220 -49 -371t-159 -282l-84 51q93 97 142.5 237.5t50.5 281.5h-101v83h200zM294 717q-1 -206 -48 -339.5t-164 -260.5l-78 54q189 192 192 463h-140v83h238z" />
    <glyph glyph-name="uniAEF8" unicode="&#xaef8;" 
d="M764 165h-100v193h-125v83h125v114h-110v82h110v175h100v-647zM784 -56h-604v278h104v-196h500v-82zM539 743q0 -320 -200 -486l-74 64q80 54 126 150.5t48 185.5h-114v86h214zM290 743q0 -280 -203 -437l-68 63q75 46 119 126t53 162h-136v86h235z" />
    <glyph glyph-name="uniAEFC" unicode="&#xaefc;" 
d="M793 -72h-611v232h480v71h-483v83h585v-230h-479v-75h508v-81zM55 768h235q0 -236 -205 -367l-65 63q73 37 116.5 95t51.5 125h-133v84zM325 768h210q0 -140 -48.5 -235.5t-150.5 -173.5l-72 64q152 94 169 261h-108v84zM763 357h-99v84h-125v83h125v81h-111v82h111v125
h99v-455z" />
    <glyph glyph-name="uniAF07" unicode="&#xaf07;" 
d="M810 -8l-50 -81q-89 17 -175 75t-118 119q-26 -63 -112 -120.5t-181 -72.5l-49 81q113 13 202 82.5t89 161.5v33h107v-33q0 -90 88 -158.5t199 -86.5zM763 223h-99v151h-127v84h127v104h-112v84h112v166h99v-589zM536 749q0 -155 -48.5 -266.5t-150.5 -193.5l-72 65
q79 52 123.5 138t46.5 172h-110v85h211zM290 749q0 -138 -50.5 -237t-153.5 -178l-67 63q77 48 120 118.5t51 148.5h-136v85h236z" />
    <glyph glyph-name="uniAF08" unicode="&#xaf08;" 
d="M290 759q0 -137 -50 -232.5t-154 -174.5l-68 64q156 98 172 259h-136v84h236zM535 759q0 -157 -47.5 -263.5t-150.5 -189.5l-71 61q80 55 123.5 138t45.5 170h-110v84h210zM763 298h-99v103h-130v83h130v105h-110v82h110v141h99v-514zM846 -2l-56 -74q-48 21 -96 67.5
t-65 93.5q-12 -48 -61 -98.5t-103 -77.5l-59 69q81 36 126.5 99t45.5 147v42h100v-41q0 -82 46 -141t122 -86zM397 -3q-27 15 -54.5 40t-39.5 52q-17 -53 -64.5 -100.5t-108.5 -73.5l-56 69q76 33 125 93t49 140v44h100v-39q0 -61 34.5 -100t80.5 -53z" />
    <glyph glyph-name="uniAF0D" unicode="&#xaf0d;" 
d="M290 762q0 -137 -49.5 -228t-153.5 -170l-66 60q152 94 170 253h-136v85h235zM325 762h210q-1 -157 -47.5 -259t-149.5 -184l-68 61q78 54 120 132.5t45 164.5h-110v85zM747 73h-462v-67h502v-75h-605v357h587v-75h-484v-66h462v-74zM764 327h-99v95h-132v84h132v95h-113
v83h113v128h99v-485z" />
    <glyph glyph-name="uniAF10" unicode="&#xaf10;" 
d="M438 707q0 -65 -3 -120h90v207h97v-830h-97v304h-98v81h98v157h-96q-13 -125 -50 -226t-110 -202l-81 53q150 183 154 491h-79v85h175zM791 -79h-98v891h98v-891zM238 707q0 -194 -37 -322.5t-124 -234.5l-75 55q138 154 140 417h-94v85h190z" />
    <glyph glyph-name="uniAF2C" unicode="&#xaf2c;" 
d="M835 49h-805v83h361v281h103v-281h341v-83zM750 726q-1 -282 -39 -462l-101 15q35 145 36 365h-206v82h310zM376 726q0 -122 -18.5 -250.5t-40.5 -211.5l-102 18q21 64 39.5 173.5t18.5 188.5h-186v82h289z" />
    <glyph glyph-name="uniAF2D" unicode="&#xaf2d;" 
d="M835 319h-805v82h366v173h102v-173h337v-82zM124 228h606v-310h-102v228h-504v82zM748 784q0 -214 -32 -314l-100 17q13 37 20.5 101t7.5 114h-198v82h302zM377 784q-1 -175 -49 -314l-100 20q16 36 30 99.5t15 112.5h-176v82h280z" />
    <glyph glyph-name="uniAF30" unicode="&#xaf30;" 
d="M835 296h-805v82h366v177h102v-177h337v-82zM741 -54h-608v273h102v-191h506v-82zM748 776q0 -227 -32 -328l-100 16q12 34 20 105t8 125h-198v82h302zM376 776q0 -87 -14.5 -179t-34.5 -149l-100 18q15 35 30 106t16 122h-176v82h279z" />
    <glyph glyph-name="uniAF32" unicode="&#xaf32;" 
d="M835 360h-805v83h366v148h102v-148h337v-83zM734 16q0 -47 -44.5 -77.5t-110.5 -30.5t-111 30.5t-45 78.5t45 79t111 31t110.5 -31t44.5 -80zM446 787h302q0 -207 -32 -302l-98 11q27 75 27 209h-199v82zM379 41l13 -79q-120 -29 -270 -29v324h98v-240q88 4 159 24z
M97 787h280q0 -169 -48 -301l-100 17q16 33 29.5 93t14.5 109h-176v82zM775 149h-403v74h403v-74zM679 245h-209v78h209v-78zM644 17q0 19 -19 30t-46 11q-28 0 -47.5 -11t-19.5 -30q0 -18 20 -29.5t47 -11.5t46 11.5t19 29.5z" />
    <glyph glyph-name="uniAF34" unicode="&#xaf34;" 
d="M761 -73h-628v226h492v70h-497v82h600v-227h-493v-69h526v-82zM835 370h-805v82h366v156h102v-156h337v-82zM748 791q0 -190 -32 -289l-98 17q27 79 27 190h-199v82h302zM377 791q0 -166 -48 -289l-99 21q16 31 29 85.5t14 100.5h-176v82h280z" />
    <glyph glyph-name="uniAF3C" unicode="&#xaf3c;" 
d="M732 -68h-599v317h599v-317zM835 331h-805v83h366v170h102v-170h337v-83zM630 14v155h-395v-155h395zM446 786h302q0 -219 -32 -314l-100 15q13 36 20.5 100.5t7.5 116.5h-198v82zM97 786h280q0 -85 -14.5 -171t-34.5 -142l-100 18q16 33 30 97t15 116h-176v82z" />
    <glyph glyph-name="uniAF3D" unicode="&#xaf3d;" 
d="M732 -67h-599v342h102v-93h395v94h102v-343zM835 340h-805v82h366v167h102v-167h337v-82zM446 790h302q0 -206 -31 -304l-100 15q28 81 28 207h-199v82zM97 790h280q0 -171 -48 -303l-100 19q16 35 29.5 92.5t14.5 109.5h-176v82zM630 15v88h-395v-88h395z" />
    <glyph glyph-name="uniAF3F" unicode="&#xaf3f;" 
d="M835 320h-805v82h366v175h102v-175h337v-82zM779 -4l-51 -85q-94 14 -178 70.5t-114 120.5q-26 -62 -115.5 -116t-184.5 -68l-50 78q114 7 205.5 78t91.5 154v32h104v-32q0 -83 88 -152t204 -80zM446 782h302q0 -204 -32 -313l-100 15q28 81 28 216h-198v82zM97 782h279
q0 -84 -14.5 -170t-34.5 -142l-100 18q16 32 30.5 96t15.5 116h-176v82z" />
    <glyph glyph-name="uniAF41" unicode="&#xaf41;" 
d="M743 89q0 -76 -81.5 -122t-228.5 -46q-146 0 -227.5 46t-81.5 122q0 77 81.5 123t226.5 46q147 0 229 -46t82 -123zM835 322h-805v82h366v180h102v-180h337v-82zM637 88q0 43 -54.5 65t-150.5 22t-150 -22t-54 -65q0 -41 54 -63t150 -22t150.5 22t54.5 63zM446 786h302
q0 -215 -32 -314l-100 15q28 79 28 217h-198v82zM97 786h280q0 -84 -14.5 -170.5t-34.5 -142.5l-100 21q15 32 29.5 95.5t15.5 114.5h-176v82z" />
    <glyph glyph-name="uniAF42" unicode="&#xaf42;" 
d="M132 257h602v-83h-245q14 -70 98.5 -121.5t186.5 -56.5l-49 -82q-94 12 -181 64.5t-112 107.5q-26 -53 -112 -106.5t-180 -63.5l-50 80q104 4 189.5 57t99.5 121h-247v83zM835 325h-805v83h366v176h102v-176h337v-83zM446 786h302q0 -213 -32 -313l-100 16q26 72 28 215
h-198v82zM97 786h280q0 -179 -49 -312l-100 20q17 34 30.5 96t14.5 114h-176v82z" />
    <glyph glyph-name="uniAF43" unicode="&#xaf43;" 
d="M763 -14l-46 -78q-92 4 -175.5 44t-113.5 89q-26 -45 -111.5 -85.5t-182.5 -45.5l-48 79q112 2 191 39.5t94 91.5h-246v81h616v-81h-257q15 -56 94.5 -93.5t184.5 -40.5zM835 373h-805v83h366v149h102v-149h337v-83zM446 793h302q0 -184 -32 -285l-98 16q27 76 27 188
h-199v81zM97 793h280q0 -164 -48 -285l-99 19q16 34 29.5 86.5t13.5 98.5h-176v81zM575 244h-284v79h284v-79z" />
    <glyph glyph-name="uniAF48" unicode="&#xaf48;" 
d="M860 355h-123v-434h-100v891h100v-371h123v-86zM584 213l7 -78q-223 -31 -568 -33l-14 85q171 0 260 4v259h99v-254q125 7 216 17zM320 715h223q-1 -266 -26 -394l-98 11q22 109 24 303h-123v80zM42 715h214q-1 -221 -41 -393l-97 15q37 150 37 298h-113v80z" />
    <glyph glyph-name="uniAF49" unicode="&#xaf49;" 
d="M133 215h599v-296h-101v215h-498v81zM857 468h-125v-208h-99v552h99v-258h125v-86zM582 398l8 -77q-223 -30 -568 -34l-15 85q201 0 258 2v166h98v-161q148 7 219 19zM318 749h223q0 -197 -32 -301l-98 14q28 85 28 205h-121v82zM47 749h211q0 -181 -39 -302l-98 15
q35 110 35 205h-109v82z" />
    <glyph glyph-name="uniAF50" unicode="&#xaf50;" 
d="M766 -80h-626v217h491v63h-496v78h598v-215h-490v-65h523v-78zM582 445l8 -77q-223 -30 -568 -34l-15 85q201 0 258 2v156h98v-151q148 7 219 19zM732 812v-224h125v-86h-125v-182h-99v492h99zM318 759h223q0 -157 -32 -275l-98 14q28 78 28 179h-121v82zM49 759h209
q0 -169 -40 -277l-97 19q35 87 35 176h-107v82z" />
    <glyph glyph-name="uniAF5C" unicode="&#xaf5c;" 
d="M732 813v-250h125v-84h-125v-199h-99v533h99zM582 401l8 -77q-226 -29 -568 -33l-15 85q173 0 258 3v157h98v-152q116 4 219 17zM771 -90h-1q-44 18 -91.5 62t-62.5 84q-16 -44 -60 -89t-97 -70l-60 67q165 78 165 240v38h98v-37q0 -79 44.5 -138t116.5 -87zM381 -11h-1
q-28 12 -53.5 34.5t-37.5 46.5q-16 -47 -64.5 -91.5t-106.5 -69.5l-58 69q173 77 173 230v29h98v-25q0 -58 31.5 -97t83.5 -58zM318 748h223q0 -194 -32 -300l-98 14q26 77 28 206h-121v80zM48 748h210q0 -191 -39 -301l-98 15q33 104 35 206h-108v80z" />
    <glyph glyph-name="uniAF5D" unicode="&#xaf5d;" 
d="M745 88q0 -77 -81.5 -121t-222.5 -44t-221.5 44t-80.5 121t81 122t221 45t222 -45t82 -122zM732 812v-255h125v-86h-125v-215h-99v556h99zM582 407l8 -77q-215 -29 -568 -33l-15 85q201 0 258 2v151h98v-147q108 5 219 19zM441 171q-91 0 -144 -22.5t-53 -60.5
t53.5 -60.5t143.5 -22.5q92 0 144.5 22.5t52.5 60.5t-52.5 60.5t-144.5 22.5zM543 748q-2 -208 -32 -299l-97 15q27 88 27 203h-123v81h225zM258 748q0 -189 -37 -300l-99 15q35 105 35 204h-109v81h210z" />
    <glyph glyph-name="uniAF64" unicode="&#xaf64;" 
d="M808 -79h-97v449h-74v-407h-96v831h96v-338h74v356h97v-891zM510 229l7 -79q-212 -27 -493 -29l-12 84q96 0 219 5v225h92v-222q132 8 187 16zM479 714q0 -236 -24 -364l-94 11q23 111 23 273h-107v80h202zM231 714q0 -222 -37 -364l-94 16q35 125 35 268h-96v80h192z
" />
    <glyph glyph-name="uniAF65" unicode="&#xaf65;" 
d="M808 267h-97v231h-75v-222h-96v520h96v-212h75v228h97v-545zM180 229h629v-311h-102v228h-527v83zM497 404l7 -78q-205 -27 -475 -29l-12 83q67 0 211 4v168h91v-164q116 7 178 16zM274 756h204q0 -203 -25 -299l-92 12q21 80 21 206h-108v81zM40 756h187
q0 -165 -40 -298l-93 19q14 34 25 91t11 107h-90v81z" />
    <glyph glyph-name="uniAF79" unicode="&#xaf79;" 
d="M815 89q0 -76 -85.5 -120.5t-229.5 -44.5q-143 0 -229 44.5t-86 120.5q0 77 86 121.5t229 44.5q144 0 229.5 -45t85.5 -121zM808 256h-97v238h-75v-206h-96v508h96v-218h75v234h97v-556zM500 173q-94 0 -152 -23t-58 -61t58 -61t152 -23t151.5 23t57.5 61t-57.5 61
t-151.5 23zM501 404l7 -78q-205 -27 -479 -29l-12 83q67 0 211 4v165h90v-161q123 7 183 16zM274 752h204q0 -199 -24 -299l-93 12q20 78 22 206h-109v81zM39 752h189q0 -169 -41 -297l-93 19q14 34 25 92.5t11 104.5h-91v81z" />
    <glyph glyph-name="uniAF80" unicode="&#xaf80;" 
d="M775 812v-891h-100v891h100zM623 213l8 -79q-221 -27 -587 -31l-16 85q197 0 256 2v262h100v-257q134 5 239 18zM337 715h226q-1 -255 -26 -394l-97 11q21 110 22 303h-125v80zM273 715q0 -216 -40 -393l-98 15q37 137 37 298h-115v80h216z" />
    <glyph glyph-name="uniAF84" unicode="&#xaf84;" 
d="M794 -56h-614v254h103v-172h511v-82zM768 812v-659h-101v659h101zM621 376l6 -79q-226 -27 -592 -31l-14 84q173 0 263 4v166h96v-163q149 7 241 19zM568 743q-2 -203 -33 -309l-97 14q28 83 28 213h-123v82h225zM282 743q0 -194 -39 -311l-97 14q35 108 35 215h-114v82
h215z" />
    <glyph glyph-name="uniAF88" unicode="&#xaf88;" 
d="M800 -69h-626v214h491v61h-495v81h597v-214h-491v-60h524v-82zM621 448l6 -79q-229 -30 -592 -32l-14 84q144 0 264 4v148h96v-144q158 5 240 19zM767 812v-485h-100v485h100zM568 756q0 -158 -28 -272l-98 13q22 69 24 178h-123v81h225zM282 756q0 -164 -38 -273l-96 16
q31 81 33 176h-114v81h215z" />
    <glyph glyph-name="uniAF90" unicode="&#xaf90;" 
d="M768 -67h-591v312h591v-312zM622 415l5 -79q-216 -27 -591 -31l-15 83q144 0 264 4v155h96v-151q183 10 241 19zM666 14v152h-386v-152h386zM768 812v-521h-100v521h100zM569 749q0 -174 -30 -290l-97 15q25 75 25 193h-124v82h226zM283 749q0 -180 -39 -292l-97 12
q13 37 24 96.5t11 101.5h-115v82h216z" />
    <glyph glyph-name="uniAF91" unicode="&#xaf91;" 
d="M768 -68h-590v335h103v-87h385v89h102v-337zM622 426l5 -79q-216 -27 -591 -31l-15 85q175 0 265 3v149h96v-145q171 8 240 18zM768 812v-498h-100v498h100zM569 751q0 -173 -29 -281l-98 15q19 60 25 185h-126v81h228zM283 751q-2 -176 -39 -283l-97 12q14 37 24.5 93.5
t10.5 96.5h-115v81h216zM666 12v89h-385v-89h385z" />
    <glyph glyph-name="uniAF95" unicode="&#xaf95;" 
d="M772 88q0 -77 -80.5 -121t-221.5 -44q-142 0 -223 44t-81 121t81 121t222 44q140 0 221.5 -44.5t81.5 -120.5zM622 410l5 -79q-216 -27 -592 -31l-14 84q130 0 265 3v150h96v-146q181 10 240 19zM768 812v-559h-100v559h100zM470 170q-92 0 -145 -22t-53 -60
q0 -39 53 -61t145 -22t144 22t52 61q0 38 -52.5 60t-143.5 22zM343 745h226q0 -184 -29 -294l-98 15q24 79 24 198h-123v81zM67 745h217q0 -83 -11.5 -165t-28.5 -130l-96 14q14 38 24 97.5t10 102.5h-115v81z" />
    <glyph glyph-name="uniAF9C" unicode="&#xaf9c;" 
d="M835 49h-805v83h290v265h98v-265h73v265h98v-265h246v-83zM760 726q0 -270 -40 -461l-100 17q38 158 38 362h-248v82h350zM82 726h258q0 -118 -21.5 -245.5t-52.5 -209.5l-99 24q26 60 48.5 167t22.5 182h-156v82z" />
    <glyph glyph-name="uniAFB8" unicode="&#xafb8;" 
d="M746 757q0 -196 -33 -368h122v-82h-353v-386h-102v386h-350v82h205q39 142 39 286h-181v82h284q0 -176 -41 -368h277q31 132 29 286h-196v82h300z" />
    <glyph glyph-name="uniAFB9" unicode="&#xafb9;" 
d="M744 781q0 -155 -32 -320h123v-82h-352v-150h248v-311h-102v230h-505v81h257v150h-351v82h225q36 119 36 238h-185v82h289q0 -176 -38 -320h253q30 110 30 238h-178v82h282z" />
    <glyph glyph-name="uniAFBC" unicode="&#xafbc;" 
d="M744 767q0 -160 -35 -337h126v-83h-344v-225h-103v225h-358v83h223q16 48 27 124t11 131h-185v82h289q-2 -186 -41 -337h252q33 122 35 255h-179v82h282zM741 -53h-608v281h102v-199h506v-82z" />
    <glyph glyph-name="uniAFC0" unicode="&#xafc0;" 
d="M744 786q0 -155 -31 -288h122v-82h-352v-102h245v-231h-493v-74h526v-82h-628v231h492v73h-497v83h253v102h-351v82h226q35 102 35 206h-185v82h289q0 -157 -36 -288h253q29 100 29 206h-179v82h282z" />
    <glyph glyph-name="uniAFC7" unicode="&#xafc7;" 
d="M744 784q0 -130 -31 -280h122v-82h-353v-120h-102v120h-350v82h230q31 96 31 198h-185v82h289q0 -157 -33 -280h251q28 104 28 198h-179v82h282zM423 18l9 -74q-64 -16 -205 -19h-112v218h180v65h-183v76h279v-213h-180v-69q133 -2 212 16zM766 14q0 -49 -43 -76
t-109 -27q-67 0 -110 27.5t-43 75.5q0 49 43 77t110 28q65 0 108.5 -28.5t43.5 -76.5zM801 140h-374v74h374v-74zM713 246h-199v76h199v-76zM679 14q0 17 -19 26t-46 9q-28 0 -47 -9t-19 -26q0 -16 19.5 -25t46.5 -9q26 0 45.5 9t19.5 25z" />
    <glyph glyph-name="uniAFC8" unicode="&#xafc8;" 
d="M744 781q0 -150 -31 -310h122v-82h-352v-133h249v-324h-599v324h248v133h-351v82h228q33 114 33 228h-186v82h290q-2 -174 -36 -310h253q28 109 28 228h-179v82h283zM630 14v161h-395v-161h395z" />
    <glyph glyph-name="uniAFC9" unicode="&#xafc9;" 
d="M730 -67h-599v358h102v-103h395v104h102v-359zM744 786q0 -132 -32 -300h123v-83h-353v-158h-102v158h-350v83h228q33 108 33 218h-185v82h289q0 -159 -36 -300h253q28 112 28 218h-178v82h282zM628 15v94h-395v-94h395z" />
    <glyph glyph-name="uniAFCB" unicode="&#xafcb;" 
d="M743 776q-2 -152 -31 -307h123v-83h-353v-122h-102v122h-350v83h228q33 108 33 225h-185v82h289q0 -167 -35 -307h253q24 102 26 225h-177v82h281zM777 -2l-49 -82q-95 11 -179.5 59t-117.5 104q-30 -58 -117 -105t-182 -58l-52 80q115 4 207.5 64.5t92.5 137.5v31h104
v-31q0 -78 87.5 -135t205.5 -65z" />
    <glyph glyph-name="uniAFCD" unicode="&#xafcd;" 
d="M744 777q0 -153 -33 -316h124v-82h-352v-119q123 -8 191.5 -53.5t68.5 -114.5q0 -76 -82 -123t-228 -47q-145 0 -227 47t-82 123q0 69 67.5 114t189.5 54v119h-351v82h225q36 117 36 235h-185v81h289q0 -175 -38 -316h253q30 109 30 235h-178v81h282zM637 92
q0 42 -54.5 64.5t-150.5 22.5q-95 0 -149.5 -22.5t-54.5 -64.5t54.5 -65t149.5 -23t150 23t55 65z" />
    <glyph glyph-name="uniAFCE" unicode="&#xafce;" 
d="M394 783q0 -157 -34 -298h255q26 104 26 216h-179v82h283q0 -145 -32 -298h122v-83h-352v-116h-102v116h-351v83h228q32 108 32 216h-184v82h288zM132 254h602v-83h-245q14 -70 98.5 -120t186.5 -55l-49 -82q-96 12 -182.5 64t-110.5 109q-26 -58 -111 -109.5t-181 -61.5
l-50 80q104 5 189.5 56.5t99.5 118.5h-247v83z" />
    <glyph glyph-name="uniAFD4" unicode="&#xafd4;" 
d="M370 -46h-101v374q-130 -5 -240 -5l-13 85q101 0 150 1q30 104 30 248h-121v82h224q0 -174 -33 -328q17 0 51 2q46 1 120 5q26 106 26 239h-120v82h223q-1 -173 -29 -314q16 1 44.5 4t39.5 4l8 -78q-120 -14 -259 -22v-379zM479 182v80h196v550h100v-891h-100v261h-196z
" />
    <glyph glyph-name="uniAFDC" unicode="&#xafdc;" 
d="M810 -80h-632v209h493v61h-498v79h601v-209h-494v-62h530v-78zM352 309h-102v142q-96 -4 -216 -4l-14 83q98 0 146 1q24 87 24 163h-112v81h213q0 -135 -25 -242l50 3q43 1 109 5q21 78 21 153h-108v81h211q0 -122 -24 -227q45 3 86 9l7 -78q-124 -14 -266 -22v-148z
M492 353v73h183v386h100v-507h-100v48h-183z" />
    <glyph glyph-name="uniAFE8" unicode="&#xafe8;" 
d="M352 268h-102v145q-120 -5 -216 -5l-15 85h142q29 92 29 186h-113v81h214q0 -145 -30 -265q19 0 55 2q41 1 105 5q25 80 25 177h-108v81h211q0 -136 -26 -251q48 3 90 9l6 -76q-156 -18 -267 -24v-150zM490 311v75h185v427h100v-555h-100v53h-185zM848 -20l-53 -70
q-46 17 -92.5 60.5t-63.5 85.5q-15 -45 -59 -89.5t-98 -69.5l-59 67q82 39 123 90t41 130v45h98v-44q0 -142 163 -205zM470 58l-66 -69q-65 29 -92 81q-16 -46 -64.5 -91t-105.5 -70l-57 69q86 38 129 86t43 126v31h97v-27q0 -56 30 -86t86 -50z" />
    <glyph glyph-name="uniAFE9" unicode="&#xafe9;" 
d="M788 87q0 -79 -81.5 -122.5t-223.5 -43.5q-143 0 -224.5 43.5t-81.5 122.5q0 77 81.5 120.5t223.5 43.5q141 0 223.5 -44t82.5 -120zM353 275h-102v142q-120 -5 -217 -5l-14 84h141q30 103 30 186h-114v79h215q0 -147 -31 -262q17 0 55 2q40 1 102 5q28 84 28 176h-108
v79h211q-1 -142 -28 -249q60 6 92 10l7 -76q-130 -16 -267 -24v-147zM491 315v73h185v424h99v-561h-99v64h-185zM482 168q-92 0 -145.5 -22t-53.5 -60t53.5 -60.5t145.5 -22.5q93 0 146.5 22t53.5 61q0 38 -53.5 60t-146.5 22z" />
    <glyph glyph-name="uniAFF0" unicode="&#xaff0;" 
d="M307 -10h-96v336q-63 -3 -190 -5l-13 83q63 0 99 1q29 122 29 230h-87v79h180q0 -166 -29 -306l67 3q3 0 25 1t34 2q27 98 27 221h-85v79h178q0 -159 -27 -294q10 1 36.5 3.5t39.5 4.5l6 -74q-77 -12 -194 -21v-343zM387 187v80h153v527h96v-831h-96v224h-153zM799 -79
h-98v891h98v-891z" />
    <glyph glyph-name="uniAFF1" unicode="&#xaff1;" 
d="M311 261h-98v152q-93 -5 -186 -6l-12 84q31 0 113 2q22 86 22 176h-88v79h180q0 -135 -24 -253q20 0 56 2q54 2 75 4q19 75 19 168h-87v79h179q0 -129 -21 -241l60 6l6 -73q-95 -13 -194 -21v-158zM164 217h636v-299h-103v217h-533v82zM405 313v73h135v410h96v-535h-96
v52h-135zM799 258h-98v554h98v-554z" />
    <glyph glyph-name="uniAFF4" unicode="&#xaff4;" 
d="M315 245h-98v145q-105 -5 -190 -5l-12 83q68 0 104 1q25 91 25 191h-89v78h182q0 -149 -25 -266l62 3l67 3q23 80 23 182h-88v78h181q0 -134 -24 -254q43 4 66 7l6 -74q-101 -14 -190 -20v-152zM824 -53h-650v256h102v-174h548v-82zM406 273v72h132v451h96v-631h-96v108
h-132zM799 148h-98v664h98v-664z" />
    <glyph glyph-name="uniAFF8" unicode="&#xaff8;" 
d="M832 -68h-645v211h509v56h-514v81h616v-210h-508v-59h542v-79zM313 313h-98v139q-62 -3 -188 -5l-13 81q32 0 112 2q20 84 20 157h-89v78h183q0 -133 -21 -233l55 3q55 3 73 4q17 65 18 148h-85v78h179q0 -120 -20 -220q39 4 60 7l6 -73q-80 -11 -192 -20v-146zM407 358
v73h132v365h96v-479h-96v41h-132zM798 314h-98v498h98v-498z" />
    <glyph glyph-name="uniB000" unicode="&#xb000;" 
d="M799 -68h-611v301h611v-301zM312 275h-98v147q-103 -5 -187 -5l-12 83q69 0 107 1q25 94 25 180h-89v79h183q0 -139 -25 -256l58 3l69 3q22 82 22 171h-86v79h180q1 -133 -23 -244q41 4 63 7l6 -74q-103 -14 -193 -20v-154zM403 320v73h137v403h96v-519h-96v43h-137z
M697 14v139h-406v-139h406zM799 273h-99v539h99v-539z" />
    <glyph glyph-name="uniB001" unicode="&#xb001;" 
d="M798 -68h-614v310h103v-74h409v76h102v-312zM312 285h-98v147q-92 -4 -187 -6l-12 84q68 0 106 1q24 87 24 175h-88v78h181q0 -133 -24 -251l60 3l68 3q20 78 20 167h-86v78h181q0 -122 -22 -238q32 1 64 6l6 -73q-78 -12 -193 -21v-153zM403 335v73h137v388h96v-510h-96
v49h-137zM799 281h-98v531h98v-531zM696 15v73h-409v-73h409z" />
    <glyph glyph-name="uniB004" unicode="&#xb004;" 
d="M312 275h-99v146q-62 -3 -186 -5l-13 83q70 0 107 1q25 89 25 183h-89v78h183q0 -144 -26 -258l60 3l68 3q23 85 23 174h-85v78h179q-1 -134 -24 -246q41 4 63 7l7 -74q-102 -14 -193 -20v-153zM405 320v74h134v402h96v-522h-96v46h-134zM799 259h-98v553h98v-553z
M795 -85h-1q-44 17 -91 61.5t-64 85.5q-15 -45 -59 -90.5t-98 -70.5l-59 68q164 78 164 229v31h98v-31q0 -78 44.5 -131.5t118.5 -81.5zM404 -6h-1q-27 12 -52.5 34.5t-37.5 46.5q-17 -47 -65.5 -91.5t-105.5 -69.5l-57 69q84 37 128 88t44 130v23h97v-19q0 -102 116 -143z
" />
    <glyph glyph-name="uniB00C" unicode="&#xb00c;" 
d="M380 -34h-103v362q-91 -5 -246 -5l-16 84h158q28 119 28 256h-121v81h224q0 -172 -31 -334q15 0 47 2q93 4 123 5q26 117 26 246h-122v81h224q0 -160 -29 -320q35 2 82 8l8 -78q-87 -12 -252 -21v-367zM775 812v-891h-103v891h103z" />
    <glyph glyph-name="uniB010" unicode="&#xb010;" 
d="M399 181h-103v190q-174 -4 -262 -4l-15 84h159q25 100 25 211h-114v81h217q0 -161 -28 -290l37 2l122 6q25 98 25 201h-113v81h214q0 -134 -27 -275q12 1 83 9l7 -79q-87 -12 -227 -21v-196zM792 -56h-646v284h102v-202h544v-82zM775 812v-676h-102v676h102z" />
    <glyph glyph-name="uniB014" unicode="&#xb014;" 
d="M807 -80h-629v222h493v67h-498v78h602v-219h-495v-70h527v-78zM380 319h-103v117q-81 -4 -243 -4l-15 85h161q23 87 23 174h-114v81h217q0 -129 -26 -253l35 2l125 6q22 86 22 164h-110v81h211q0 -129 -24 -237l80 8l6 -79q-79 -11 -245 -23v-122zM775 812v-482h-103v482
h103z" />
    <glyph glyph-name="uniB01C" unicode="&#xb01c;" 
d="M775 -67h-600v299h600v-299zM382 265h-103v148q-137 -5 -245 -5l-15 84h158q26 89 26 189h-113v80h216q0 -146 -29 -266q26 0 38 1q83 4 124 7q23 81 23 178h-110v80h212q0 -132 -26 -251q34 2 81 8l7 -79q-110 -14 -244 -22v-152zM775 812v-536h-102v536h102zM673 14
v138h-395v-138h395z" />
    <glyph glyph-name="uniB01D" unicode="&#xb01d;" 
d="M776 -68h-607v332h103v-86h402v88h102v-334zM381 285h-104v132q-162 -4 -243 -4l-15 84h159q24 91 24 188h-114v81h217q0 -146 -28 -267l38 2q81 4 124 7q23 87 23 177h-112v81h212q0 -130 -24 -252l81 9l7 -79q-94 -13 -245 -22v-137zM775 812v-504h-102v504h102z
M674 15v82h-402v-82h402z" />
    <glyph glyph-name="uniB028" unicode="&#xb028;" 
d="M745 757q0 -203 -33 -373h123v-83h-199v-380h-102v380h-206v-380h-102v380h-196v83h204q16 56 28 140.5t12 150.5h-181v82h284q0 -168 -43 -373h279q29 119 29 291h-196v82h299z" />
    <glyph glyph-name="uniB044" unicode="&#xb044;" 
d="M835 49h-805v83h805v-83zM750 720q0 -314 -41 -507l-102 16q16 63 27.5 181t11.5 228h-203v82h307zM383 720q-1 -140 -18 -281t-40 -223l-100 19q19 63 35.5 184.5t17.5 218.5h-191v82h296z" />
    <glyph glyph-name="uniB045" unicode="&#xb045;" 
d="M741 780q0 -163 -34 -328h128v-82h-805v82h221q16 47 27.5 118.5t11.5 128.5h-186v81h290q0 -178 -40 -328h253q31 116 31 247h-180v81h283zM124 237h607v-319h-102v236h-505v83z" />
    <glyph glyph-name="uniB048" unicode="&#xb048;" 
d="M742 761q0 -173 -38 -341h131v-82h-805v82h221q16 49 27.5 126.5t11.5 133.5h-186v81h290q0 -178 -42 -341h251q35 122 35 260h-180v81h284zM741 -53h-608v292h102v-210h506v-82z" />
    <glyph glyph-name="uniB04A" unicode="&#xb04a;" 
d="M741 782q0 -156 -32 -318h126v-81h-805v81h225q35 116 35 236h-186v82h290q0 -168 -38 -318h253q29 117 29 236h-180v82h283zM734 16q0 -47 -44.5 -77.5t-110.5 -30.5t-111 30.5t-45 78.5t45 79t111 31t110.5 -31t44.5 -80zM379 41l13 -79q-120 -29 -270 -29v324h98v-240
q88 4 159 24zM775 149h-403v74h403v-74zM679 249h-209v77h209v-77zM644 17q0 19 -19 30t-46 11q-28 0 -47.5 -11t-19.5 -30q0 -18 20 -29.5t47 -11.5t46 11.5t19 29.5z" />
    <glyph glyph-name="uniB04C" unicode="&#xb04c;" 
d="M761 -73h-628v241h492v81h-497v81h600v-238h-493v-84h526v-81zM742 786q-3 -157 -33 -294h126v-83h-805v83h223q37 102 37 212h-186v82h290q0 -161 -38 -294h252q30 102 30 212h-180v82h284z" />
    <glyph glyph-name="uniB04E" unicode="&#xb04e;" 
d="M742 783q0 -143 -33 -305h126v-83h-805v83h224q36 101 36 223h-186v82h290q0 -172 -37 -305h250q31 106 31 223h-180v82h284zM753 -74h-293v374h293v-374zM418 17l11 -75q-70 -14 -204 -17h-112v226h192v72h-195v77h291v-220h-192v-78q140 0 209 15zM663 1v224h-114v-224
h114z" />
    <glyph glyph-name="uniB053" unicode="&#xb053;" 
d="M742 785q0 -147 -33 -304h126v-82h-805v82h225q35 105 35 222h-186v82h290q0 -170 -37 -304h251q30 108 30 222h-180v82h284zM424 19l9 -75q-64 -16 -204 -19h-114v230h180v79h-183v75h279v-227h-180v-80q141 0 213 17zM768 21q0 -49 -44 -79.5t-110 -30.5
q-67 0 -110.5 30.5t-43.5 80.5q0 49 43.5 79.5t110.5 30.5q65 0 109.5 -31t44.5 -80zM801 157h-374v76h374v-76zM713 266h-198v76h198v-76zM680 22q0 18 -19.5 28.5t-46.5 10.5q-28 0 -47.5 -10t-19.5 -29t19.5 -30t47.5 -11q26 0 46 11t20 30z" />
    <glyph glyph-name="uniB054" unicode="&#xb054;" 
d="M732 -68h-599v330h599v-330zM741 780q-2 -165 -32 -317h126v-83l-805 -1v84h225q35 116 35 236h-186v81h290q0 -167 -37 -317h250q31 111 31 236h-180v81h283zM630 14v168h-395v-168h395z" />
    <glyph glyph-name="uniB055" unicode="&#xb055;" 
d="M732 -67h-599v386h102v-117h395v119h102v-388zM741 785q-2 -163 -34 -307h128v-82h-805v82h224q34 101 36 225h-186v82h290q0 -165 -38 -307h250q32 109 32 225h-180v82h283zM630 15v108h-395v-108h395z" />
    <glyph glyph-name="uniB057" unicode="&#xb057;" 
d="M741 776q-2 -175 -35 -332h129v-83h-805v83h221q16 47 27.5 120t11.5 130h-186v82h290q0 -192 -41 -332h252q33 120 33 250h-180v82h283zM776 -1l-50 -85q-93 13 -178 69.5t-115 120.5q-25 -61 -114.5 -115t-185.5 -68l-50 78q113 7 205 81t92 158v43h104v-43
q0 -84 88.5 -156.5t203.5 -82.5z" />
    <glyph glyph-name="uniB059" unicode="&#xb059;" 
d="M743 100q0 -77 -82 -125t-228 -48q-145 0 -227 48t-82 125t82 125t226 48q146 0 228.5 -48t82.5 -125zM741 777q0 -162 -34 -329h128v-82h-805v82h221q17 47 28 118t11 129h-186v82h290q0 -183 -39 -329h252q31 114 31 247h-180v82h283zM637 100q0 43 -55 67t-150 24
q-94 0 -149 -24t-55 -67t54.5 -67t149.5 -24t150 24t55 67z" />
    <glyph glyph-name="uniB05D" unicode="&#xb05d;" 
d="M741 783q0 -149 -32 -304h126v-83h-805v83h226q34 107 34 222h-186v82h290q0 -169 -37 -304h251q30 111 30 222h-180v82h283zM710 151v-77h-475v-69h509v-79h-611v373h599v-79h-497v-69h475z" />
    <glyph glyph-name="uniB07C" unicode="&#xb07c;" 
d="M764 -79h-99v891h99v-891zM300 717q0 -203 -49 -337.5t-167 -262.5l-76 58q188 190 193 459h-143v83h242zM556 717q0 -219 -47.5 -369.5t-160.5 -281.5l-81 53q97 98 143 235t47 280h-116v83h215z" />
    <glyph glyph-name="uniB07D" unicode="&#xb07d;" 
d="M764 293h-99v519h99v-519zM164 248h601v-328h-102v246h-499v82zM298 756q0 -137 -50 -232.5t-153 -175.5l-68 64q156 96 171 258h-135v86h235zM554 756q0 -155 -49 -260.5t-153 -189.5l-70 60q80 54 125 136.5t47 167.5h-118v86h218z" />
    <glyph glyph-name="uniB080" unicode="&#xb080;" 
d="M763 166h-99v646h99v-646zM784 -56h-604v281h103v-199h501v-82zM299 743q0 -279 -202 -437l-68 61q74 46 117.5 127.5t51.5 162.5h-135v86h236zM556 743q0 -316 -203 -486l-73 59q79 51 126.5 149.5t50.5 191.5h-121v86h220z" />
    <glyph glyph-name="uniB084" unicode="&#xb084;" 
d="M793 -72h-611v234h480v73h-484v83h586v-232h-479v-77h508v-81zM763 363h-99v449h99v-449zM64 768h235q0 -239 -204 -368l-65 63q73 36 117 94.5t52 126.5h-135v84zM336 768h219q0 -137 -50 -234.5t-153 -174.5l-71 61q156 94 172 264h-117v84z" />
    <glyph glyph-name="uniB08C" unicode="&#xb08c;" 
d="M765 -68h-581v335h581v-335zM663 14v172h-376v-172h376zM764 317h-99v495h99v-495zM299 759q0 -139 -50 -234t-153 -174l-69 62q79 48 121.5 116.5t49.5 144.5h-135v85h236zM553 759q0 -154 -49 -260t-152 -190l-71 60q80 53 124.5 135.5t47.5 169.5h-117v85h217z" />
    <glyph glyph-name="uniB08D" unicode="&#xb08d;" 
d="M765 -68h-581v360h103v-101h376v102h102v-361zM663 15v96h-376v-96h376zM764 338h-99v474h99v-474zM299 762q1 -137 -49 -230t-154 -173l-69 65q157 96 171 253h-135v85h236zM553 762q0 -154 -48.5 -256.5t-152.5 -186.5l-69 60q80 52 124 132t46 166h-117v85h217z" />
    <glyph glyph-name="uniB08F" unicode="&#xb08f;" 
d="M763 223h-99v589h99v-589zM298 749q0 -139 -50.5 -238t-152.5 -178l-67 63q154 98 169 268h-134v85h235zM553 749q0 -154 -49.5 -263.5t-151.5 -193.5l-72 61q80 52 125.5 138.5t47.5 172.5h-118v85h218zM810 -7l-50 -81q-89 17 -175 74.5t-118 119.5
q-26 -63 -112 -120.5t-181 -72.5l-49 81q113 12 202 82t89 162v37h107v-37q0 -90 88 -158.5t199 -86.5z" />
    <glyph glyph-name="uniB091" unicode="&#xb091;" 
d="M764 276h-99v536h99v-536zM298 759q0 -134 -47 -229t-154 -179l-69 61q155 100 170 262h-135v85h235zM553 759q0 -153 -48 -258.5t-153 -191.5l-71 59q79 53 124.5 137.5t48.5 168.5h-118v85h217zM771 96q0 -77 -82 -126t-224 -49q-141 0 -221.5 49t-80.5 126
q0 78 80.5 127.5t221.5 49.5q142 0 224 -49.5t82 -127.5zM666 96q0 45 -53 70t-148 25q-93 0 -145 -25t-52 -70q0 -44 52.5 -68.5t144.5 -24.5q95 0 148 24.5t53 68.5z" />
    <glyph glyph-name="uniB098" unicode="&#xb098;" 
d="M859 383h-138v-462h-102v891h102v-344h138v-85zM553 189q-156 -38 -395 -40l-92 -1v573h101v-486q230 0 372 38z" />
    <glyph glyph-name="uniB099" unicode="&#xb099;" 
d="M723 -79h-104v250h-479v83h583v-333zM852 507h-131v-205h-102v510h102v-220h131v-85zM529 492l16 -85q-151 -36 -386 -38l-95 -1v395h101v-308q217 2 364 37z" />
    <glyph glyph-name="uniB09A" unicode="&#xb09a;" 
d="M723 -79h-102v259h-180v80h282v-339zM852 511h-131v-203h-102v504h102v-216h131v-85zM395 -79h-100v259h-182v80h282v-339zM529 496l16 -84q-146 -37 -386 -39l-95 -1v395h101v-307q217 2 364 36z" />
    <glyph glyph-name="uniB09C" unicode="&#xb09c;" 
d="M531 446l14 -83q-152 -37 -386 -39l-95 -1v424h101v-336q216 2 366 35zM853 477h-132v-311h-102v646h102v-250h132v-85zM745 -52h-595v285h103v-202h492v-83z" />
    <glyph glyph-name="uniB09F" unicode="&#xb09f;" 
d="M737 -67h-585v335h573v-84h-470v-169h482v-82zM852 528h-131v-209h-102v493h102v-198h131v-86zM529 494l16 -85q-142 -35 -386 -39h-95v393h101v-305q213 0 364 36z" />
    <glyph glyph-name="uniB0A0" unicode="&#xb0a0;" 
d="M852 552h-131v-182h-102v442h102v-175h131v-85zM751 -72h-602v238h470v75h-476v82h578v-235h-470v-79h500v-81zM529 524l16 -86q-137 -33 -386 -37h-95v365h101v-278q207 0 364 36z" />
    <glyph glyph-name="uniB0A1" unicode="&#xb0a1;" 
d="M723 -81h-104v298h-175v78h279v-376zM852 538h-131v-194h-102v468h102v-190h131v-84zM529 513l16 -83q-151 -36 -386 -38l-95 -1v370h101v-283q212 2 364 35zM455 25l12 -77q-106 -23 -264 -23h-94v222h190v70h-192v78h292v-218h-190v-74q156 0 246 22z" />
    <glyph glyph-name="uniB0A2" unicode="&#xb0a2;" 
d="M721 -77h-288v370h288v-370zM631 -1v218h-106v-218h106zM395 20l10 -77q-71 -16 -212 -18h-97v221h182v70h-185v77h285v-218h-182v-74q112 0 199 19zM529 513l16 -83q-143 -35 -386 -39l-95 -1v371h101v-283q209 2 364 35zM852 539h-131v-197h-102v470h102v-189h131v-84z
" />
    <glyph glyph-name="uniB0A8" unicode="&#xb0a8;" 
d="M852 533h-131v-213h-102v492h102v-193h131v-86zM721 -67h-570v336h570v-336zM619 14v175h-365v-175h365zM531 495l14 -83q-157 -37 -386 -39l-95 -1v391h101v-303q219 2 366 35z" />
    <glyph glyph-name="uniB0A9" unicode="&#xb0a9;" 
d="M721 -67h-571v359h103v-99h366v101h102v-361zM619 15v98h-366v-98h366zM852 537h-131v-196h-102v471h102v-190h131v-85zM529 509l16 -85q-167 -35 -386 -39h-95v383h101v-295q210 0 364 36z" />
    <glyph glyph-name="uniB0AB" unicode="&#xb0ab;" 
d="M852 496h-131v-267h-102v583h102v-230h131v-86zM529 470l16 -85q-151 -33 -386 -37h-95v399h101v-312q211 0 364 35zM787 -6l-50 -81q-90 17 -176 74.5t-117 119.5q-26 -63 -112.5 -120.5t-181.5 -72.5l-48 80q113 13 202 83t89 161v41h106v-41q0 -90 88 -158t200 -86z
" />
    <glyph glyph-name="uniB0AC" unicode="&#xb0ac;" 
d="M852 527h-130v-207h-103v493h103v-201h130v-85zM530 490l15 -84q-148 -36 -386 -38l-95 -1v394h101v-307q217 2 365 36zM829 -10l-55 -75q-49 21 -97 67.5t-65 93.5q-12 -48 -61 -98.5t-103 -77.5l-58 69q79 36 125 103t46 152v48h100v-47q0 -83 46 -145.5t122 -89.5z
M380 -11q-27 15 -54 39.5t-40 52.5q-17 -54 -64 -101t-109 -74l-56 70q75 31 124.5 95.5t49.5 145.5v50h100v-45q0 -61 35.5 -104.5t79.5 -57.5z" />
    <glyph glyph-name="uniB0AD" unicode="&#xb0ad;" 
d="M852 511h-131v-222h-102v523h102v-216h131v-85zM733 98q0 -79 -80 -127t-222 -48t-221 47.5t-79 127.5q0 82 79 130t221 48t222 -48.5t80 -129.5zM431 194q-92 0 -143.5 -25.5t-51.5 -70.5q0 -43 51.5 -68t143.5 -25t144.5 25t52.5 68q0 45 -52.5 70.5t-144.5 25.5z
M529 482l16 -82q-152 -37 -386 -39h-95v397h101v-310q206 0 364 34z" />
    <glyph glyph-name="uniB0AE" unicode="&#xb0ae;" 
d="M852 526h-131v-209h-102v495h102v-200h131v-86zM529 493l16 -84q-154 -37 -386 -39h-95v391h101v-304q217 2 364 36zM148 263h589v-81h-239q8 -74 94 -127t189 -64l-47 -78q-86 7 -178 61.5t-114 113.5q-26 -60 -112 -111.5t-181 -61.5l-47 76q106 7 188.5 60.5
t97.5 130.5h-240v81z" />
    <glyph glyph-name="uniB0AF" unicode="&#xb0af;" 
d="M784 -17l-48 -79q-93 13 -176.5 59.5t-112.5 96.5q-26 -52 -111 -98t-179 -56l-49 77q98 5 179.5 48.5t102.5 103.5h-247v80h607v-80h-242q20 -58 99 -101t177 -51zM529 521l16 -83q-148 -36 -386 -38l-95 -1v372h101v-285q215 2 364 35zM852 539h-131v-203h-102v476h102
v-188h131v-85zM583 261h-276v82h276v-82z" />
    <glyph glyph-name="uniB0B1" unicode="&#xb0b1;" 
d="M852 538h-131v-197h-102v471h102v-189h131v-85zM529 512l16 -84q-148 -37 -386 -39l-95 -1v379h101v-291q210 0 364 36zM707 76h-452v-67h491v-77h-594v359h576v-77h-473v-64h452v-74z" />
    <glyph glyph-name="uniB0B3" unicode="&#xb0b3;" 
d="M852 552h-131v-199h-102v459h102v-176h131v-84zM529 532l16 -84q-127 -36 -386 -38h-95v366h101v-280q231 2 364 36zM585 287h-271v79h271v-79zM764 168h-629v78h629v-78zM693 25q0 -52 -61 -85t-181 -33q-122 0 -182 33t-60 85q0 53 60 86.5t182 33.5q121 0 181.5 -33.5
t60.5 -86.5zM587 25q0 47 -136 47q-137 0 -137 -47t137 -47q136 0 136 47z" />
    <glyph glyph-name="uniB0B4" unicode="&#xb0b4;" 
d="M780 -79h-98v451h-95v-408h-96v830h96v-336h95v354h98v-891zM434 270l14 -83q-105 -26 -288 -28h-88v547h102v-462q171 0 260 26z" />
    <glyph glyph-name="uniB0B5" unicode="&#xb0b5;" 
d="M780 297h-98v214h-95v-204h-96v489h96v-200h95v216h98v-515zM780 -79h-102v251h-505v82h607v-333zM431 492l15 -84q-122 -28 -286 -30h-88v379h102v-293q158 0 257 28z" />
    <glyph glyph-name="uniB0B8" unicode="&#xb0b8;" 
d="M780 150h-98v315h-95v-288h-96v619h96v-245h95v261h98v-662zM803 -54h-612v286h102v-204h510v-82zM431 442l15 -83q-108 -28 -286 -30h-89v404h102v-317q165 0 258 26z" />
    <glyph glyph-name="uniB0BC" unicode="&#xb0bc;" 
d="M809 -72h-618v233h486v73h-491v82h593v-230h-486v-77h516v-81zM780 361h-98v182h-95v-176h-96v429h96v-168h95v184h98v-451zM431 511l15 -84q-103 -25 -286 -27h-89v361h102v-276q158 0 258 26z" />
    <glyph glyph-name="uniB0C4" unicode="&#xb0c4;" 
d="M780 -67h-589v335h589v-335zM780 314h-98v201h-95v-192h-96v473h96v-195h95v211h98v-498zM678 14v174h-385v-174h385zM431 489l15 -83q-94 -26 -286 -28h-88v379h102v-293q166 0 257 25z" />
    <glyph glyph-name="uniB0C5" unicode="&#xb0c5;" 
d="M780 -67h-590v346h102v-98h386v101h102v-349zM780 329h-98v193h-95v-184h-96v458h96v-189h95v205h98v-483zM431 494l15 -84q-89 -26 -286 -28h-88v379h102v-294q170 0 257 27zM678 15v85h-386v-85h386z" />
    <glyph glyph-name="uniB0C7" unicode="&#xb0c7;" 
d="M780 222h-98v275h-95v-192h-96v491h96v-213h95v229h98v-590zM824 -6l-49 -81q-91 17 -176.5 74.5t-117.5 119.5q-26 -63 -112.5 -120.5t-180.5 -72.5l-49 80q114 13 203 83t89 161v30h106v-30q0 -90 88 -158t199 -86zM431 444l15 -85q-129 -28 -286 -28h-89v400h102v-314
q165 0 258 27z" />
    <glyph glyph-name="uniB0C8" unicode="&#xb0c8;" 
d="M780 303h-98v208h-95v-198h-96v483h96v-199h95v215h98v-509zM431 477l15 -83q-88 -28 -286 -30h-89v389h102v-302q176 0 258 26zM849 -2l-56 -74q-47 21 -95.5 67.5t-64.5 93.5q-13 -48 -62 -98.5t-103 -77.5l-58 69q79 36 125.5 102t46.5 150v39h99v-38q0 -82 46 -144
t122 -89zM400 -3q-27 14 -54 39.5t-40 52.5q-17 -53 -64.5 -100.5t-108.5 -73.5l-56 69q75 32 125 95.5t50 144.5v40h100v-35q0 -62 35 -104t79 -56z" />
    <glyph glyph-name="uniB0C9" unicode="&#xb0c9;" 
d="M789 98q0 -80 -82 -128t-226 -48q-142 0 -224 48t-82 128q0 81 81.5 129.5t224.5 48.5q144 0 226 -48.5t82 -129.5zM780 278h-98v223h-95v-193h-96v488h96v-209h95v225h98v-534zM432 462l14 -84q-93 -25 -286 -27h-88v394h102v-310q166 0 258 27zM683 98q0 44 -53.5 69
t-148.5 25q-94 0 -147 -25t-53 -69t53.5 -69t146.5 -25q94 0 148 25t54 69z" />
    <glyph glyph-name="uniB0D0" unicode="&#xb0d0;" 
d="M854 597v-84h-138v-177h138v-83h-138v-332h-102v891h102v-215h138zM553 189q-72 -18 -186 -28.5t-209 -11.5l-92 -1v573h101v-486q237 0 371 38z" />
    <glyph glyph-name="uniB0D1" unicode="&#xb0d1;" 
d="M852 501v-84h-131v-116h-102v511h102v-118h131v-84h-131v-109h131zM723 -79h-104v250h-479v83h583v-333zM529 490l16 -85q-154 -36 -386 -38h-95v396h101v-310q219 2 364 37z" />
    <glyph glyph-name="uniB0D4" unicode="&#xb0d4;" 
d="M852 435v-83h-131v-186h-102v646h102v-153h132v-84h-132v-140h131zM529 448l16 -82q-148 -37 -386 -39l-95 -1v421h101v-333q236 2 364 34zM746 -52h-596v285h103v-202h493v-83z" />
    <glyph glyph-name="uniB0D8" unicode="&#xb0d8;" 
d="M751 -72h-602v236h470v77h-476v82h578v-235h-470v-79h500v-81zM529 524l16 -86q-163 -33 -386 -37h-95v365h101v-278q205 0 364 36zM852 540v-81h-131v-89h-102v442h102v-100h131v-81h-131v-91h131z" />
    <glyph glyph-name="uniB0E0" unicode="&#xb0e0;" 
d="M721 -67h-570v336h570v-336zM852 504v-84h-131v-101h-102v493h102v-118h131v-84h-131v-106h131zM529 495l16 -83q-146 -37 -386 -39l-95 -1v391h101v-303q215 2 364 35zM619 14v175h-365v-175h365z" />
    <glyph glyph-name="uniB0E5" unicode="&#xb0e5;" 
d="M733 98q0 -79 -80 -127t-222 -48t-221 47.5t-79 127.5q0 82 79 130t221 48t222 -48.5t80 -129.5zM852 496v-83h-131v-127h-102v526h102v-123h131v-84h-131v-109h131zM529 482l16 -82q-152 -37 -386 -39h-95v397h101v-310q206 0 364 34zM431 194q-92 0 -143.5 -25.5
t-51.5 -70.5q0 -43 52 -68.5t143 -25.5q92 0 144.5 25.5t52.5 68.5q0 45 -52.5 70.5t-144.5 25.5z" />
    <glyph glyph-name="uniB108" unicode="&#xb108;" 
d="M409 443v84h251v285h102v-891h-102v522h-251zM526 252l16 -83q-137 -35 -379 -37h-92v588h103v-501q219 0 352 33z" />
    <glyph glyph-name="uniB109" unicode="&#xb109;" 
d="M431 561v86h230v165h102v-516h-102v265h-230zM764 -79h-102v245h-498v82h600v-327zM534 458l16 -85q-167 -36 -382 -38h-92v426h102v-339q204 0 356 36z" />
    <glyph glyph-name="uniB10B" unicode="&#xb10b;" 
d="M423 -79h-100v263h-193v80h293v-343zM660 654v158h102v-498h-102v255h-229v85h229zM534 477l15 -83q-156 -38 -382 -40h-92v411h102v-324q210 2 357 36zM841 -6l-58 -71q-46 18 -87.5 60t-55.5 79q-14 -41 -54 -84t-87 -64l-61 66q67 24 109.5 87t42.5 138v62h100v-62
q0 -72 41.5 -130t109.5 -81z" />
    <glyph glyph-name="uniB10C" unicode="&#xb10c;" 
d="M782 -53h-599v285h103v-203h496v-82zM661 630v182h102v-647h-102v379h-230v86h230zM534 436l16 -84q-154 -36 -382 -38h-92v437h102v-350q197 0 356 35z" />
    <glyph glyph-name="uniB110" unicode="&#xb110;" 
d="M792 -71h-608v230h477v70h-481v83h583v-229h-476v-73h505v-81zM661 670v142h102v-455h-102v228h-230v85h230zM534 504l15 -84q-135 -35 -382 -37l-91 -1v388h102v-301q205 0 356 35z" />
    <glyph glyph-name="uniB112" unicode="&#xb112;" 
d="M763 -77h-286v364h286v-364zM672 -1v212h-104v-212h104zM661 663v149h102v-479h-102v244h-230v86h230zM534 498l16 -84q-148 -37 -382 -39l-92 -1v396h102v-308q215 2 356 36zM437 17l12 -76q-68 -15 -211 -18h-100v217h183v70h-185v77h284v-215h-183v-75q120 0 200 20z
" />
    <glyph glyph-name="uniB113" unicode="&#xb113;" 
d="M763 -76h-286v363h92v-108h102v109h92v-364zM671 0v102h-102v-102h102zM661 663v149h102v-476h-102v241h-230v86h230zM534 498l16 -84q-149 -37 -382 -39l-92 -1v396h102v-308q211 2 356 36zM437 20l12 -78q-79 -16 -211 -19h-100v217h183v71h-185v76h284v-215h-183v-71
q121 0 200 19z" />
    <glyph glyph-name="uniB118" unicode="&#xb118;" 
d="M763 -67h-580v334h580v-334zM661 14v172h-375v-172h375zM661 653v159h102v-495h-102v251h-230v85h230zM534 474l16 -84q-151 -34 -382 -38h-92v409h102v-323q198 0 356 36z" />
    <glyph glyph-name="uniB119" unicode="&#xb119;" 
d="M764 -67h-581v348h103v-93h376v96h102v-351zM662 15v92h-376v-92h376zM661 660v152h102v-480h-102v242h-230v86h230zM534 482l16 -82q-152 -37 -382 -39l-92 -1v405h102v-317q200 0 356 34z" />
    <glyph glyph-name="uniB11B" unicode="&#xb11b;" 
d="M661 628v184h102v-595h-102v325h-230v86h230zM534 448l15 -84q-157 -37 -382 -39h-92v431h102v-343q203 0 357 35zM811 -6l-50 -81q-90 17 -176 74.5t-117 119.5q-26 -63 -112.5 -120.5t-181.5 -72.5l-49 80q113 13 202 82.5t89 161.5v36h108v-36q0 -90 88 -158t199 -86z
" />
    <glyph glyph-name="uniB11C" unicode="&#xb11c;" 
d="M660 648v164h102v-500h-102v250h-229v86h229zM534 470l15 -84q-152 -36 -382 -38h-92v412h102v-325q195 0 357 35zM847 -8l-56 -75q-48 22 -96 68t-64 93q-13 -48 -61.5 -98.5t-103.5 -78.5l-58 70q79 36 125 102.5t46 151.5v48h101v-47q0 -83 45.5 -145.5t121.5 -88.5z
M399 -9q-29 15 -55.5 39.5t-38.5 52.5q-18 -53 -65 -100.5t-109 -74.5l-56 70q75 31 125 95t50 145v50h100v-45q0 -61 35 -104t79 -57z" />
    <glyph glyph-name="uniB11D" unicode="&#xb11d;" 
d="M769 97q0 -79 -80.5 -127t-223.5 -48q-142 0 -222 48t-80 127q0 81 80 129.5t222 48.5q143 0 223.5 -48.5t80.5 -129.5zM465 192q-93 0 -145 -25.5t-52 -69.5t52 -68.5t145 -24.5q95 0 147.5 24.5t52.5 68.5t-52.5 69.5t-147.5 25.5zM661 643v169h102v-528h-102v274h-230
v85h230zM534 464l16 -83q-149 -35 -382 -39l-92 -1v414h102v-326q203 2 356 35z" />
    <glyph glyph-name="uniB123" unicode="&#xb123;" 
d="M661 687v125h102v-466h-102v256h-230v85h230zM534 523l15 -82q-160 -36 -381 -38h-92v377h102v-290q206 0 356 33zM712 25q0 -52 -61 -84.5t-181 -32.5q-121 0 -181.5 32.5t-60.5 84.5q0 53 60.5 85.5t181.5 32.5t181.5 -32.5t60.5 -85.5zM605 25q0 47 -135 47t-135 -47
q0 -45 135 -45t135 45zM783 170h-629v78h629v-78zM603 288h-270v80h270v-80z" />
    <glyph glyph-name="uniB124" unicode="&#xb124;" 
d="M453 173q-125 -25 -293 -27l-88 -1v581h102v-494q165 0 264 26zM780 -79h-98v891h98v-891zM601 -36h-97v478h-182v85h182v267h97v-830z" />
    <glyph glyph-name="uniB125" unicode="&#xb125;" 
d="M780 -79h-102v250h-505v82h607v-332zM431 460l14 -83q-105 -27 -285 -29l-88 -1v407h102v-322q160 0 257 28zM780 298h-98v514h98v-514zM610 307h-97v247h-161v85h161v157h97v-489z" />
    <glyph glyph-name="uniB128" unicode="&#xb128;" 
d="M803 -54h-613v287h102v-205h511v-82zM431 426l15 -84q-107 -26 -286 -28l-89 -1v423h102v-337q150 0 258 27zM780 150h-98v662h98v-662zM610 177h-97v347h-161v85h161v187h97v-619z" />
    <glyph glyph-name="uniB12C" unicode="&#xb12c;" 
d="M809 -72h-618v232h486v70h-491v83h593v-229h-486v-75h516v-81zM431 499l15 -83q-100 -27 -286 -29h-89v374h102v-288q161 0 258 26zM780 358h-98v454h98v-454zM610 364h-97v214h-161v86h161v132h97v-432z" />
    <glyph glyph-name="uniB134" unicode="&#xb134;" 
d="M780 -67h-589v335h589v-335zM678 14v174h-385v-174h385zM431 472l15 -84q-94 -24 -286 -26l-88 -1v396h102v-309q170 0 257 24zM780 311h-98v501h98v-501zM610 319h-97v240h-161v86h161v150h97v-476z" />
    <glyph glyph-name="uniB135" unicode="&#xb135;" 
d="M780 -67h-590v346h102v-98h386v101h102v-349zM678 15v85h-386v-85h386zM431 480l15 -82q-41 -11 -124 -19.5t-162 -8.5h-88v393h102v-308q160 0 257 25zM780 325h-98v487h98v-487zM610 335h-97v236h-161v85h161v139h97v-460z" />
    <glyph glyph-name="uniB137" unicode="&#xb137;" 
d="M431 436l15 -84q-111 -26 -286 -28l-89 -1v412h102v-325q175 0 258 26zM780 222h-98v590h98v-590zM609 303h-97v228h-160v85h160v179h97v-492zM820 -8l-50 -81q-90 17 -176 75t-117 119q-26 -63 -112.5 -120.5t-181.5 -72.5l-50 81q114 13 203.5 82.5t89.5 160.5v26h106
v-26q0 -90 88 -158t200 -86z" />
    <glyph glyph-name="uniB138" unicode="&#xb138;" 
d="M431 460l15 -84q-100 -24 -286 -26l-89 -1v408h102v-322q167 0 258 25zM780 303h-98v509h98v-509zM609 313h-97v240h-160v85h160v157h97v-482zM852 -7l-56 -75q-48 22 -96 68t-65 93q-12 -48 -61 -98.5t-103 -77.5l-58 69q79 36 125.5 102.5t46.5 150.5v36h99v-35
q0 -83 46 -145t122 -88zM403 -8q-70 37 -94 92q-17 -53 -64.5 -100.5t-109.5 -74.5l-55 69q75 32 125 95.5t50 144.5v39h99v-34q0 -61 35 -103.5t80 -56.5z" />
    <glyph glyph-name="uniB139" unicode="&#xb139;" 
d="M432 447l14 -84q-107 -25 -286 -27l-88 -1v410h102v-324q165 0 258 26zM780 275h-98v537h98v-537zM610 311h-97v230h-161v84h161v170h97v-484zM789 98q0 -80 -82 -128t-226 -48q-142 0 -224 48t-82 128q0 81 81.5 129.5t224.5 48.5q144 0 226 -48.5t82 -129.5zM683 98
q0 44 -53.5 69t-148.5 25q-94 0 -147 -25t-53 -69t53.5 -69t146.5 -25q94 0 148 25t54 69z" />
    <glyph glyph-name="uniB140" unicode="&#xb140;" 
d="M428 530v84h231v198h102v-891h-102v399h-231v83h231v127h-231zM521 239l15 -83q-134 -37 -372 -37l-91 -1v607h102v-520q207 0 346 34z" />
    <glyph glyph-name="uniB141" unicode="&#xb141;" 
d="M430 636v80h231v96h102v-526h-102v199h-231v81h231v70h-231zM516 432l16 -83q-115 -33 -364 -35h-92v448h102v-361q214 0 338 31zM764 -79h-102v236h-501v81h603v-317z" />
    <glyph glyph-name="uniB144" unicode="&#xb144;" 
d="M428 624v81h233v107h102v-646h-102v303h-233v81h233v74h-233zM511 409l15 -83q-134 -32 -361 -34h-89v460h102v-373q202 0 333 30zM785 -54h-603v274h103v-192h500v-82z" />
    <glyph glyph-name="uniB148" unicode="&#xb148;" 
d="M792 -69h-609v225h478v66h-481v82h583v-224h-477v-67h506v-82zM763 347h-102v164h-232v80h232v63h-232v81h232v77h102v-465zM516 466l16 -81q-127 -31 -365 -33h-91v418h102q0 -55 -0.5 -167t-0.5 -168q199 0 339 31z" />
    <glyph glyph-name="uniB150" unicode="&#xb150;" 
d="M763 -67h-586v321h586v-321zM661 14v159h-382v-159h382zM762 300h-102v190h-232v81h232v66h-232v80h232v95h102v-512zM517 436l15 -82q-122 -33 -364 -35h-92v442h102v-356q201 0 339 31z" />
    <glyph glyph-name="uniB151" unicode="&#xb151;" 
d="M764 -67h-581v343h103v-91h376v93h102v-345zM762 318h-102v177h-229v80h229v66h-229v80h229v91h102v-494zM662 15v89h-376v-89h376zM516 452l16 -82q-123 -33 -364 -35l-92 -1v435h102v-348q203 0 338 31z" />
    <glyph glyph-name="uniB154" unicode="&#xb154;" 
d="M761 304h-102v186h-232v80h232v67h-232v81h232v94h102v-508zM515 433l16 -82q-126 -33 -364 -35h-92v445h102v-359q210 0 338 31zM848 -8l-56 -75q-48 22 -96 68t-64 93q-13 -48 -61.5 -98.5t-103.5 -78.5l-58 70q79 36 125 102t46 151v42h101v-41q0 -83 45.5 -145
t121.5 -88zM399 -9q-71 39 -94 92q-17 -53 -64 -100.5t-109 -74.5l-56 70q75 31 125 94.5t50 144.5v44h100v-39q0 -61 35 -103.5t79 -56.5z" />
    <glyph glyph-name="uniB155" unicode="&#xb155;" 
d="M769 95q0 -80 -80 -126.5t-224 -46.5q-142 0 -222 46.5t-80 126.5q0 81 79.5 128t222.5 47q144 0 224 -47t80 -128zM465 187q-94 0 -145.5 -23.5t-51.5 -68.5q0 -43 52 -67t145 -24q95 0 147.5 24t52.5 67q0 45 -52 68.5t-148 23.5zM762 278h-102v207h-232v81h232v70
h-232v80h232v96h102v-534zM515 432l17 -82q-118 -33 -364 -35h-92v445h102v-359q218 0 337 31z" />
    <glyph glyph-name="uniB158" unicode="&#xb158;" 
d="M764 -79h-102v115l-506 -27l-13 83l519 21v64h-504v83h606v-339zM762 303h-102v192h-229v79h229v65h-229v80h229v93h102v-509zM516 440l16 -83q-142 -34 -364 -34h-92v441h102v-355q204 0 338 31z" />
    <glyph glyph-name="uniB15C" unicode="&#xb15c;" 
d="M342 337v80h159v99h-159v81h159v197h97v-830h-97v373h-159zM780 -79h-98v891h98v-891zM430 256l14 -83q-107 -26 -284 -28l-88 -1v563h102v-477q154 0 256 26z" />
    <glyph glyph-name="uniB160" unicode="&#xb160;" 
d="M353 448v81h160v65h-160v81h160v120h97v-618h-97v271h-160zM803 -54h-613v272h102v-190h511v-82zM427 395l14 -82q-97 -27 -283 -29h-87v453h102v-367q153 0 254 25zM780 150h-98v662h98v-662z" />
    <glyph glyph-name="uniB178" unicode="&#xb178;" 
d="M739 348h-257v-231h353v-82h-805v82h350v231h-250v394h102v-311h507v-83z" />
    <glyph glyph-name="uniB179" unicode="&#xb179;" 
d="M736 495h-253v-109h352v-82h-805v82h351v109h-242v300h103v-217h494v-83zM124 218h607v-300h-102v218h-505v82z" />
    <glyph glyph-name="uniB17C" unicode="&#xb17c;" 
d="M736 476h-253v-122h352v-82h-805v82h351v122h-242v304h103v-222h494v-82zM741 -54h-608v262h103v-180h505v-82z" />
    <glyph glyph-name="uniB180" unicode="&#xb180;" 
d="M762 -73h-630v225h495v62h-500v82h602v-220h-495v-67h528v-82zM736 526h-254v-85h353v-83h-805v83h350v85h-241v275h103v-192h494v-83z" />
    <glyph glyph-name="uniB182" unicode="&#xb182;" 
d="M736 522h-254v-94h353v-82h-805v82h350v94h-241v277h103v-195h494v-82zM755 -76h-293v348h293v-348zM421 22l11 -79q-71 -16 -205 -19h-111v213h191v59h-192v76h288v-205h-192v-64q131 0 210 19zM664 -1v198h-110v-198h110z" />
    <glyph glyph-name="uniB188" unicode="&#xb188;" 
d="M732 -68h-599v302h599v-302zM736 502h-254v-106h353v-83h-805v83h350v106h-241v294h103v-211h494v-83zM630 13v142h-395v-142h395z" />
    <glyph glyph-name="uniB189" unicode="&#xb189;" 
d="M732 -68h-598v336h103v-90h393v92h102v-338zM736 510h-254v-99h353v-83h-805v83h350v99h-241v287h103v-205h494v-82zM630 14v84h-393v-84h393z" />
    <glyph glyph-name="uniB18B" unicode="&#xb18b;" 
d="M736 498h-254v-110h353v-82h-805v82h350v110h-241v295h103v-213h494v-82zM776 -5l-50 -85q-95 14 -179 70.5t-114 120.5q-25 -62 -114.5 -116t-185.5 -68l-50 78q114 7 205.5 77t91.5 153v26h104v-26q0 -83 88 -151t204 -79z" />
    <glyph glyph-name="uniB18D" unicode="&#xb18d;" 
d="M743 86q0 -76 -81.5 -120.5t-228.5 -44.5t-228 44.5t-81 120.5q0 75 81 120t227 45q148 0 229.5 -44.5t81.5 -120.5zM736 500h-254v-103h353v-83h-805v83h350v103h-241v295h103v-212h494v-83zM637 85q0 39 -54.5 61t-150.5 22q-94 0 -149 -22t-55 -61t54.5 -60.5
t149.5 -21.5q96 0 150.5 21.5t54.5 60.5z" />
    <glyph glyph-name="uniB192" unicode="&#xb192;" 
d="M736 524h-253v-104h352v-82h-805v82h351v104h-242v271h103v-190h494v-81zM755 -66h-649v83h136l-21 122l102 14l15 -136h177l28 135l99 -20l-28 -115h141v-83zM747 180h-632v82h632v-82z" />
    <glyph glyph-name="uniB193" unicode="&#xb193;" 
d="M736 549h-254v-77h353v-78h-805v78h350v77h-241v254h103v-172h494v-82zM694 25q0 -110 -261 -110t-261 110t261 110t261 -110zM760 164h-653v74h653v-74zM590 25q0 42 -157 42q-158 0 -158 -42q0 -43 158 -43q157 0 157 43zM577 275h-287v75h287v-75z" />
    <glyph glyph-name="uniB194" unicode="&#xb194;" 
d="M539 376h-181v-191q114 7 217 19l8 -79q-226 -31 -550 -33l-14 86q153 0 237 3v195h-171v354h102v-273h352v-81zM729 812v-372h131v-86h-131v-433h-102v891h102z" />
    </font>
</defs>
</svg>
